<svg width="112" height="72" viewBox="0 0 112 72" fill="none" xmlns="http://www.w3.org/2000/svg">
<g filter="url(#filter0_d)">
<path d="M75.732 5.89111H33.869C32.8856 5.89111 32.0896 6.56337 32.0896 7.3939V31.1613C32.0896 31.9918 32.8856 32.664 33.869 32.664H75.732C76.7154 32.664 77.5114 31.9918 77.5114 31.1613V7.43344C77.5582 6.56349 76.7154 5.89111 75.732 5.89111Z" fill="#DEDEDF"/>
<path d="M75.0295 7.94751H34.6182V30.6867H75.0295V7.94751Z" fill="#2D3436"/>
<path d="M83.7392 41.3643L77.7454 33.02C77.605 32.8223 77.3708 32.7036 77.0899 32.7036H32.5109C32.23 32.7036 31.9958 32.8222 31.8553 33.02L25.9084 41.3643C25.5805 41.7993 25.9552 42.3529 26.564 42.3529H83.0836C83.6924 42.3529 84.0669 41.7993 83.7392 41.3643Z" fill="#BDBDBE"/>
<path d="M78.0732 36.6581H31.5745L33.2133 34.1667H76.4342L78.0732 36.6581Z" fill="white"/>
<path d="M59.4831 40.6921H50.1646L50.5392 37.647H59.1085L59.4831 40.6921Z" fill="white"/>
<path d="M85.2255 0H69.7259C68.3211 0 67.1973 0.949141 67.1973 2.13551V10.0448C67.1973 11.2312 68.3211 12.1803 69.7259 12.1803H69.96V15.8977L74.3617 12.1803H85.2255C86.6303 12.1803 87.7541 11.2312 87.7541 10.0448V2.13551C87.7541 0.949141 86.6303 0 85.2255 0Z" fill="url(#paint0_linear)"/>
<path d="M71.966 7.42625C72.9229 7.42625 73.6986 6.77114 73.6986 5.96301C73.6986 5.15488 72.9229 4.49976 71.966 4.49976C71.0091 4.49976 70.2334 5.15488 70.2334 5.96301C70.2334 6.77114 71.0091 7.42625 71.966 7.42625Z" fill="#FCFCFD"/>
<path d="M77.7255 7.42625C78.6824 7.42625 79.4582 6.77114 79.4582 5.96301C79.4582 5.15488 78.6824 4.49976 77.7255 4.49976C76.7686 4.49976 75.9929 5.15488 75.9929 5.96301C75.9929 6.77114 76.7686 7.42625 77.7255 7.42625Z" fill="#FCFCFD"/>
<path d="M83.4853 7.42625C84.4422 7.42625 85.2179 6.77114 85.2179 5.96301C85.2179 5.15488 84.4422 4.49976 83.4853 4.49976C82.5284 4.49976 81.7527 5.15488 81.7527 5.96301C81.7527 6.77114 82.5284 7.42625 83.4853 7.42625Z" fill="#FCFCFD"/>
</g>
<g filter="url(#filter1_d)">
<path d="" fill="#538BF0"/>
</g>
<defs>
<filter id="filter0_d" x="21.7869" y="0" width="69.9673" height="50.3529" filterUnits="userSpaceOnUse" color-interpolation-filters="sRGB">
<feFlood flood-opacity="0" result="BackgroundImageFix"/>
<feColorMatrix in="SourceAlpha" type="matrix" values="0 0 0 0 0 0 0 0 0 0 0 0 0 0 0 0 0 0 127 0"/>
<feOffset dy="4"/>
<feGaussianBlur stdDeviation="2"/>
<feColorMatrix type="matrix" values="0 0 0 0 0 0 0 0 0 0 0 0 0 0 0 0 0 0 0.25 0"/>
<feBlend mode="normal" in2="BackgroundImageFix" result="effect1_dropShadow"/>
<feBlend mode="normal" in="SourceGraphic" in2="effect1_dropShadow" result="shape"/>
</filter>
<filter id="filter1_d" x="0.547119" y="49.905" width="110.901" height="20.92" filterUnits="userSpaceOnUse" color-interpolation-filters="sRGB">
<feFlood flood-opacity="0" result="BackgroundImageFix"/>
<feColorMatrix in="SourceAlpha" type="matrix" values="0 0 0 0 0 0 0 0 0 0 0 0 0 0 0 0 0 0 127 0"/>
<feOffset dx="1" dy="2"/>
<feGaussianBlur stdDeviation="1"/>
<feColorMatrix type="matrix" values="0 0 0 0 0.32549 0 0 0 0 0.545098 0 0 0 0 0.941176 0 0 0 0.44 0"/>
<feBlend mode="color-dodge" in2="BackgroundImageFix" result="effect1_dropShadow"/>
<feBlend mode="normal" in="SourceGraphic" in2="effect1_dropShadow" result="shape"/>
</filter>
<linearGradient id="paint0_linear" x1="77.4757" y1="-4.59809e-09" x2="77.5354" y2="15.1109" gradientUnits="userSpaceOnUse">
<stop stop-color="#538BF0"/>
<stop offset="1" stop-color="#2DC7ED"/>
</linearGradient>
</defs>
</svg>
