<svg xmlns="http://www.w3.org/2000/svg" viewBox="0 0 1080 1080" width="1080" height="1080" preserveAspectRatio="xMidYMid meet" style="width: 100%; height: 100%; transform: translate3d(0px, 0px, 0px);"><defs><clipPath id="__lottie_element_823"><rect width="1080" height="1080" x="0" y="0"></rect></clipPath></defs><g clip-path="url(#__lottie_element_823)"><g transform="matrix(1,0,0,1,60,0)" opacity="1" style="display: block;"><g opacity="1" transform="matrix(1,0,0,1,478.5780029296875,221.10299682617188)"><path fill="rgb(243,231,217)" fill-opacity="1" d=" M252.6529998779297,-71.66400146484375 C231.45899963378906,-71.66400146484375 207.2169952392578,-65.54000091552734 194.5189971923828,-61.84700012207031 C189.2550048828125,-64.27200317382812 185.69700622558594,-65.38600158691406 185.69700622558594,-65.38600158691406 C185.69700622558594,-65.38600158691406 218.12899780273438,-128.15699768066406 164.7729949951172,-167.91200256347656 C111.41899871826172,-207.66700744628906 -21.44700050354004,-177.32899475097656 -68.5250015258789,-94.68000030517578 C-68.5250015258789,-94.68000030517578 -99.91000366210938,-146.98800659179688 -136.52699279785156,-136.5260009765625 C-173.14300537109375,-126.06500244140625 -204.5290069580078,-50.7400016784668 -201.38999938964844,-15.168999671936035 C-198.2519989013672,20.400999069213867 -182.5590057373047,65.38700103759766 -182.5590057373047,65.38700103759766 C-182.5590057373047,65.38700103759766 -196.15899658203125,41.32400131225586 -224.40699768066406,63.29399871826172 C-252.6529998779297,85.26300048828125 -202.906005859375,156.22300720214844 -216.03700256347656,136.5260009765625 C-218.12899780273438,133.38800048828125 -228.59100341796875,125.01799774169922 -262.0690002441406,144.89599609375 C-295.5469970703125,164.7729949951172 -313.3320007324219,180.4669952392578 -306.0090026855469,194.06700134277344 C-298.68499755859375,207.66799926757812 -245.3300018310547,182.55799865722656 -179.42100524902344,156.4040069580078 C-147.94700622558594,143.91400146484375 -52.7760009765625,99.69499969482422 36.48500061035156,55.53099822998047 C147.44200134277344,6.738999843597412 255.25900268554688,-41.0989990234375 273.5769958496094,-50.7400016784668 C313.3320007324219,-71.66300201416016 282.99200439453125,-71.66400146484375 252.6529998779297,-71.66400146484375z"></path></g><g opacity="1" transform="matrix(1,0,0,1,807.5079956054688,329.78399658203125)"><path fill="rgb(243,231,217)" fill-opacity="1" d=" M-99.91000366210938,77.94000244140625 C-95.7249984741211,77.94000244140625 -64.33999633789062,42.37099838256836 -53.87799835205078,39.233001708984375 C-43.41600036621094,36.09400177001953 -54.92499923706055,-5.752999782562256 -5.755000114440918,2.615999937057495 C-5.755000114440918,2.615999937057495 -12.029999732971191,-80.03299713134766 47.60200119018555,-94.68000030517578 C107.23500061035156,-109.3270034790039 98.86499786376953,-28.768999099731445 78.98699951171875,-8.892000198364258 C78.98699951171875,-8.892000198364258 93.63400268554688,-20.400999069213867 102.00299835205078,-15.170000076293945 C110.37300109863281,-9.939000129699707 113.51200103759766,1.5700000524520874 68.5260009765625,27.725000381469727 C23.540000915527344,53.87900161743164 -61.20100021362305,88.4020004272461 -87.3550033569336,98.86399841308594 C-113.51100158691406,109.32599639892578 -99.91000366210938,77.94000244140625 -99.91000366210938,77.94000244140625z"></path></g><g opacity="1" transform="matrix(1,0,0,1,251.06399536132812,504.5870056152344)"><path fill="rgb(243,231,217)" fill-opacity="1" d=" M-6.800000190734863,29.292999267578125 C-6.800000190734863,29.292999267578125 -58.0629997253418,56.49399948120117 -78.98699951171875,61.724998474121094 C-99.91000366210938,66.95500183105469 -52.832000732421875,24.062000274658203 -35.047000885009766,27.201000213623047 C-35.047000885009766,27.201000213623047 -45.50899887084961,14.64799976348877 -34.000999450683594,1.0470000505447388 C-22.493000030517578,-12.553000450134277 -10.984999656677246,7.322999954223633 -10.984999656677246,7.322999954223633 C-10.984999656677246,7.322999954223633 -15.170000076293945,-43.939998626708984 8.892000198364258,-55.448001861572266 C32.95500183105469,-66.95600128173828 48.64699935913086,-18.832000732421875 48.64699935913086,-18.832000732421875 C48.64699935913086,-18.832000732421875 99.91000366210938,-26.155000686645508 73.75599670410156,-13.60099983215332 C47.60100173950195,-1.0460000038146973 -6.800000190734863,29.292999267578125 -6.800000190734863,29.292999267578125z"></path></g></g><g transform="matrix(1,0,0,1,60,0)" opacity="1" style="display: block;"><g opacity="1" transform="matrix(1,0,0,1,499.0400085449219,994.8930053710938)"><path fill="rgb(51,168,108)" fill-opacity="1" d=" M-140.1739959716797,-32.106998443603516 C-140.1739959716797,-32.106998443603516 -256.2659912109375,-22.85300064086914 -307.52899169921875,-19.714000701904297 C-358.7919921875,-16.576000213623047 -395.9939880371094,-3.7679998874664307 -384.4580078125,3.986999988555908 C-372.9209899902344,11.741000175476074 -363.53399658203125,10.262999534606934 -346.7950134277344,13.401000022888184 C-330.0559997558594,16.538999557495117 -275.65399169921875,22.81800079345703 -275.65399169921875,22.81800079345703 C-275.65399169921875,22.81800079345703 -303.3949890136719,62.14099884033203 -245.44700622558594,64.71700286865234 C-96.4530029296875,71.33899688720703 -23.402999877929688,43.952999114990234 -23.402999877929688,43.952999114990234 C-23.402999877929688,43.952999114990234 24.829999923706055,59.20399856567383 92.90599822998047,48.70199966430664 C142.12600708007812,41.108001708984375 73.7699966430664,24.910999298095703 118.75599670410156,24.910999298095703 C163.74200439453125,24.910999298095703 218.1439971923828,18.632999420166016 218.1439971923828,18.632999420166016 C218.1439971923828,18.632999420166016 244.29800415039062,16.540000915527344 289.28399658203125,8.170999526977539 C334.2699890136719,-0.1979999989271164 220.23599243164062,-15.890999794006348 220.23599243164062,-15.890999794006348 C220.23599243164062,-15.890999794006348 395.9939880371094,-60.87799835205078 323.8080139160156,-66.10900115966797 C251.62100219726562,-71.33899688720703 55.98500061035156,-57.21500015258789 -119.25,-57.21500015258789 C-294.4859924316406,-57.21500015258789 -140.1739959716797,-32.106998443603516 -140.1739959716797,-32.106998443603516z"></path></g><g opacity="1" transform="matrix(1,0,0,1,525.9210205078125,983.4569702148438)"><path fill="rgb(40,132,82)" fill-opacity="1" d=" M-90.2239990234375,-41.38800048828125 C-90.2239990234375,-41.38800048828125 -103.46800231933594,-38.07699966430664 -139.88900756835938,-21.523000717163086 C-176.30999755859375,-4.9679999351501465 -103.46800231933594,-18.209999084472656 -88.56800079345703,-19.867000579833984 C-88.56800079345703,-19.867000579833984 -204.4530029296875,13.243000030517578 -214.38600158691406,33.10900115966797 C-224.31900024414062,52.9739990234375 -197.83099365234375,54.63199996948242 -154.78799438476562,48.00899887084961 C-111.74500274658203,41.387001037597656 32.79199981689453,19.78499984741211 50.492000579833984,1.6540000438690186 C63.736000061035156,-0.0010000000474974513 95.19100189208984,14.89900016784668 159.7550048828125,4.966000080108643 C224.31900024414062,-4.9670000076293945 224.31900024414062,-54.63199996948242 115.05699920654297,-52.97700119018555 C5.794000148773193,-51.321998596191406 -90.2239990234375,-41.38800048828125 -90.2239990234375,-41.38800048828125z"></path></g><g opacity="1" transform="matrix(1,0,0,1,792.2249755859375,985.8400268554688)"><path fill="rgb(51,168,108)" fill-opacity="1" d=" M-17.985000610351562,15.218999862670898 C-17.985000610351562,15.218999862670898 -23.518999099731445,3.4590001106262207 -15.218000411987305,0.6919999718666077 C-6.918000221252441,-2.075000047683716 -8.300000190734863,8.300999641418457 -8.300000190734863,8.300999641418457 C-8.300000190734863,8.300999641418457 -9.684000015258789,-9.684000015258789 0,-13.142999649047852 C9.6850004196167,-16.601999282836914 1.3839999437332153,-5.533999919891357 1.3839999437332153,-5.533999919891357 C1.3839999437332153,-5.533999919891357 16.60300064086914,-17.986000061035156 13.835000038146973,-10.376999855041504 C11.069000244140625,-2.7669999599456787 6.22599983215332,5.533999919891357 6.22599983215332,5.533999919891357 C6.22599983215332,5.533999919891357 23.520000457763672,-4.150000095367432 14.527999877929688,6.916999816894531 C5.534999847412109,17.986000061035156 -17.985000610351562,15.218999862670898 -17.985000610351562,15.218999862670898z"></path></g><g opacity="1" transform="matrix(1,0,0,1,405.7229919433594,1011.6290283203125)"><path fill="rgb(51,168,108)" fill-opacity="1" d=" M-16.305999755859375,19.8439998626709 C-16.305999755859375,19.8439998626709 -20.96500015258789,8.895000457763672 -17.238000869750977,-5.474999904632568 C-13.51099967956543,-19.844999313354492 -13.51099967956543,11.631999969482422 -13.51099967956543,11.631999969482422 C-13.51099967956543,11.631999969482422 -9.784000396728516,1.3669999837875366 -3.260999917984009,-4.10699987411499 C3.26200008392334,-9.581999778747559 -2.3289999961853027,7.526000022888184 -2.3289999961853027,7.526000022888184 C-2.3289999961853027,7.526000022888184 12.579999923706055,-10.949999809265137 10.715999603271484,-0.6850000023841858 C8.852999687194824,9.579000473022461 2.3299999237060547,14.369999885559082 2.3299999237060547,14.369999885559082 C2.3299999237060547,14.369999885559082 20.965999603271484,-1.3700000047683716 20.034000396728516,6.1570000648498535 C19.10300064086914,13.6850004196167 -6.98799991607666,19.8439998626709 -16.305999755859375,19.8439998626709z"></path></g><g opacity="1" transform="matrix(1,0,0,1,370.3139953613281,1023.9459838867188)"><path fill="rgb(51,168,108)" fill-opacity="1" d=" M1.3980000019073486,8.895999908447266 C1.3980000019073486,8.895999908447266 -14.442999839782715,-15.053999900817871 -3.260999917984009,-7.5269999504089355 C7.920000076293945,0 7.920000076293945,10.263999938964844 7.920000076293945,10.263999938964844 C7.920000076293945,10.263999938964844 5.125,-15.73900032043457 9.784000396728516,-7.5269999504089355 C14.442999839782715,0.6840000152587891 10.715999603271484,15.73900032043457 1.3980000019073486,8.895999908447266z"></path></g><g opacity="1" transform="matrix(1,0,0,1,544.2109985351562,1012.8170166015625)"><path fill="rgb(40,132,82)" fill-opacity="1" d=" M-8.246000289916992,-2.3570001125335693 C-8.246000289916992,-2.3570001125335693 -57.7239990234375,9.42300033569336 -22.382999420166016,10.60200023651123 C12.958999633789062,11.779999732971191 -1.1779999732971191,4.710999965667725 -1.1779999732971191,4.710999965667725 C-1.1779999732971191,4.710999965667725 57.7239990234375,-2.3570001125335693 38.875,-7.068999767303467 C20.025999069213867,-11.781000137329102 -8.246000289916992,-2.3570001125335693 -8.246000289916992,-2.3570001125335693z"></path></g><g opacity="1" transform="matrix(1,0,0,1,725.822021484375,988.4229736328125)"><path fill="rgb(40,132,82)" fill-opacity="1" d=" M-36.41999816894531,-2.069000005722046 C-46.354000091552734,1.2419999837875366 -25.972000122070312,14.017999649047852 -2.4820001125335693,12.416000366210938 C15.72700023651123,11.175000190734863 46.354000091552734,14.486000061035156 30.214000701904297,0 C14.071999549865723,-14.484999656677246 -26.48699951171875,-5.38100004196167 -36.41999816894531,-2.069000005722046z"></path></g><g opacity="1" transform="matrix(1,0,0,1,343.1960144042969,896.1279907226562)"><path fill="rgb(51,168,108)" fill-opacity="1" d=" M34.558998107910156,15.314000129699707 C34.558998107910156,15.314000129699707 17.589000701904297,-54.63100051879883 -0.6209999918937683,-51.31999969482422 C-18.832000732421875,-48.00899887084961 -33.72999954223633,-36.41999816894531 -10.553000450134277,-8.277000427246094 C-10.553000450134277,-8.277000427246094 -42.00899887084961,-11.588000297546387 -37.04199981689453,3.311000108718872 C-37.04199981689453,3.311000108718872 -32.07600021362305,18.209999084472656 -32.07600021362305,18.209999084472656 C-32.07600021362305,18.209999084472656 -46.9739990234375,7.449999809265137 -53.59600067138672,15.72700023651123 C-60.21799850463867,24.0049991607666 -48.630001068115234,32.28300094604492 -48.630001068115234,32.28300094604492 C-48.630001068115234,32.28300094604492 -102.43399810791016,23.177000045776367 -83.39600372314453,38.904998779296875 C-64.35800170898438,54.63100051879883 -65.18499755859375,43.042999267578125 9.312999725341797,46.354000091552734 C83.80999755859375,49.66600036621094 102.43399810791016,21.93600082397461 34.558998107910156,15.314000129699707z"></path></g><g opacity="1" transform="matrix(1,0,0,1,586.6630249023438,574.1290283203125)"><path fill="rgb(102,80,111)" fill-opacity="1" d=" M-230.42999267578125,369.82598876953125 C-230.42999267578125,369.82598876953125 -184.03399658203125,23.540000915527344 -177.84800720214844,-13.076000213623047 C-171.66200256347656,-49.69300079345703 -178.8800048828125,-54.92399978637695 -161.3520050048828,-69.56999969482422 C-143.8249969482422,-84.21700286865234 -144.85699462890625,-82.125 -138.67100524902344,-115.60299682617188 C-132.48500061035156,-149.0800018310547 -107.73999786376953,-254.7449951171875 -107.73999786376953,-254.7449951171875 C-107.73999786376953,-254.7449951171875 -115.98799896240234,-275.66900634765625 -115.98799896240234,-275.66900634765625 C-115.98799896240234,-275.66900634765625 -106.70999908447266,-321.70001220703125 -106.70999908447266,-330.07000732421875 C-106.70999908447266,-338.44000244140625 -101.55400085449219,-334.2550048828125 -97.43000030517578,-340.5320129394531 C-93.30500030517578,-346.8089904785156 -90.21399688720703,-349.947998046875 -71.65599822998047,-358.3179931640625 C-53.097999572753906,-366.68701171875 -0.5149999856948853,-375.0559997558594 14.949999809265137,-378.19500732421875 C30.415000915527344,-381.3330078125 37.63199996948242,-366.6860046386719 46.9109992980957,-364.593994140625 C56.191001892089844,-362.50201416015625 107.73999786376953,-300.77801513671875 111.86399841308594,-291.36199951171875 C115.98799896240234,-281.9460144042969 151.04299926757812,-74.8010025024414 156.197998046875,-53.87799835205078 C161.35299682617188,-32.95399856567383 196.40699768066406,187.7899932861328 199.5,199.2989959716797 C202.593994140625,210.80599975585938 215.9949951171875,227.54400634765625 215.9949951171875,227.54400634765625 C215.9949951171875,227.54400634765625 230.42999267578125,356.2239990234375 230.42999267578125,356.2239990234375 C230.42999267578125,356.2239990234375 143.8260040283203,381.3330078125 143.8260040283203,381.3330078125 C143.8260040283203,381.3330078125 -230.42999267578125,369.82598876953125 -230.42999267578125,369.82598876953125z"></path></g><g opacity="1" transform="matrix(1,0,0,1,539.3319702148438,574.1290283203125)"><path fill="rgb(255,172,255)" fill-opacity="1" d=" M-189.8820037841797,369.82598876953125 C-189.8820037841797,369.82598876953125 -142.8040008544922,23.540000915527344 -136.52699279785156,-13.076000213623047 C-130.25,-49.69300079345703 -137.572998046875,-54.92399978637695 -119.78800201416016,-69.56999969482422 C-102.00299835205078,-84.21700286865234 -103.04900360107422,-82.125 -96.77200317382812,-115.60299682617188 C-90.49500274658203,-149.0800018310547 -65.38600158691406,-254.7449951171875 -65.38600158691406,-254.7449951171875 C-65.38600158691406,-254.7449951171875 -73.75599670410156,-275.66900634765625 -73.75599670410156,-275.66900634765625 C-73.75599670410156,-275.66900634765625 -64.33999633789062,-321.70001220703125 -64.33999633789062,-330.07000732421875 C-64.33999633789062,-338.44000244140625 -59.11000061035156,-334.2550048828125 -54.92499923706055,-340.5320129394531 C-50.73899841308594,-346.8089904785156 -47.60200119018555,-349.947998046875 -28.770000457763672,-358.3179931640625 C-9.939000129699707,-366.68701171875 43.41699981689453,-375.0559997558594 59.10900115966797,-378.19500732421875 C74.802001953125,-381.3330078125 80.66600036621094,-345.23199462890625 85.50599670410156,-336.88800048828125 C94.4229965209961,-321.5159912109375 98.51599884033203,-299.1000061035156 102.88800048828125,-294.6719970703125 C110.12799835205078,-287.34100341796875 131.44500732421875,-43.8650016784668 131.44500732421875,-43.8650016784668 C131.44500732421875,-43.8650016784668 149.427001953125,-30.958999633789062 149.427001953125,-30.958999633789062 C152.76699829101562,-28.562000274658203 153.53900146484375,-23.915000915527344 151.15199279785156,-20.56800079345703 C151.15199279785156,-20.56800079345703 143.86099243164062,-10.340999603271484 143.86099243164062,-10.340999603271484 C143.86099243164062,-10.340999603271484 166.26800537109375,157.0749969482422 168.69400024414062,165.97000122070312 C171.83299255371094,177.47799682617188 177.38600158691406,293.85699462890625 177.38600158691406,293.85699462890625 C177.38600158691406,293.85699462890625 189.8820037841797,381.3330078125 189.8820037841797,381.3330078125 C189.8820037841797,381.3330078125 -189.8820037841797,369.82598876953125 -189.8820037841797,369.82598876953125z"></path></g><g opacity="1" transform="matrix(1,0,0,1,539.3319702148438,788.1820068359375)"><path fill="rgb(133,103,146)" fill-opacity="1" d=" M-189.8820037841797,155.77200317382812 C-189.8820037841797,155.77200317382812 189.8820037841797,167.27999877929688 189.8820037841797,167.27999877929688 C189.8820037841797,167.27999877929688 177.38600158691406,79.8030014038086 177.38600158691406,79.8030014038086 C177.38600158691406,79.8030014038086 174.13800048828125,-3.0759999752044678 170.99899291992188,-14.583999633789062 C170.99899291992188,-14.583999633789062 77.34100341796875,-30.340999603271484 77.34100341796875,-30.340999603271484 C77.34100341796875,-30.340999603271484 72.59400177001953,-14.913000106811523 72.59400177001953,-14.913000106811523 C72.59400177001953,-14.913000106811523 -144.38999938964844,-133.77999877929688 -144.38999938964844,-133.77999877929688 C-144.38999938964844,-133.77999877929688 -154.1280059814453,-105.1989974975586 -154.1280059814453,-105.1989974975586 C-154.1280059814453,-105.1989974975586 -189.8820037841797,155.77200317382812 -189.8820037841797,155.77200317382812z"></path></g><g opacity="1" transform="matrix(1,0,0,1,480.7799987792969,348.9119873046875)"><path fill="rgb(186,131,195)" fill-opacity="1" d=" M-6.988999843597412,-30.06599998474121 C-6.988999843597412,-30.06599998474121 11.472999572753906,30.06599998474121 11.472999572753906,30.06599998474121 C11.472999572753906,30.06599998474121 -11.472000122070312,-11.07699966430664 -11.472000122070312,-11.07699966430664 C-11.472000122070312,-11.07699966430664 -6.988999843597412,-30.06599998474121 -6.988999843597412,-30.06599998474121z"></path></g><g opacity="1" transform="matrix(1,0,0,1,836.0040283203125,933.5390014648438)"><path fill="rgb(40,132,82)" fill-opacity="1" d=" M-19.815000534057617,6.166999816894531 C-20.520000457763672,-6.7789998054504395 -19.232999801635742,-10.902000427246094 -11.0649995803833,-14.381999969482422 C-2.8980000019073486,-17.861000061035156 0.7639999985694885,-1.9700000286102295 0.7639999985694885,-1.9700000286102295 C0.7639999985694885,-1.9700000286102295 20.520000457763672,-13.99899959564209 12.211999893188477,1.9320000410079956 C3.9040000438690186,17.861000061035156 -8.90999984741211,6.184000015258789 -8.90999984741211,6.184000015258789 C-8.90999984741211,6.184000015258789 -19.427000045776367,13.288999557495117 -19.815000534057617,6.166999816894531z"></path></g><g opacity="1" transform="matrix(1,0,0,1,794.9710083007812,922.7620239257812)"><path fill="rgb(40,132,82)" fill-opacity="1" d=" M-15.758000373840332,19.719999313354492 C-21.138999938964844,16.128000259399414 -20.645000457763672,-25.908000946044922 -8.946000099182129,-12.53600025177002 C2.755000114440918,0.8349999785423279 -5.6020002365112305,10.864999771118164 -5.6020002365112305,10.864999771118164 C-5.6020002365112305,10.864999771118164 21.139999389648438,-7.521999835968018 12.784000396728516,9.192999839782715 C4.427000045776367,25.906999588012695 -10.378000259399414,23.312000274658203 -15.758000373840332,19.719999313354492z"></path></g><g opacity="1" transform="matrix(1,0,0,1,748.0339965820312,838.5999755859375)"><path fill="rgb(40,132,82)" fill-opacity="1" d=" M-8.277000427246094,14.071000099182129 C-15.451000213623047,10.760000228881836 -11.038000106811523,-17.381999969482422 2.2060000896453857,-0.8270000219345093 C15.451000213623047,15.72700023651123 -1.1030000448226929,17.381999969482422 -8.277000427246094,14.071000099182129z"></path></g><g opacity="1" transform="matrix(1,0,0,1,749.4140014648438,879.9879760742188)"><path fill="rgb(40,132,82)" fill-opacity="1" d=" M-15.72700023651123,-5.794000148773193 C-15.72700023651123,-5.794000148773193 15.72700023651123,-28.97100067138672 15.72700023651123,-5.794000148773193 C15.72700023651123,17.382999420166016 4.138999938964844,5.794000148773193 4.138999938964844,5.794000148773193 C4.138999938964844,5.794000148773193 -5.794000148773193,28.972000122070312 -10.760000228881836,17.382999420166016 C-15.72700023651123,5.795000076293945 -15.72700023651123,-5.794000148773193 -15.72700023651123,-5.794000148773193z"></path></g><g opacity="1" transform="matrix(1,0,0,1,746.0780029296875,815.7639770507812)"><path fill="rgb(40,132,82)" fill-opacity="1" d=" M-2.7009999752044678,-6.752999782562256 C-2.7009999752044678,-6.752999782562256 -16.207000732421875,17.558000564575195 0,12.154999732971191 C16.20599937438965,6.752999782562256 13.505000114440918,-17.558000564575195 -2.7009999752044678,-6.752999782562256z"></path></g><g opacity="1" transform="matrix(1,0,0,1,675.7440185546875,910.614013671875)"><path fill="rgb(74,51,84)" fill-opacity="1" d=" M-3.311000108718872,64.56500244140625 C-3.311000108718872,64.56500244140625 -84.43000030517578,54.63199996948242 -84.43000030517578,54.63199996948242 C-84.43000030517578,54.63199996948242 -84.43000030517578,4.966000080108643 -71.18599700927734,-16.55500030517578 C-57.94200134277344,-38.07699966430664 -38.07600021362305,-64.56500244140625 0.0010000000474974513,-64.56500244140625 C38.07699966430664,-64.56500244140625 71.18699645996094,-39.73099899291992 77.80899810791016,-24.83099937438965 C84.43099975585938,-9.932000160217285 76.1520004272461,29.798999786376953 62.909000396728516,41.38800048828125 C49.665000915527344,52.97600173950195 -3.311000108718872,64.56500244140625 -3.311000108718872,64.56500244140625z"></path></g><g opacity="1" transform="matrix(1,0,0,1,740.0230102539062,967.1259765625)"><path fill="rgb(102,80,111)" fill-opacity="1" d=" M-42.9739990234375,15.692999839782715 C-42.9739990234375,15.692999839782715 -42.417999267578125,-20.724000930786133 -12.54699993133545,-25.233999252319336 C17.323999404907227,-29.7450008392334 33.5989990234375,-11.284000396728516 38.38800048828125,0.3799999952316284 C43.17599868774414,12.043000221252441 37.180999755859375,25.195999145507812 37.180999755859375,25.195999145507812 C37.180999755859375,25.195999145507812 9.793000221252441,29.7450008392334 -16.69300079345703,29.34000015258789 C-43.176998138427734,28.934999465942383 -42.9739990234375,15.692999839782715 -42.9739990234375,15.692999839782715z"></path></g><g opacity="1" transform="matrix(1,0,0,1,746.6290283203125,927.6849975585938)"><path fill="rgb(51,168,108)" fill-opacity="1" d=" M-9.869999885559082,17.57200050354004 C-13.494000434875488,15.48799991607666 -18.461000442504883,10.520999908447266 -19.56399917602539,0.035999998450279236 C-20.957000732421875,-13.196000099182129 -10.734999656677246,-2.1710000038146973 -10.734999656677246,-2.1710000038146973 C-10.734999656677246,-2.1710000038146973 -14.045999526977539,-21.486000061035156 -5.76800012588501,-15.967000007629395 C2.509000062942505,-10.449000358581543 3.611999988555908,1.1399999856948853 3.611999988555908,1.1399999856948853 C3.611999988555908,1.1399999856948853 20.957000732421875,-10.517999649047852 14.484999656677246,5.484000205993652 C8.012999534606934,21.486000061035156 -6.245999813079834,19.656999588012695 -9.869999885559082,17.57200050354004z"></path></g><g opacity="1" transform="matrix(1,0,0,1,712.1649780273438,503.3609924316406)"><path fill="rgb(40,132,82)" fill-opacity="1" d=" M-8.277000427246094,6.622000217437744 C-8.277000427246094,6.622000217437744 -1.656000018119812,-18.211000442504883 3.309999942779541,-3.311000108718872 C8.277000427246094,11.588000297546387 -4.966000080108643,18.209999084472656 -8.277000427246094,6.622000217437744z"></path></g><g opacity="1" transform="matrix(1,0,0,1,727.8920288085938,525.7109985351562)"><path fill="rgb(40,132,82)" fill-opacity="1" d=" M-4.138000011444092,7.449999809265137 C-4.138000011444092,7.449999809265137 17.381999969482422,-9.104999542236328 5.794000148773193,-9.104999542236328 C-5.795000076293945,-9.104999542236328 -17.381999969482422,9.105999946594238 -4.138000011444092,7.449999809265137z"></path></g><g opacity="1" transform="matrix(1,0,0,1,723.7529907226562,543.093994140625)"><path fill="rgb(40,132,82)" fill-opacity="1" d=" M1.656000018119812,6.622000217437744 C1.656000018119812,6.622000217437744 8.277999877929688,0 3.311000108718872,-3.311000108718872 C-1.656000018119812,-6.622000217437744 -8.277999877929688,-3.311000108718872 1.656000018119812,6.622000217437744z"></path></g><g opacity="1" transform="matrix(1,0,0,1,730.375,613.8660278320312)"><path fill="rgb(40,132,82)" fill-opacity="1" d=" M7.449999809265137,-2.8980000019073486 C-0.8270000219345093,-8.692000389099121 -15.72700023651123,-7.863999843597412 -7.448999881744385,0.414000004529953 C0.828000009059906,8.690999984741211 15.72700023651123,2.8970000743865967 7.449999809265137,-2.8980000019073486z"></path></g><g opacity="1" transform="matrix(1,0,0,1,746.10302734375,615.1079711914062)"><path fill="rgb(40,132,82)" fill-opacity="1" d=" M-7.448999881744385,5.795000076293945 C-7.448999881744385,5.795000076293945 -0.828000009059906,-12.416000366210938 4.138000011444092,-0.8270000219345093 C9.104999542236328,10.76200008392334 -9.104999542236328,12.416999816894531 -7.448999881744385,5.795000076293945z"></path></g><g opacity="1" transform="matrix(1,0,0,1,610.5809936523438,819.927978515625)"><path fill="rgb(133,103,146)" fill-opacity="1" d=" M47.82500076293945,-130.0050048828125 C47.82500076293945,-130.0050048828125 6.359000205993652,-104.20700073242188 6.359000205993652,-104.20700073242188 C6.359000205993652,-104.20700073242188 0.8550000190734863,-95.88099670410156 0.8550000190734863,-95.88099670410156 C0.8550000190734863,-95.88099670410156 -13.0600004196167,20.742000579833984 -14.300999641418457,26.950000762939453 C-15.543000221252441,33.15800094604492 -45.34199905395508,77.85600280761719 -45.34199905395508,77.85600280761719 C-45.34199905395508,77.85600280761719 -47.82500076293945,125.03800201416016 -47.82500076293945,125.03800201416016 C-47.82500076293945,125.03800201416016 -41.61600112915039,130.0050048828125 -41.61600112915039,130.0050048828125 C-41.61600112915039,130.0050048828125 -40.375,84.06400299072266 -40.375,84.06400299072266 C-40.375,84.06400299072266 -5.610000133514404,20.742000579833984 -5.610000133514404,20.742000579833984 C-5.610000133514404,20.742000579833984 -0.020999999716877937,-35.959999084472656 2.4630000591278076,-60.37799835205078 C4.946000099182129,-84.7969970703125 9.847000122070312,-97.56600189208984 9.847000122070312,-97.56600189208984 C9.847000122070312,-97.56600189208984 47.82500076293945,-130.0050048828125 47.82500076293945,-130.0050048828125z"></path></g><g opacity="1" transform="matrix(1,0,0,1,540.614013671875,578.47998046875)"><path stroke-linecap="butt" stroke-linejoin="miter" fill-opacity="0" stroke-miterlimit="10" stroke="rgb(133,103,146)" stroke-opacity="1" stroke-width="2" d=" M0.2529999911785126,37.409000396728516 C0.2529999911785126,37.409000396728516 -57.321998596191406,93.3280029296875 -57.321998596191406,93.3280029296875 C-57.321998596191406,93.3280029296875 -1.4490000009536743,-105.33100128173828 -1.4490000009536743,-105.33100128173828 C-1.4490000009536743,-105.33100128173828 57.32099914550781,105.33100128173828 57.32099914550781,105.33100128173828 C57.32099914550781,105.33100128173828 0.2529999911785126,37.409000396728516 0.2529999911785126,37.409000396728516z"></path></g><g opacity="1" transform="matrix(1,0,0,1,637.2529907226562,926.3410034179688)"><path fill="rgb(102,80,111)" fill-opacity="1" d=" M39.731998443603516,43.45600128173828 C39.731998443603516,43.45600128173828 48.42300033569336,-0.414000004529953 47.18199920654297,-14.89900016784668 C45.939998626708984,-29.38599967956543 32.696998596191406,-41.38800048828125 24.41900062561035,-45.5260009765625 C5.380000114440918,-48.8380012512207 -27.729000091552734,-42.62900161743164 -35.17900085449219,-28.972000122070312 C-42.62799835205078,-15.314000129699707 -48.42300033569336,19.45199966430664 -45.939998626708984,38.90399932861328 C-45.939998626708984,38.90399932861328 35.17900085449219,48.83700180053711 35.17900085449219,48.83700180053711 C35.17900085449219,48.83700180053711 39.731998443603516,43.45600128173828 39.731998443603516,43.45600128173828z"></path></g><g opacity="1" transform="matrix(1,0,0,1,670.7769775390625,915.1669921875)"><path fill="rgb(102,80,111)" fill-opacity="1" d=" M-2.069000005722046,-38.07600021362305 C1.2430000305175781,-35.59400177001953 12.416000366210938,-21.934999465942383 17.382999420166016,-15.312999725341797 C22.350000381469727,-8.690999984741211 22.349000930786133,-0.414000004529953 22.349000930786133,14.899999618530273 C22.349000930786133,30.21299934387207 19.867000579833984,44.284000396728516 19.867000579833984,44.284000396728516 C19.867000579833984,44.284000396728516 24.0049991607666,40.145999908447266 24.83300018310547,36.834999084472656 C25.65999984741211,33.52399826049805 26.488000869750977,4.552999973297119 27.315000534057617,-2.8970000743865967 C28.14299964904785,-10.347000122070312 27.31599998474121,-10.347000122070312 19.867000579833984,-21.10700035095215 C12.416000366210938,-31.868000030517578 2.4839999675750732,-39.31800079345703 -2.4830000400543213,-41.801998138427734 C-7.448999881744385,-44.284000396728516 -28.14299964904785,-40.14500045776367 -28.14299964904785,-40.14500045776367 C-28.14299964904785,-40.14500045776367 -5.380000114440918,-40.558998107910156 -2.069000005722046,-38.07600021362305z"></path></g><g opacity="1" transform="matrix(1,0,0,1,671.8809814453125,939.3090209960938)"><path fill="rgb(74,51,84)" fill-opacity="1" d=" M12.140000343322754,24.280000686645508 C12.140000343322754,24.280000686645508 -0.5519999861717224,11.036999702453613 -0.5519999861717224,11.036999702453613 C-0.5519999861717224,11.036999702453613 -1.1039999723434448,-2.2070000171661377 -1.1039999723434448,-2.2070000171661377 C-1.1039999723434448,-2.2070000171661377 -12.140000343322754,-28.695999145507812 -12.140000343322754,-28.695999145507812 C-12.140000343322754,-28.695999145507812 -4.414999961853027,-0.5519999861717224 -4.414999961853027,-0.5519999861717224 C-4.414999961853027,-0.5519999861717224 -3.86299991607666,12.692999839782715 -3.86299991607666,12.692999839782715 C-3.86299991607666,12.692999839782715 9.932999610900879,28.69499969482422 9.932999610900879,28.69499969482422 C9.932999610900879,28.69499969482422 12.140000343322754,24.280000686645508 12.140000343322754,24.280000686645508z"></path></g><g opacity="1" transform="matrix(1,0,0,1,709.6820068359375,884.9539794921875)"><path fill="rgb(40,132,82)" fill-opacity="1" d=" M-9.932000160217285,-4.9670000076293945 C-9.932000160217285,-4.9670000076293945 14.89900016784668,-3.312000036239624 2.4830000400543213,0.828000009059906 C-9.932999610900879,4.9670000076293945 -14.89900016784668,0 -9.932000160217285,-4.9670000076293945z"></path></g><g opacity="1" transform="matrix(1,0,0,1,695.6099853515625,872.5369873046875)"><path fill="rgb(40,132,82)" fill-opacity="1" d=" M-4.552000045776367,2.069999933242798 C-4.552000045776367,2.069999933242798 5.380000114440918,-9.519000053405762 6.208000183105469,-0.4129999876022339 C7.034999847412109,8.692000389099121 -7.034999847412109,9.519000053405762 -4.552000045776367,2.069999933242798z"></path></g><g opacity="1" transform="matrix(1,0,0,1,691.885009765625,860.7420043945312)"><path fill="rgb(40,132,82)" fill-opacity="1" d=" M-9.104000091552734,-15.107000350952148 C-9.104000091552734,-15.107000350952148 -28.55699920654297,-16.76099967956543 -37.249000549316406,-12.623000144958496 C-45.939998626708984,-8.484000205993652 -46.768001556396484,-8.484000205993652 -46.768001556396484,-8.484000205993652 C-46.768001556396484,-8.484000205993652 -55.87300109863281,-3.5169999599456787 -50.492000579833984,-2.690000057220459 C-50.492000579833984,-2.690000057220459 -51.73500061035156,6.829999923706055 -40.9739990234375,5.5879998207092285 C-30.21299934387207,4.3460001945495605 -20.280000686645508,-1.8619999885559082 -20.280000686645508,-1.8619999885559082 C-20.280000686645508,-1.8619999885559082 -31.041000366210938,9.312999725341797 -14.899999618530273,7.24399995803833 C1.2419999837875366,5.173999786376953 4.138000011444092,2.2760000228881836 4.138000011444092,2.2760000228881836 C4.138000011444092,2.2760000228881836 11.588000297546387,12.210000038146973 24.83300018310547,13.038000106811523 C38.07699966430664,13.866000175476074 42.21500015258789,8.069999694824219 42.21500015258789,8.069999694824219 C42.21500015258789,8.069999694824219 55.87300109863281,16.761999130249023 51.73400115966797,11.795999526977539 C47.595001220703125,6.829999923706055 13.659000396728516,-14.692999839782715 -9.104000091552734,-15.107000350952148z"></path></g><g opacity="1" transform="matrix(1,0,0,1,721.5679931640625,975.7310180664062)"><path fill="rgb(74,51,84)" fill-opacity="1" d=" M-26.632999420166016,-2.8440001010894775 C-26.632999420166016,-2.8440001010894775 -22.881000518798828,-15.352999687194824 -10.13599967956543,-18.006000518798828 C2.609999895095825,-20.659000396728516 16.159000396728516,-15.5 18.725000381469727,-10.423999786376953 C30.905000686645508,13.670999526977539 22.052000045776367,18.485000610351562 22.052000045776367,18.485000610351562 C22.052000045776367,18.485000610351562 11.723999977111816,19.902000427246094 -2.0190000534057617,20.2810001373291 C-15.76200008392334,20.65999984741211 -30.90399932861328,19.142000198364258 -26.632999420166016,-2.8440001010894775z"></path></g><g opacity="1" transform="matrix(1,0,0,1,719.3939819335938,979.218017578125)"><path fill="rgb(102,80,111)" fill-opacity="1" d=" M-25.459999084472656,-4.263000011444092 C-25.459999084472656,-4.263000011444092 -21.84600067138672,-16.451000213623047 -9.723999977111816,-19.03499984741211 C2.3989999294281006,-21.621000289916992 12.706000328063965,-21.167999267578125 18.84600067138672,-13.559000015258789 C24.983999252319336,-5.948999881744385 29.606000900268555,7.550000190734863 22.56999969482422,14.585000038146973 C15.534000396728516,21.621000289916992 10.901000022888184,17.895999908447266 -2.1589999198913574,18.264999389648438 C-15.220999717712402,18.634000778198242 -29.606000900268555,17.158000946044922 -25.459999084472656,-4.263000011444092z"></path></g><g opacity="1" transform="matrix(1,0,0,1,757.1389770507812,954.6229858398438)"><path fill="rgb(74,51,84)" fill-opacity="1" d=" M-2.759000062942505,-2.069000005722046 C-5.242000102996826,-0.6890000104904175 -3.5859999656677246,3.450000047683716 0.828000009059906,0.6899999976158142 C5.243000030517578,-2.069000005722046 -0.2759999930858612,-3.4489998817443848 -2.759000062942505,-2.069000005722046z"></path></g><g opacity="1" transform="matrix(1,0,0,1,752.8629760742188,949.3800048828125)"><path fill="rgb(74,51,84)" fill-opacity="1" d=" M-3.1740000247955322,-0.414000004529953 C-3.1740000247955322,-0.414000004529953 -0.6909999847412109,3.447999954223633 1.2410000562667847,0.1379999965429306 C3.1730000972747803,-3.1740000247955322 0.4129999876022339,-3.4489998817443848 -3.1740000247955322,-0.414000004529953z"></path></g><g opacity="1" transform="matrix(1,0,0,1,748.3099975585938,953.52001953125)"><path fill="rgb(74,51,84)" fill-opacity="1" d=" M1.9320000410079956,1.7929999828338623 C1.9320000410079956,1.7929999828338623 4.414999961853027,-3.1730000972747803 0,-0.9660000205039978 C-4.414000034332275,1.2410000562667847 -3.309999942779541,3.1730000972747803 1.9320000410079956,1.7929999828338623z"></path></g><g opacity="1" transform="matrix(1,0,0,1,728.2730102539062,938.2570190429688)"><path fill="rgb(40,132,82)" fill-opacity="1" d=" M7.197999954223633,5.460999965667725 C7.927000045776367,4.5980000495910645 10.734999656677246,-7.168000221252441 6.188000202178955,-6.663000106811523 C1.6410000324249268,-6.1570000648498535 2.6519999504089355,-1.3580000400543213 2.6519999504089355,-1.3580000400543213 C2.6519999504089355,-1.3580000400543213 2.2100000381469727,-9.630999565124512 -0.12600000202655792,-9.946000099182129 C-2.4630000591278076,-10.26200008392334 -2.1480000019073486,-6.409999847412109 -2.1480000019073486,-6.409999847412109 C-2.1480000019073486,-6.409999847412109 -5.177999973297119,-10.197999954223633 -7.198999881744385,-10.197999954223633 C-9.220000267028809,-10.197999954223633 -3.6630001068115234,2.430999994277954 -3.6630001068115234,2.430999994277954 C-3.6630001068115234,2.430999994277954 -10.736000061035156,0.6620000004768372 -9.220000267028809,3.188999891281128 C-7.703999996185303,5.714000225067139 3.1570000648498535,10.26099967956543 7.197999954223633,5.460999965667725z"></path></g><g opacity="1" transform="matrix(1,0,0,1,589.8779907226562,309.1260070800781)"><path fill="rgb(186,131,195)" fill-opacity="1" d=" M15.529000282287598,-79.59300231933594 C15.529000282287598,-79.59300231933594 35.040000915527344,-16.965999603271484 35.040000915527344,-16.965999603271484 C35.040000915527344,-16.965999603271484 16.97599983215332,65.3759994506836 16.97599983215332,65.3759994506836 C16.97599983215332,65.3759994506836 -40.779998779296875,74.21199798583984 -40.779998779296875,74.21199798583984 C-40.779998779296875,74.21199798583984 -42.02199935913086,79.59300231933594 -42.02199935913086,79.59300231933594 C-42.02199935913086,79.59300231933594 19.645999908447266,73.38500213623047 19.645999908447266,73.38500213623047 C19.645999908447266,73.38500213623047 42.02199935913086,-14.501999855041504 42.02199935913086,-14.501999855041504 C42.02199935913086,-14.501999855041504 15.529000282287598,-79.59300231933594 15.529000282287598,-79.59300231933594z"></path></g><g opacity="1" transform="matrix(1,0,0,1,539.2030029296875,368.6300048828125)"><path fill="rgb(186,131,195)" fill-opacity="1" d=" M14.109000205993652,19.64299964904785 C14.109000205993652,19.64299964904785 -14.109999656677246,-19.64299964904785 -14.109999656677246,-19.64299964904785 C-14.109999656677246,-19.64299964904785 -9.142999649047852,-3.0889999866485596 -9.142999649047852,-3.0889999866485596 C-9.142999649047852,-3.0889999866485596 8.239999771118164,19.260000228881836 8.239999771118164,19.260000228881836 C8.239999771118164,19.260000228881836 14.109000205993652,19.64299964904785 14.109000205993652,19.64299964904785z"></path></g><g opacity="1" transform="matrix(1,0,0,1,620.4910278320312,224.20399475097656)"><path fill="rgb(51,168,108)" fill-opacity="1" d=" M-22.969999313354492,0.6200000047683716 C-22.969999313354492,0.6200000047683716 -15.520000457763672,-22.97100067138672 -9.312000274658203,-14.279000282287598 C-3.1040000915527344,-5.5879998207092285 -11.795000076293945,-4.34499979019165 -11.795000076293945,-4.34499979019165 C-11.795000076293945,-4.34499979019165 3.1040000915527344,-15.520999908447266 8.071000099182129,-3.1050000190734863 C13.038000106811523,9.310999870300293 -1.8630000352859497,5.586999893188477 -1.8630000352859497,5.586999893188477 C-1.8630000352859497,5.586999893188477 22.969999313354492,15.519000053405762 8.071000099182129,19.2450008392334 C-6.828000068664551,22.969999313354492 -22.969999313354492,0.6200000047683716 -22.969999313354492,0.6200000047683716z"></path></g><g opacity="1" transform="matrix(1,0,0,1,578.89697265625,217.78900146484375)"><path fill="rgb(51,168,108)" fill-opacity="1" d=" M4.690999984741211,9.104999542236328 C-0.2759999930858612,9.104999542236328 -11.173999786376953,-9.104999542236328 0.0010000000474974513,-4.138999938964844 C11.175000190734863,0.828000009059906 9.657999992370605,9.104999542236328 4.690999984741211,9.104999542236328z"></path></g><g opacity="1" transform="matrix(1,0,0,1,573.7930297851562,226.0659942626953)"><path fill="rgb(51,168,108)" fill-opacity="1" d=" M-4.828000068664551,2.4830000400543213 C-5.104000091552734,-3.5869998931884766 0.13699999451637268,-11.175000190734863 2.619999885559082,0 C5.104000091552734,11.173999786376953 -4.552999973297119,8.553000450134277 -4.828000068664551,2.4830000400543213z"></path></g><g opacity="1" transform="matrix(1,0,0,1,586.3480224609375,235.99899291992188)"><path fill="rgb(51,168,108)" fill-opacity="1" d=" M2.4830000400543213,8.690999984741211 C2.4830000400543213,8.690999984741211 12.416999816894531,-16.142000198364258 0,-3.7260000705718994 C-12.416000366210938,8.690999984741211 -4.966000080108643,16.141000747680664 2.4830000400543213,8.690999984741211z"></path></g><g opacity="1" transform="matrix(1,0,0,1,599.52197265625,196.95700073242188)"><path fill="rgb(51,168,108)" fill-opacity="1" d=" M-13.175000190734863,15.451000213623047 C-13.175000190734863,15.451000213623047 -29.31599998474121,-4.414999961853027 -21.864999771118164,-8.140000343322754 C-14.416000366210938,-11.864999771118164 -9.449000358581543,0.5519999861717224 -9.449000358581543,0.5519999861717224 C-9.449000358581543,0.5519999861717224 -6.966000080108643,-23.038999557495117 1.725000023841858,-16.83099937438965 C10.416000366210938,-10.623000144958496 3.931999921798706,-6.485000133514404 3.931999921798706,-6.485000133514404 C3.931999921798706,-6.485000133514404 14.968999862670898,-13.657999992370605 19.384000778198242,-8.140000343322754 C23.798999786376953,-2.621999979019165 18.832000732421875,-0.9660000205039978 18.832000732421875,-0.9660000205039978 C18.832000732421875,-0.9660000205039978 29.31599998474121,4 18.832000732421875,10.071000099182129 C8.345999717712402,16.141000747680664 -8.760000228881836,23.038999557495117 -13.175000190734863,15.451000213623047z"></path></g><g opacity="1" transform="matrix(1,0,0,1,693.9550170898438,840.2559814453125)"><path fill="rgb(40,132,82)" fill-opacity="1" d=" M-39.31800079345703,7.86299991607666 C-37.249000549316406,1.6549999713897705 -26.488000869750977,-12.416000366210938 -19.865999221801758,-7.449999809265137 C-19.865999221801758,-7.449999809265137 -13.244000434875488,-2.4839999675750732 -13.244000434875488,-2.4839999675750732 C-13.244000434875488,-2.4839999675750732 6.620999813079834,-19.038000106811523 8.277999877929688,-9.105999946594238 C8.277999877929688,-9.105999946594238 9.932999610900879,0.8270000219345093 9.932999610900879,0.8270000219345093 C9.932999610900879,0.8270000219345093 41.387001037597656,2.4830000400543213 28.14299964904785,10.760000228881836 C14.89900016784668,19.038000106811523 -41.387001037597656,14.071000099182129 -39.31800079345703,7.86299991607666z"></path></g><g opacity="1" transform="matrix(1,0,0,1,122.38400268554688,954.1740112304688)"><path fill="rgb(51,168,108)" fill-opacity="1" d=" M-4.631999969482422,41.689998626708984 C-4.631999969482422,41.689998626708984 -26.249000549316406,-4.631999969482422 -32.42499923706055,-35.513999938964844 C-38.60200119018555,-66.39600372314453 6.177000045776367,40.145999908447266 6.177000045776367,40.145999908447266 C6.177000045776367,40.145999908447266 -4.631999969482422,-12.352999687194824 3.0880000591278076,-24.70599937438965 C10.809000015258789,-37.05799865722656 12.352999687194824,6.176000118255615 12.352999687194824,6.176000118255615 C12.352999687194824,6.176000118255615 27.79400062561035,-30.881999969482422 29.33799934387207,-18.530000686645508 C30.881999969482422,-6.177000045776367 16.985000610351562,30.881000518798828 16.985000610351562,30.881000518798828 C16.985000610351562,30.881000518798828 38.60200119018555,-7.7210001945495605 37.05799865722656,9.263999938964844 C35.513999938964844,26.249000549316406 1.5440000295639038,66.3949966430664 -4.631999969482422,41.689998626708984z"></path></g><g opacity="1" transform="matrix(1,0,0,1,193.9669952392578,943.6649780273438)"><path fill="rgb(51,168,108)" fill-opacity="1" d=" M-33.198001861572266,37.83000183105469 C-33.198001861572266,37.83000183105469 -22.388999938964844,-27.02199935913086 -16.21299934387207,-6.947999954223633 C-10.036999702453613,13.125 -14.668999671936035,11.581000328063965 -14.668999671936035,11.581000328063965 C-14.668999671936035,11.581000328063965 10.03600025177002,-50.18299865722656 8.491999626159668,-27.02199935913086 C6.947999954223633,-3.859999895095825 -3.8610000610351562,20.844999313354492 -3.8610000610351562,20.844999313354492 C-3.8610000610351562,20.844999313354492 33.198001861572266,-5.4039998054504395 19.301000595092773,13.125 C5.4039998054504395,31.652999877929688 -22.388999938964844,50.18299865722656 -33.198001861572266,37.83000183105469z"></path></g><g opacity="1" transform="matrix(1,0,0,1,453.94500732421875,513.6160278320312)"><path fill="rgb(186,131,195)" fill-opacity="1" d=" M-18.395999908447266,-24.395999908447266 C-18.395999908447266,-24.395999908447266 16.15399932861328,-3.561000108718872 16.15399932861328,-3.561000108718872 C16.15399932861328,-3.561000108718872 30,24.395999908447266 30,24.395999908447266 C30,24.395999908447266 11.01099967956543,-0.527999997138977 11.01099967956543,-0.527999997138977 C11.01099967956543,-0.527999997138977 -30,-12.263999938964844 -30,-12.263999938964844 C-30,-12.263999938964844 -18.395999908447266,-24.395999908447266 -18.395999908447266,-24.395999908447266z"></path></g><g opacity="1" transform="matrix(1,0,0,1,642.7589721679688,481.1650085449219)"><path fill="rgb(186,131,195)" fill-opacity="1" d=" M6.1529998779296875,-7.243000030517578 C6.1529998779296875,-7.243000030517578 -15.21399974822998,9.543999671936035 0,0 C15.21399974822998,-9.545000076293945 6.1529998779296875,-7.243000030517578 6.1529998779296875,-7.243000030517578z"></path></g><g opacity="1" transform="matrix(1,0,0,1,631.3729858398438,504.7799987792969)"><path fill="rgb(186,131,195)" fill-opacity="1" d=" M2.9010000228881836,-7.120999813079834 C2.9010000228881836,-7.120999813079834 -0.7910000085830688,1.8459999561309814 -1.8459999561309814,4.482999801635742 C-2.9010000228881836,7.120999813079834 2.9010000228881836,0.2639999985694885 2.9010000228881836,-7.120999813079834z"></path></g><g opacity="1" transform="matrix(1,0,0,1,645.0880126953125,518.6270141601562)"><path fill="rgb(186,131,195)" fill-opacity="1" d=" M-7.9120001792907715,3.1640000343322754 C-7.9120001792907715,3.1640000343322754 -3.691999912261963,8.439000129699707 -2.109999895095825,1.5820000171661377 C-0.5270000100135803,-5.275000095367432 7.9120001792907715,-8.4399995803833 -7.9120001792907715,3.1640000343322754z"></path></g><g opacity="1" transform="matrix(1,0,0,1,503.3290100097656,281.2640075683594)"><path fill="rgb(186,131,195)" fill-opacity="1" d=" M-5.538000106811523,-9.098999977111816 C-5.538000106811523,-9.098999977111816 0.7919999957084656,-5.934000015258789 5.539000034332275,9.098999977111816 C5.539000034332275,9.098999977111816 -5.538000106811523,-9.098999977111816 -5.538000106811523,-9.098999977111816z"></path></g><g opacity="1" transform="matrix(1,0,0,1,519.1539916992188,233.39599609375)"><path fill="rgb(186,131,195)" fill-opacity="1" d=" M-7.119999885559082,1.5820000171661377 C-7.119999885559082,1.5820000171661377 -4.748000144958496,-8.704000473022461 7.119999885559082,8.70300006866455 C7.119999885559082,8.70300006866455 -7.119999885559082,1.5820000171661377 -7.119999885559082,1.5820000171661377z"></path></g><g opacity="1" transform="matrix(1,0,0,1,558.7139892578125,344.95599365234375)"><path fill="rgb(186,131,195)" fill-opacity="1" d=" M-7.119999885559082,-9.494999885559082 C-7.119999885559082,-9.494999885559082 -5.538000106811523,1.5829999446868896 0.7919999957084656,5.539000034332275 C7.120999813079834,9.494999885559082 -7.119999885559082,-9.494999885559082 -7.119999885559082,-9.494999885559082z"></path></g><g opacity="1" transform="matrix(1,0,0,1,488.0979919433594,423.0880126953125)"><path fill="rgb(186,131,195)" fill-opacity="1" d=" M-2.571000099182129,-4.1539998054504395 C-5.341000080108643,4.945000171661377 -0.5920000076293945,16.812999725341797 -0.5920000076293945,16.812999725341797 C-0.5920000076293945,16.812999725341797 5.341000080108643,-16.812999725341797 5.341000080108643,-16.812999725341797 C5.341000080108643,-16.812999725341797 0.19900000095367432,-13.253000259399414 -2.571000099182129,-4.1539998054504395z"></path></g><g opacity="1" transform="matrix(1,0,0,1,590.3629760742188,426.45098876953125)"><path fill="rgb(186,131,195)" fill-opacity="1" d=" M-6.328999996185303,19.780000686645508 C-6.328999996185303,19.780000686645508 9.494999885559082,-19.780000686645508 9.494999885559082,-19.780000686645508 C9.494999885559082,-19.780000686645508 -9.494000434875488,11.868000030517578 -6.328999996185303,19.780000686645508z"></path></g><g opacity="1" transform="matrix(1,0,0,1,655.2420043945312,776.1649780273438)"><path fill="rgb(102,80,111)" fill-opacity="1" d=" M-6.328999996185303,-11.868000030517578 C-6.328999996185303,-11.868000030517578 0,-3.9560000896453857 3.1640000343322754,3.9560000896453857 C6.328999996185303,11.868000030517578 -6.328999996185303,-11.868000030517578 -6.328999996185303,-11.868000030517578z"></path></g><g opacity="1" transform="matrix(1,0,0,1,666.3189697265625,756.3839721679688)"><path fill="rgb(102,80,111)" fill-opacity="1" d=" M-9.494999885559082,-6.329999923706055 C-9.494999885559082,-6.329999923706055 -0.0010000000474974513,-6.329999923706055 4.747000217437744,0 C9.494000434875488,6.328999996185303 -9.494999885559082,-6.329999923706055 -9.494999885559082,-6.329999923706055z"></path></g></g><g transform="matrix(0.9954028725624084,0.0957762598991394,-0.0957762598991394,0.9954028725624084,130.18304443359375,-42.36181640625)" opacity="1" style="display: block;"><g opacity="1" transform="matrix(1,0,0,1,522.8560180664062,702.8489990234375)"><path fill="rgb(169,99,67)" fill-opacity="1" d=" M-69.6240005493164,9.168999671936035 C-69.6240005493164,9.168999671936035 -18.305999755859375,-14.64799976348877 -9.42300033569336,-20.695999145507812 C2.681999921798706,-28.937000274658203 21,-41.111000061035156 25.965999603271484,-43.319000244140625 C30.93199920654297,-45.527000427246094 44.11600112915039,-34.319000244140625 27.89699935913086,-15.314000129699707 C1.409000039100647,15.72599983215332 -61.0989990234375,46.74399948120117 -61.0989990234375,46.74399948120117 C-61.0989990234375,46.74399948120117 -69.6240005493164,9.168999671936035 -69.6240005493164,9.168999671936035z"></path></g><g opacity="1" transform="matrix(1,0,0,1,557.1690063476562,650.218017578125)"><path fill="rgb(121,70,46)" fill-opacity="1" d=" M-6.000999927520752,17.177000045776367 C-6.000999927520752,17.177000045776367 -10.553999900817871,20.072999954223633 -12.208999633789062,12.62399959564209 C-13.86400032043457,5.173999786376953 -12.208999633789062,1.8630000352859497 -11.795000076293945,-3.5179998874664307 C-11.381999969482422,-8.89799976348877 -6.828999996185303,-15.934000015258789 -5.173999786376953,-18.003999710083008 C-3.5179998874664307,-20.072999954223633 8.069999694824219,-15.932999610900879 10.968000411987305,-12.208999633789062 C13.864999771118164,-8.484000205993652 9.72599983215332,-4.34499979019165 6.414000034332275,-5.5879998207092285 C3.1029999256134033,-6.828999996185303 1.034000039100647,-8.277000427246094 1.034000039100647,-8.277000427246094 C1.034000039100647,-8.277000427246094 8.484000205993652,16.76300048828125 -6.000999927520752,17.177000045776367z"></path></g><g opacity="1" transform="matrix(1,0,0,1,563.291015625,660.8109741210938)"><path fill="rgb(169,99,67)" fill-opacity="1" d=" M-8.39799976348877,18.034000396728516 C-17.089000701904297,14.309000015258789 -19.73200035095215,11.810999870300293 -18.33099937438965,4.789999961853027 C-16.93000030517578,-2.2320001125335693 -6.988999843597412,-9.152999877929688 -5.202000141143799,-13.088000297546387 C-3.4159998893737793,-17.023000717163086 3.565000057220459,-21.759000778198242 11.64900016784668,-13.71500015258789 C19.732999801635742,-5.670000076293945 17.87299919128418,3.1050000190734863 11.28499984741211,10.48900032043457 C4.697000026702881,17.874000549316406 0.2930000126361847,21.759000778198242 -8.39799976348877,18.034000396728516z"></path></g><g opacity="1" transform="matrix(1,0,0,1,569.635009765625,651.5469970703125)"><path fill="rgb(52,40,57)" fill-opacity="1" d=" M25.038000106811523,18.43600082397461 C25.038000106811523,18.43600082397461 22.608999252319336,14.265000343322754 22.608999252319336,14.265000343322754 C22.608999252319336,14.265000343322754 -23.434999465942383,-18.43600082397461 -23.434999465942383,-18.43600082397461 C-23.434999465942383,-18.43600082397461 -25.03700065612793,-12.38599967956543 -25.03700065612793,-12.38599967956543 C-25.03700065612793,-12.38599967956543 25.038000106811523,18.43600082397461 25.038000106811523,18.43600082397461z"></path></g><g opacity="1" transform="matrix(1,0,0,1,570.6630249023438,649.7059936523438)"><path fill="rgb(121,70,46)" fill-opacity="1" d=" M-8.836999893188477,4.71999979019165 C-11.319999694824219,2.6510000228881836 -12.14900016784668,0.4779999852180481 -8.630000114440918,-3.868000030517578 C-7.328000068664551,-5.47599983215332 -14.262999534606934,-8.883000373840332 -13.701000213623047,-10.800999641418457 C-13.093999862670898,-12.871999740600586 -11.164999961853027,-16.746999740600586 -10.388999938964844,-16.801000595092773 C-7.581999778747559,-16.996999740600586 -2.3540000915527344,-14.946000099182129 -2.3540000915527344,-14.946000099182129 C-2.3540000915527344,-14.946000099182129 2.634999990463257,-12.63599967956543 4.684000015258789,-11.260000228881836 C6.73199987411499,-9.883999824523926 7.263000011444092,-5.364999771118164 7.263000011444092,-5.364999771118164 C7.263000011444092,-5.364999771118164 11.836999893188477,-1.9950000047683716 12.720999717712402,-0.21299999952316284 C13.604000091552734,1.5709999799728394 14.26200008392334,9.444000244140625 12.956000328063965,10.946000099182129 C11.649999618530273,12.446999549865723 9.826000213623047,16.996999740600586 6.684000015258789,15.480999946594238 C5.841000080108643,15.074000358581543 5.750999927520752,14.970999717712402 4.929999828338623,13.534000396728516 C4.22599983215332,12.305999755859375 6.372000217437744,10.10099983215332 6.372000217437744,10.10099983215332 C6.372000217437744,10.10099983215332 3.7850000858306885,12.376999855041504 2.440000057220459,12.067000389099121 C1.0950000286102295,11.755999565124512 1.253999948501587,11.237000465393066 0.7839999794960022,10.824000358581543 C-1.055999994277954,9.208999633789062 0.9919999837875366,6.2729997634887695 0.9919999837875366,6.2729997634887695 C0.9919999837875366,6.2729997634887695 -1.5950000286102295,9.27299976348877 -4.5960001945495605,7.203000068664551 C-6.232999801635742,6.074999809265137 -4.182000160217285,2.0299999713897705 -4.182000160217285,2.0299999713897705 C-4.182000160217285,2.0299999713897705 -6.354000091552734,6.789000034332275 -8.836999893188477,4.71999979019165z"></path></g><g opacity="1" transform="matrix(1,0,0,1,544.406005859375,634.9119873046875)"><path fill="rgb(61,75,110)" fill-opacity="1" d=" M2.946000099182129,-14.456999778747559 C2.946000099182129,-14.456999778747559 -2.9579999446868896,-15.121000289916992 -6.816999912261963,-4.072999954223633 C-10.675000190734863,6.974999904632568 -9.57800006866455,15.121999740600586 -4.145999908447266,12.82800006866455 C1.2879999876022339,10.534000396728516 10.675000190734863,-9.541000366210938 2.946000099182129,-14.456999778747559z"></path></g><g opacity="1" transform="matrix(1,0,0,1,554.3410034179688,659.2550048828125)"><path fill="rgb(169,99,67)" fill-opacity="1" d=" M-0.5509999990463257,9.656000137329102 C-0.5509999990463257,9.656000137329102 6.138999938964844,3.5869998931884766 6.070000171661377,-4.138999938964844 C6.000999927520752,-11.864999771118164 9.864999771118164,-9.795000076293945 9.864999771118164,-9.795000076293945 C9.864999771118164,-9.795000076293945 14.838000297546387,-9.831000328063965 16.832000732421875,-10.208000183105469 C18.826000213623047,-10.586000442504883 18.944000244140625,-10.201000213623047 19.867000579833984,-12.968999862670898 C21.52199935913086,-17.934999465942383 12.416999816894531,-21.246000289916992 4.415999889373779,-20.69499969482422 C1.2059999704360962,-20.472999572753906 1.1039999723434448,-20.14299964904785 -3.861999988555908,-15.175999641418457 C-8.82800006866455,-10.208999633789062 -21.520999908447266,21.2450008392334 -0.5509999990463257,9.656000137329102z"></path></g><g opacity="1" transform="matrix(1,0,0,1,560.2730102539062,661.0479736328125)"><path fill="rgb(121,70,46)" fill-opacity="1" d=" M1.2419999837875366,-7.448999881744385 C1.2419999837875366,-7.448999881744385 0.828000009059906,-1.6549999713897705 -0.4129999876022339,0.828000009059906 C-1.6549999713897705,3.312000036239624 -3.7249999046325684,7.449999809265137 -3.7249999046325684,7.449999809265137 C-3.7249999046325684,7.449999809265137 3.7249999046325684,4.9670000076293945 1.2419999837875366,-7.448999881744385z"></path></g></g><g transform="matrix(1,0,0,1,60,0)" opacity="1" style="display: block;"><g opacity="1" transform="matrix(1,0,0,1,395.593994140625,825.7109985351562)"><path fill="rgb(247,187,74)" fill-opacity="1" d=" M-48.74100112915039,-25.46299934387207 C-52.051998138427734,-18.840999603271484 -56.319000244140625,9.383000373840332 -51.72999954223633,29.264999389648438 C-47.14099884033203,49.14699935913086 31.488000869750977,29.562000274658203 42.832000732421875,22.152999877929688 C54.176998138427734,14.744000434875488 56.319000244140625,-25.808000564575195 33.724998474121094,-37.47800064086914 C11.130999565124512,-49.14699935913086 -45.43000030517578,-32.084999084472656 -48.74100112915039,-25.46299934387207z"></path></g><g opacity="1" transform="matrix(1,0,0,1,377.22698974609375,903.0280151367188)"><path fill="rgb(247,187,74)" fill-opacity="1" d=" M30.969999313354492,-52.959999084472656 C30.969999313354492,-52.959999084472656 26.70199966430664,11.946999549865723 26.482999801635742,33.86199951171875 C26.25200080871582,57.04100036621094 24.551000595092773,73.55599975585938 18.19499969482422,78.76100158691406 C11.84000015258789,83.96700286865234 -19.739999771118164,73.1500015258789 -24.22100067138672,55.637001037597656 C-28.70199966430664,38.12200164794922 -29.847999572753906,-9.937999725341797 -32.375,-38.1619987487793 C-34.902000427246094,-66.38700103759766 -27.709999084472656,-75.18399810791016 -4.7230000495910645,-79.6240005493164 C17.756000518798828,-83.96700286865234 34.902000427246094,-75.20899963378906 30.969999313354492,-52.959999084472656z"></path></g><g opacity="1" transform="matrix(1,0,0,1,396.5589904785156,859.6270141601562)"><path fill="rgb(206,147,54)" fill-opacity="1" d=" M-4.883999824523926,3.9200000762939453 C-4.883999824523926,3.9200000762939453 10.8100004196167,0.35499998927116394 10.8100004196167,0.35499998927116394 C10.8100004196167,0.35499998927116394 25.834999084472656,-3.9200000762939453 25.834999084472656,-3.9200000762939453 C25.834999084472656,-3.9200000762939453 -1.0119999647140503,-1.3539999723434448 -13.42300033569336,-1.7000000476837158 C-25.834999084472656,-2.0450000762939453 -4.883999824523926,3.9200000762939453 -4.883999824523926,3.9200000762939453z"></path></g><g opacity="1" transform="matrix(1,0,0,1,399.0929870605469,907.3389892578125)"><path fill="rgb(206,147,54)" fill-opacity="1" d=" M-3.928999900817871,-35.2760009765625 C-4.158999919891357,-27.00200080871582 -8.815999984741211,6.406000137329102 -8.815999984741211,6.406000137329102 C-8.815999984741211,6.406000137329102 4.133999824523926,46.926998138427734 4.133999824523926,46.926998138427734 C4.133999824523926,46.926998138427734 4.940000057220459,17.968000411987305 4.940000057220459,17.968000411987305 C4.940000057220459,17.968000411987305 8.815999984741211,-46.926998138427734 8.815999984741211,-46.926998138427734 C8.815999984741211,-46.926998138427734 -3.6989998817443848,-43.54899978637695 -3.928999900817871,-35.2760009765625z"></path></g><g opacity="1" transform="matrix(1,0,0,1,394.72698974609375,872.8790283203125)"><path fill="rgb(206,147,54)" fill-opacity="1" d=" M6.743000030517578,-9.196999549865723 C6.743000030517578,-9.196999549865723 -4.565999984741211,0.42500001192092896 -10.847999572753906,7.979000091552734 C-17.131000518798828,15.531999588012695 -15.857999801635742,-10.378000259399414 17.131999969482422,-15.531999588012695 C17.131999969482422,-15.531999588012695 6.743000030517578,-9.196999549865723 6.743000030517578,-9.196999549865723z"></path></g><g opacity="1" transform="matrix(1,0,0,1,309.0379943847656,1018.3590087890625)"><path fill="rgb(29,36,56)" fill-opacity="1" d=" M6.302999973297119,-14.013999938964844 C21.743999481201172,-11.937999725341797 24.60099983215332,-9.456000328063965 26.551000595092773,2.117000102996826 C28.448999404907227,13.381999969482422 -5.379000186920166,16.218000411987305 -16.680999755859375,16.075000762939453 C-28.447999954223633,15.925999641418457 -10.086000442504883,-16.218000411987305 6.302999973297119,-14.013999938964844z"></path></g><g opacity="1" transform="matrix(1,0,0,1,338.6600036621094,970.7550048828125)"><path fill="rgb(247,187,74)" fill-opacity="1" d=" M24.239999771118164,-36.94200134277344 C7.071000099182129,-34.194000244140625 13.616999626159668,-33.867000579833984 3.0999999046325684,-33.547000885009766 C-7.973999977111816,-33.21099853515625 -16.900999069213867,-31.648000717163086 -29.240999221801758,-28.36199951171875 C-42.23400115966797,-24.902000427246094 -37.152000427246094,-29.774999618530273 -46.36600112915039,-27.309999465942383 C-55.82699966430664,-24.780000686645508 -70.90299987792969,-2.243000030517578 -47.632999420166016,19.729000091552734 C-26.714000701904297,39.479000091552734 -21.02199935913086,37.77399826049805 -9.807000160217285,33.992000579833984 C0.8849999904632568,30.386999130249023 -15.92300033569336,28.517000198364258 5.335000038146973,24.85099983215332 C24.621000289916992,21.525999069213867 52.457000732421875,16.030000686645508 61.85599899291992,8.380000114440918 C70.9020004272461,1.0169999599456787 40.10599899291992,-39.47999954223633 24.239999771118164,-36.94200134277344z"></path></g><g opacity="1" transform="matrix(1,0,0,1,314.927001953125,974.0809936523438)"><path fill="rgb(206,147,54)" fill-opacity="1" d=" M-19.496999740600586,-27.69700050354004 C-19.496999740600586,-27.69700050354004 5.21999979019165,-30.027000427246094 11.987000465393066,-12.572999954223633 C18.41900062561035,4.01800012588501 19.496999740600586,30.027000427246094 1.378999948501587,27.32900047302246 C-18.06800079345703,24.434999465942383 -19.496999740600586,-27.69700050354004 -19.496999740600586,-27.69700050354004z"></path></g><g opacity="1" transform="matrix(1,0,0,1,378.41900634765625,938.9559936523438)"><path fill="rgb(206,147,54)" fill-opacity="1" d=" M-17.072999954223633,-5.431000232696533 C-17.072999954223633,-5.431000232696533 -11.727999687194824,-12.039999961853027 0.4390000104904175,-11.583000183105469 C12.071999549865723,-11.147000312805176 12.15999984741211,-7.067999839782715 2.9579999446868896,-6.514999866485596 C-6.561999797821045,-5.942999839782715 -8.531000137329102,-5.590000152587891 -8.531000137329102,-5.590000152587891 C-8.531000137329102,-5.590000152587891 4.072000026702881,-5.493000030517578 10.682999610900879,-0.050999999046325684 C17.07200050354004,5.206999778747559 15.607999801635742,12.039999961853027 15.607999801635742,12.039999961853027 C15.607999801635742,12.039999961853027 8.213000297546387,0.5220000147819519 -0.2800000011920929,-2.803999900817871 C-9.102999687194824,-6.260000228881836 -17.072999954223633,-5.431000232696533 -17.072999954223633,-5.431000232696533z"></path></g><g opacity="1" transform="matrix(1,0,0,1,294.2550048828125,991.9439697265625)"><path fill="rgb(29,36,56)" fill-opacity="1" d=" M-4.374000072479248,41.91699981689453 C-13.522000312805176,39.81399917602539 -17.511999130249023,23.739999771118164 -22.26099967956543,10.265000343322754 C-27.187999725341797,-3.7200000286102295 -34.41600036621094,-10.223999977111816 -34.70500183105469,-19.760000228881836 C-34.999000549316406,-29.44099998474121 -31.416000366210938,-40.99100112915039 -7.543000221252441,-42.52299880981445 C14.675000190734863,-43.94900131225586 22.812999725341797,-35.50299835205078 29.03499984741211,-22.222999572753906 C34.99800109863281,-9.494999885559082 30.051000595092773,2.4679999351501465 30.327999114990234,21.562000274658203 C28.60099983215332,37.15399932861328 4.465000152587891,43.94900131225586 -4.374000072479248,41.91699981689453z"></path></g><g opacity="1" transform="matrix(1,0,0,1,290.5790100097656,992.447021484375)"><path fill="rgb(21,136,202)" fill-opacity="1" d=" M17.976999282836914,41.34000015258789 C30.608999252319336,39.645999908447266 37.10300064086914,36.707000732421875 37.10300064086914,36.707000732421875 C32.209999084472656,38.18299865722656 24.04800033569336,35.58599853515625 20.586999893188477,32.948001861572266 C17.125,30.31100082397461 13.630999565124512,27.277999877929688 11.972000122070312,23.885000228881836 C5.415999889373779,7.289000034332275 15.880000114440918,-1.3329999446868896 13.63599967956543,-18.47599983215332 C11.854999542236328,-32.07699966430664 -0.125,-42.46500015258789 -18.101999282836914,-40.597999572753906 C-37.10200119018555,-38.625 -36.180999755859375,-21.937999725341797 -33.4379997253418,-10.793000221252441 C-32.902000427246094,-8.616999626159668 -24.20400047302246,2.1449999809265137 -23.472000122070312,4.5320000648498535 C-19.895999908447266,16.19300079345703 -21.90999984741211,21.586999893188477 -16.16699981689453,32.13100051879883 C-13.857000350952148,36.37099838256836 -10.241999626159668,40.11199951171875 -1.9550000429153442,41.547000885009766 C-0.5460000038146973,42.13999938964844 1.5290000438690186,42.4640007019043 4.431000232696533,42.39699935913086 C7.244999885559082,42.33100128173828 9.913999557495117,42.17300033569336 12.434000015258789,41.95199966430664 C14.644000053405762,41.814998626708984 16.4950008392334,41.62200164794922 17.976999282836914,41.34000015258789z"></path></g><g opacity="1" transform="matrix(1,0,0,1,290.6839904785156,992.5590209960938)"><path fill="rgb(41,171,225)" fill-opacity="1" d=" M21.007999420166016,40.02299880981445 C32.779998779296875,38.37099838256836 35.25,37.154998779296875 35.25,37.154998779296875 C30.60099983215332,38.111000061035156 24.073999404907227,35.869998931884766 20.875999450683594,33.694000244140625 C17.67799949645996,31.51799964904785 13.128999710083008,28.155000686645508 10.484000205993652,23.20199966430664 C4.374000072479248,7.015999794006348 14.12600040435791,-1.3919999599456787 12.034000396728516,-18.11199951171875 C10.375,-31.375 -0.7900000214576721,-41.50600051879883 -17.54400062561035,-39.685001373291016 C-35.25,-37.76100158691406 -34.391998291015625,-21.488000869750977 -31.836000442504883,-10.618000030517578 C-31.336999893188477,-8.496999740600586 -23.231000900268555,2 -22.54800033569336,4.328000068664551 C-19.215999603271484,15.699999809265137 -21.093000411987305,20.961000442504883 -15.741000175476074,31.243000030517578 C-13.588000297546387,35.37799835205078 -10.218999862670898,39.027000427246094 -2.494999885559082,40.42599868774414 C-1.1829999685287476,41.00400161743164 4.324999809265137,41.50600051879883 7.03000020980835,41.441001892089844 C9.652999877929688,41.37699890136719 16.986000061035156,40.749000549316406 21.007999420166016,40.02299880981445z"></path></g><g opacity="1" transform="matrix(1,0,0,1,453.9079895019531,828.2050170898438)"><path fill="rgb(247,187,74)" fill-opacity="1" d=" M-47.18199920654297,25.295000076293945 C-47.18199920654297,25.295000076293945 -2.759999990463257,29.43400001525879 22.349000930786133,27.777000427246094 C47.45800018310547,26.121999740600586 86.08599853515625,29.43400001525879 87.74099731445312,2.944999933242798 C89.39700317382812,-23.542999267578125 78.63600158691406,-20.507999420166016 62.909000396728516,-22.990999221801758 C47.180999755859375,-25.474000930786133 38.62799835205078,-25.19700050354004 3.311000108718872,-27.40399932861328 C-29.172000885009766,-29.43400001525879 -89.39700317382812,-4.505000114440918 -47.18199920654297,25.295000076293945z"></path></g><g opacity="1" transform="matrix(1,0,0,1,475.0150146484375,831.1510009765625)"><path fill="rgb(206,147,54)" fill-opacity="1" d=" M-68.28900146484375,22.349000930786133 C-68.28900146484375,22.349000930786133 -23.868000030517578,26.488000869750977 1.2410000562667847,24.83099937438965 C26.350000381469727,23.176000595092773 64.97799682617188,26.48900032043457 66.63300323486328,0 C68.28900146484375,-26.488000869750977 57.52899932861328,-23.45400047302246 41.801998138427734,-25.937000274658203 C41.801998138427734,-25.937000274658203 38.0099983215332,5.061999797821045 3.309999942779541,12.00100040435791 C-27.729999542236328,18.209999084472656 -68.28900146484375,22.349000930786133 -68.28900146484375,22.349000930786133z"></path></g><g opacity="1" transform="matrix(1,0,0,1,537.22998046875,984.0280151367188)"><path fill="rgb(41,171,225)" fill-opacity="1" d=" M-41.959999084472656,6.960000038146973 C-41.959999084472656,6.960000038146973 -41.57400131225586,12.76099967956543 -39.25400161743164,13.92199993133545 C-36.933998107910156,15.081999778747559 -28.424999237060547,15.855999946594238 -17.59600067138672,15.468999862670898 C-6.76800012588501,15.081999778747559 4.447000026702881,9.279999732971191 12.182000160217285,8.119999885559082 C19.916000366210938,6.960000038146973 41.18600082397461,0.7730000019073486 41.573001861572266,-5.0279998779296875 C41.959999084472656,-10.829999923706055 37.70600128173828,-15.857000350952148 37.70600128173828,-15.857000350952148 C37.70600128173828,-15.857000350952148 -41.959999084472656,6.960000038146973 -41.959999084472656,6.960000038146973z"></path></g><g opacity="1" transform="matrix(1,0,0,1,537.031982421875,982.4450073242188)"><path fill="rgb(41,171,225)" fill-opacity="1" d=" M-41.96099853515625,6.960999965667725 C-41.96099853515625,6.960999965667725 -41.57400131225586,12.76200008392334 -39.25400161743164,13.92199993133545 C-36.933998107910156,15.081999778747559 -28.424999237060547,15.855999946594238 -17.597000122070312,15.468999862670898 C-6.76800012588501,15.081999778747559 4.447000026702881,9.281000137329102 12.182999610900879,8.121000289916992 C19.91699981689453,6.960999965667725 41.1870002746582,0.7739999890327454 41.57400131225586,-5.0279998779296875 C41.96099853515625,-10.829000473022461 37.707000732421875,-15.855999946594238 37.707000732421875,-15.855999946594238 C37.707000732421875,-15.855999946594238 -41.96099853515625,6.960999965667725 -41.96099853515625,6.960999965667725z"></path></g><g opacity="1" transform="matrix(1,0,0,1,537.031982421875,982.8410034179688)"><path fill="rgb(21,136,202)" fill-opacity="1" d=" M-41.96099853515625,6.960999965667725 C-41.96099853515625,6.960999965667725 -41.57400131225586,12.76200008392334 -39.25400161743164,13.92199993133545 C-36.933998107910156,15.081999778747559 -28.424999237060547,15.855999946594238 -17.597000122070312,15.468999862670898 C-6.76800012588501,15.081999778747559 4.447000026702881,9.281000137329102 12.182999610900879,8.121000289916992 C19.91699981689453,6.960999965667725 41.1870002746582,0.7739999890327454 41.57400131225586,-5.0279998779296875 C41.96099853515625,-10.829000473022461 37.707000732421875,-15.855999946594238 37.707000732421875,-15.855999946594238 C37.707000732421875,-15.855999946594238 -41.96099853515625,6.960999965667725 -41.96099853515625,6.960999965667725z"></path></g><g opacity="1" transform="matrix(1,0,0,1,536.198974609375,974.552001953125)"><path fill="rgb(29,36,56)" fill-opacity="1" d=" M-38.99599838256836,-5.994999885559082 C-42.862998962402344,1.3539999723434448 -42.47600173950195,8.3149995803833 -41.316001892089844,14.114999771118164 C-40.15599822998047,19.916000366210938 -27.007999420166016,21.46299934387207 -14.631999969482422,20.30299949645996 C-3.0220000743865967,19.21500015258789 -2.6429998874664307,14.888999938964844 26.36199951171875,9.475000381469727 C42.69200134277344,6.427000045776367 42.86199951171875,1.9980000257492065 40.67100143432617,-9.732999801635742 C38.47999954223633,-21.464000701904297 21.333999633789062,-16.822999954223633 -1.4830000400543213,-14.890000343322754 C-19.43000030517578,-13.369000434875488 -35.12900161743164,-13.343000411987305 -38.99599838256836,-5.994999885559082z"></path></g><g opacity="1" transform="matrix(1,0,0,1,520.7249755859375,892.5449829101562)"><path fill="rgb(247,187,74)" fill-opacity="1" d=" M-19.194000244140625,-51.369998931884766 C-19.194000244140625,-51.369998931884766 -28.9950008392334,-45.222999572753906 -24.857999801635742,-39.209999084472656 C-21.242000579833984,-33.952999114990234 -26.957000732421875,-20.163999557495117 -27.01300048828125,-7.997000217437744 C-27.070999145507812,4.51200008392334 -22.54599952697754,53.85100173950195 -24.635000228881836,64.53399658203125 C-26.773000717163086,75.46700286865234 -30.964000701904297,81.0260009765625 -19.479999542236328,83.83599853515625 C-7.9670000076293945,86.6520004272461 4.440000057220459,85.71199798583984 12.96399974822998,82.91100311279297 C21.42099952697754,80.13300323486328 26.006999969482422,78.29199981689453 27.531999588012695,69.177001953125 C29.027999877929688,60.23400115966797 21.614999771118164,50.54999923706055 21.614999771118164,50.54999923706055 C21.614999771118164,50.54999923706055 21.156999588012695,11.383000373840332 20.621999740600586,-10.449999809265137 C20.113000869750977,-31.260000228881836 30.964000701904297,-78.97899627685547 12.918000221252441,-82.822998046875 C-5.064000129699707,-86.6520004272461 -18.658000946044922,-61.00600051879883 -19.194000244140625,-51.369998931884766z"></path></g><g opacity="1" transform="matrix(1,0,0,1,520.7249755859375,892.5449829101562)"><path fill="rgb(206,147,54)" fill-opacity="1" d=" M-19.194000244140625,-51.369998931884766 C-19.194000244140625,-51.369998931884766 -28.9950008392334,-45.222999572753906 -24.857999801635742,-39.209999084472656 C-21.242000579833984,-33.952999114990234 -26.957000732421875,-20.163999557495117 -27.01300048828125,-7.997000217437744 C-27.030000686645508,-4.372000217437744 -26.663000106811523,2.3480000495910645 -26.18199920654297,10.321999549865723 C-25.0049991607666,29.86400032043457 -23.150999069213867,56.946998596191406 -24.635000228881836,64.53399658203125 C-26.773000717163086,75.46700286865234 -30.964000701904297,81.0260009765625 -19.479999542236328,83.83599853515625 C-7.9670000076293945,86.6520004272461 4.440000057220459,85.71199798583984 12.96399974822998,82.91100311279297 C21.42099952697754,80.13300323486328 26.006999969482422,78.29199981689453 27.531999588012695,69.177001953125 C29.027999877929688,60.23400115966797 21.614999771118164,50.54999923706055 21.614999771118164,50.54999923706055 C21.614999771118164,50.54999923706055 21.156999588012695,11.383000373840332 20.621999740600586,-10.449999809265137 C20.113000869750977,-31.260000228881836 30.964000701904297,-78.97899627685547 12.918000221252441,-82.822998046875 C-5.064000129699707,-86.6520004272461 -18.658000946044922,-61.00600051879883 -19.194000244140625,-51.369998931884766z"></path></g><g opacity="1" transform="matrix(1,0,0,1,513.781005859375,845.4979858398438)"><path fill="rgb(247,187,74)" fill-opacity="1" d=" M-17.382999420166016,8.277000427246094 C-17.382999420166016,8.277000427246094 -9.105999946594238,7.172999858856201 -4.138999938964844,4.966000080108643 C0.828000009059906,2.757999897003174 17.382999420166016,-9.932000160217285 17.382999420166016,-9.932000160217285 C17.382999420166016,-9.932000160217285 -4.690999984741211,9.932000160217285 -4.690999984741211,9.932000160217285 C-4.690999984741211,9.932000160217285 -17.382999420166016,8.277000427246094 -17.382999420166016,8.277000427246094z"></path></g><g opacity="1" transform="matrix(1,0,0,1,413.3080139160156,663.323974609375)"><path fill="rgb(169,99,67)" fill-opacity="1" d=" M18.447999954223633,-16.48699951171875 C18.447999954223633,-16.48699951171875 18.447999954223633,8.89799976348877 18.447999954223633,8.89799976348877 C18.447999954223633,8.89799976348877 -18.447999954223633,16.48699951171875 -18.447999954223633,16.48699951171875 C-18.447999954223633,16.48699951171875 -18.14699935913086,-14.279000282287598 -18.14699935913086,-14.279000282287598 C-18.14699935913086,-14.279000282287598 18.447999954223633,-16.48699951171875 18.447999954223633,-16.48699951171875z"></path></g><g opacity="1" transform="matrix(1,0,0,1,416.1579895019531,663.1170043945312)"><path fill="rgb(121,70,46)" fill-opacity="1" d=" M18.297000885009766,-16.280000686645508 C18.297000885009766,-16.280000686645508 18.297000885009766,9.104999542236328 18.297000885009766,9.104999542236328 C18.297000885009766,15.72700023651123 -17.547000885009766,16.27899932861328 -17.547000885009766,16.27899932861328 C-17.547000885009766,16.27899932861328 -18.297000885009766,-14.071999549865723 -18.297000885009766,-14.071999549865723 C-18.297000885009766,-14.071999549865723 18.297000885009766,-16.280000686645508 18.297000885009766,-16.280000686645508z"></path></g><g opacity="1" transform="matrix(1,0,0,1,414.864990234375,737.031982421875)"><path fill="rgb(21,136,202)" fill-opacity="1" d=" M-71.3239974975586,67.62999725341797 C-71.3239974975586,67.62999725341797 -70.77200317382812,49.41999816894531 -65.52999877929688,9.13599967956543 C-64.66899871826172,2.5190000534057617 -58.63199996948242,-41.35499954223633 -48.69900131225586,-54.5989990234375 C-38.76599884033203,-67.84400177001953 -32.14400100708008,-67.01499938964844 -28.0049991607666,-68.6719970703125 C-23.865999221801758,-70.3270034790039 30.009000778198242,-74.80500030517578 42.35300064086914,-71.98300170898438 C71.3239974975586,-65.36100006103516 60.38100051879883,-25.926000595092773 57.25299835205078,-7.418000221252441 C53.94200134277344,12.17199993133545 46.768001556396484,22.933000564575195 41.80099868774414,36.729000091552734 C39.262001037597656,43.78099822998047 32.97200012207031,62.665000915527344 28.006000518798828,65.42400360107422 C23.038999557495117,68.18299865722656 -8.414999961853027,74.80500030517578 -35.45500183105469,73.70099639892578 C-62.494998931884766,72.5979995727539 -71.3239974975586,67.62999725341797 -71.3239974975586,67.62999725341797z"></path></g><g opacity="1" transform="matrix(1,0,0,1,395.6889953613281,738.510986328125)"><path fill="rgb(41,171,225)" fill-opacity="1" d=" M-52.14799880981445,66.1510009765625 C-52.14799880981445,66.1510009765625 -51.59600067138672,47.941001892089844 -46.354000091552734,7.6570000648498535 C-45.49300003051758,1.0399999618530273 -39.45600128173828,-42.834999084472656 -29.523000717163086,-56.07899856567383 C-19.59000015258789,-69.3239974975586 -12.968000411987305,-68.49500274658203 -8.829000473022461,-70.1520004272461 C-4.690000057220459,-71.80699920654297 28.41900062561035,-73.32499694824219 28.41900062561035,-73.32499694824219 C28.41900062561035,-73.32499694824219 -5.105000019073486,-37.31800079345703 -10.071000099182129,7.38100004196167 C-11.807999610900879,23.017000198364258 -8.001999855041504,57.459999084472656 -8.001999855041504,57.459999084472656 C-8.001999855041504,57.459999084472656 52.14799880981445,61.185001373291016 47.18199920654297,63.944000244140625 C42.21500015258789,66.7030029296875 10.76099967956543,73.32499694824219 -16.27899932861328,72.22100067138672 C-43.319000244140625,71.11799621582031 -52.14799880981445,66.1510009765625 -52.14799880981445,66.1510009765625z"></path></g><g opacity="1" transform="matrix(1,0,0,1,443.9739990234375,772.3800048828125)"><path stroke-linecap="butt" stroke-linejoin="miter" fill-opacity="0" stroke-miterlimit="10" stroke="rgb(41,171,225)" stroke-opacity="1" stroke-width="1" d=" M4.138999938964844,-28.97100067138672 C4.138999938964844,-28.97100067138672 -0.828000009059906,-8.277999877929688 -0.828000009059906,-8.277999877929688 C-0.828000009059906,-8.277999877929688 -4.138999938964844,28.97100067138672 -4.138999938964844,28.97100067138672"></path></g><g opacity="1" transform="matrix(1,0,0,1,456.52899169921875,707.885009765625)"><path fill="rgb(169,99,67)" fill-opacity="1" d=" M20.280000686645508,-0.0010000000474974513 C20.280000686645508,20.381000518798828 11.199999809265137,36.90399932861328 0,36.90399932861328 C-11.199999809265137,36.90399932861328 -20.280000686645508,20.381000518798828 -20.280000686645508,-0.0010000000474974513 C-20.280000686645508,-20.382999420166016 -11.199999809265137,-36.90399932861328 0,-36.90399932861328 C11.199999809265137,-36.90399932861328 20.280000686645508,-20.382999420166016 20.280000686645508,-0.0010000000474974513z"></path></g><g opacity="1" transform="matrix(1,0,0,1,453.9320068359375,721.260009765625)"><path fill="rgb(121,70,46)" fill-opacity="1" d=" M13.640999794006348,17.909000396728516 C13.640999794006348,17.909000396728516 13.640000343322754,24.93199920654297 1.9079999923706055,16.5049991607666 C-9.824000358581543,8.07699966430664 -16.863000869750977,-24.93199920654297 0.3440000116825104,-19.31399917602539 C16.86199951171875,-13.920000076293945 13.640999794006348,17.909000396728516 13.640999794006348,17.909000396728516z"></path></g><g opacity="1" transform="matrix(1,0,0,1,419.52099609375,614.9819946289062)"><path fill="rgb(121,70,46)" fill-opacity="1" d=" M-33.797000885009766,-8.753000259399414 C-35.61399841308594,-28.108999252319336 -34.68600082397461,-39.380001068115234 -14.116000175476074,-42.97100067138672 C-3.380000114440918,-44.845001220703125 9.949000358581543,-44.702999114990234 16.555999755859375,-41.959999084472656 C22.53499984741211,-39.479000091552734 26.288999557495117,-34.5880012512207 29.54800033569336,-22.0939998626709 C32.00299835205078,-12.678999900817871 35.61399841308594,5.8429999351501465 34.12300109863281,22.783000946044922 C33.16699981689453,33.64099884033203 18.5310001373291,38.191001892089844 7.368000030517578,40.07600021362305 C-20.882999420166016,44.84600067138672 -25.540000915527344,39.00299835205078 -30.07900047302246,18.90999984741211 C-34.347999572753906,0.01600000075995922 -33.05099868774414,-0.8069999814033508 -33.797000885009766,-8.753000259399414z"></path></g><g opacity="1" transform="matrix(1,0,0,1,409.1050109863281,614.280029296875)"><path fill="rgb(39,49,82)" fill-opacity="1" d=" M-32.178001403808594,-2.8970000743865967 C-31.520999908447266,15.706999778747559 -26.89900016784668,27.66699981689453 -23.625999450683594,34.2140007019043 C-17.55500030517578,46.354000091552734 -4.51800012588501,41.38100051879883 -0.9179999828338623,41.27199935913086 C33.09600067138672,40.23699951171875 24.31100082397461,0.1599999964237213 22.239999771118164,-20.867000579833984 C20.170000076293945,-41.893001556396484 2.86299991607666,-46.354000091552734 -16.45199966430664,-40.558998107910156 C-30.285999298095703,-36.409000396728516 -33.09600067138672,-28.885000228881836 -32.178001403808594,-2.8970000743865967z"></path></g><g opacity="1" transform="matrix(1,0,0,1,415.677001953125,578.6909790039062)"><path fill="rgb(39,49,82)" fill-opacity="1" d=" M-26.333999633789062,-3.0390000343322754 C-26.333999633789062,-3.0390000343322754 -18.277000427246094,-7.3420000076293945 1.2130000591278076,-8.437999725341797 C18.820999145507812,-9.430000305175781 26.333999633789062,-1.5160000324249268 26.333999633789062,-1.5160000324249268 C26.333999633789062,-1.5160000324249268 25.31800079345703,2.000999927520752 20.003999710083008,5.802999973297119 C15.04699993133545,9.350000381469727 -4.836999893188477,9.430000305175781 -4.836999893188477,9.430000305175781 C-4.836999893188477,9.430000305175781 -26.333999633789062,-3.0390000343322754 -26.333999633789062,-3.0390000343322754z"></path></g><g opacity="1" transform="matrix(1,0,0,1,430.7030029296875,594.030029296875)"><path fill="rgb(39,49,82)" fill-opacity="1" d=" M-5.2230000495910645,-15.456000328063965 C-5.2230000495910645,-15.456000328063965 8.142999649047852,-15.074000358581543 6.951000213623047,15.456000328063965 C6.951000213623047,15.456000328063965 -1.2790000438690186,10.817999839782715 -4.710999965667725,1.8209999799728394 C-8.142999649047852,-7.176000118255615 -5.2230000495910645,-15.456000328063965 -5.2230000495910645,-15.456000328063965z"></path></g><g opacity="1" transform="matrix(1,0,0,1,432.7760009765625,616.0120239257812)"><path fill="rgb(169,99,67)" fill-opacity="1" d=" M-5.4019999504089355,4.007999897003174 C-2.131999969482422,10.368000030517578 4.175000190734863,13.819000244140625 8.78600025177002,11.906000137329102 C8.78600025177002,11.906000137329102 5.419000148773193,-3.553999900817871 4.877999782562256,-6.526000022888184 C4.538000106811523,-8.390999794006348 2.1740000247955322,-13.819999694824219 -2.734999895095825,-11.779000282287598 C-7.642000198364258,-9.73799991607666 -8.78600025177002,-2.575000047683716 -5.4019999504089355,4.007999897003174z"></path></g><g opacity="1" transform="matrix(1,0,0,1,434.7829895019531,616.2449951171875)"><path fill="rgb(121,70,46)" fill-opacity="1" d=" M-5.4019999504089355,4.008999824523926 C-2.131999969482422,10.369000434875488 4.175000190734863,13.819000244140625 8.78600025177002,11.906000137329102 C8.78600025177002,11.906000137329102 5.419000148773193,-3.552000045776367 4.877999782562256,-6.525000095367432 C4.538000106811523,-8.390000343322754 2.1740000247955322,-13.819999694824219 -2.734999895095825,-11.779000282287598 C-7.642000198364258,-9.73799991607666 -8.78600025177002,-2.575000047683716 -5.4019999504089355,4.008999824523926z"></path></g><g opacity="1" transform="matrix(1,0,0,1,437.65301513671875,626.4829711914062)"><path fill="rgb(243,231,217)" fill-opacity="1" d=" M-3.328000068664551,1.1009999513626099 C-2.6389999389648438,2.871999979019165 -0.5979999899864197,3.818000078201294 1.2359999418258667,3.2290000915527344 C3.069000005722046,2.640000104904175 4.021999835968018,0.7319999933242798 3.3610000610351562,-1.0449999570846558 C2.694999933242798,-2.8380000591278076 0.6430000066757202,-3.819000005722046 -1.218000054359436,-3.2219998836517334 C-3.0799999237060547,-2.627000093460083 -4.021999835968018,-0.6840000152587891 -3.328000068664551,1.1009999513626099z"></path></g></g><g transform="matrix(0.9975640773773193,-0.06975647062063217,0.06975647062063217,0.9975640773773193,13.549072265625,33.81903076171875)" opacity="1" style="display: block;"><g opacity="1" transform="matrix(1,0,0,1,486.19000244140625,726.5440063476562)"><path fill="rgb(121,70,46)" fill-opacity="1" d=" M24.83300018310547,19.761999130249023 C20.072999954223633,12.72700023651123 9.932999610900879,0.7239999771118164 5.794000148773193,-9.623000144958496 C1.6549999713897705,-19.9689998626709 -5.795000076293945,-50.59600067138672 -14.899999618530273,-55.97600173950195 C-24.0049991607666,-61.356998443603516 -27.731000900268555,-60.94300079345703 -38.07699966430664,-50.18199920654297 C-48.42399978637695,-39.422000885009766 -44.2859992980957,-28.660999298095703 -33.111000061035156,-15.416999816894531 C-21.93600082397461,-2.1730000972747803 -14.89900016784668,31.35099983215332 -4.138999938964844,42.939998626708984 C6.622000217437744,54.52799987792969 21.312999725341797,60.94300079345703 28.97100067138672,61.150001525878906 C36.62699890136719,61.356998443603516 48.42399978637695,53.07899856567383 24.83300018310547,19.761999130249023z"></path></g><g opacity="1" transform="matrix(1,0,0,1,464.7909851074219,724.1630249023438)"><path fill="rgb(169,99,67)" fill-opacity="1" d=" M19.743000030517578,10.968999862670898 C15.604000091552734,0.6209999918937683 12.845000267028809,-10.553000450134277 1.8079999685287476,-24.349000930786133 C-4.798999786376953,-32.608001708984375 -10.883999824523926,-56.90800094604492 -17.920000076293945,-46.56100082397461 C-28.020999908447266,-35.569000244140625 -24.95599937438965,-18.83099937438965 -13.781000137329102,-5.5879998207092285 C-2.6059999465942383,7.656000137329102 6.499000072479248,33.73099899291992 17.260000228881836,45.31999969482422 C28.020000457763672,56.90700149536133 23.881999969482422,21.31599998474121 19.743000030517578,10.968999862670898z"></path></g></g><g transform="matrix(0.8191520571708679,-0.5735764503479004,0.5735764503479004,0.8191520571708679,-281.90643310546875,426.7642822265625)" opacity="1" style="display: block;"><g opacity="1" transform="matrix(1,0,0,1,523.177978515625,742.6320190429688)"><path fill="rgb(121,70,46)" fill-opacity="1" d=" M-27.4689998626709,24.368000030517578 C-27.4689998626709,24.368000030517578 -29.538000106811523,6.985000133514404 -11.32800006866455,-9.156000137329102 C3.9130001068115234,-22.665000915527344 4.146999835968018,-46.57699966430664 17.367000579833984,-47.231998443603516 C29.691999435424805,-47.840999603271484 28.63800048828125,-32.775001525878906 26.389999389648438,-19.204999923706055 C24.10300064086914,-5.39900016784668 18.86199951171875,17.80299949645996 9.838000297546387,29.78499984741211 C0.3140000104904175,42.428001403808594 -0.9070000052452087,47.840999603271484 -14.78600025177002,43.80500030517578 C-29.69099998474121,39.47200012207031 -27.4689998626709,24.368000030517578 -27.4689998626709,24.368000030517578z"></path></g></g><g transform="matrix(0.9986295700073242,-0.0523359440267086,0.0523359440267086,0.9986295700073242,-11.789812088012695,18.331249237060547)" opacity="1" style="display: block;"><g opacity="1" transform="matrix(1,0,0,1,529.9910278320312,666.0150146484375)"><path fill="rgb(52,40,57)" fill-opacity="1" d=" M8.76099967956543,23.590999603271484 C8.76099967956543,23.590999603271484 16.072999954223633,16.9689998626709 16.072999954223633,16.9689998626709 C16.072999954223633,16.9689998626709 -9.58899974822998,-23.590999603271484 -9.58899974822998,-23.590999603271484 C-9.58899974822998,-23.590999603271484 -16.07200050354004,-17.382999420166016 -16.07200050354004,-17.382999420166016 C-16.07200050354004,-17.382999420166016 8.76099967956543,23.590999603271484 8.76099967956543,23.590999603271484z"></path></g><g opacity="1" transform="matrix(1,0,0,1,544.4080200195312,685.6740112304688)"><path fill="rgb(121,70,46)" fill-opacity="1" d=" M-8.829999923706055,21.31399917602539 C-0.5519999861717224,27.384000778198242 7.034999847412109,32.4900016784668 9.932999610900879,16.347999572753906 C12.829999923706055,0.20800000429153442 12.140000343322754,1.034999966621399 14.623000144958496,-3.5179998874664307 C17.10700035095215,-8.071000099182129 14.623000144958496,-2.2769999504089355 15.451000213623047,-7.24399995803833 C16.277999877929688,-12.210000038146973 11.72700023651123,-14.279999732971191 11.72700023651123,-14.279999732971191 C11.72700023651123,-14.279999732971191 8.414999961853027,-19.659000396728516 8.00100040435791,-22.969999313354492 C7.586999893188477,-26.2810001373291 2.621000051498413,-25.867000579833984 -1.9320000410079956,-29.17799949645996 C-6.484000205993652,-32.48899841308594 -11.86400032043457,-28.902000427246094 -12.692000389099121,-26.2810001373291 C-13.520000457763672,-23.65999984741211 -9.642999649047852,-23.634000778198242 -10.484999656677246,-19.520999908447266 C-11.4350004196167,-14.871999740600586 -16.155000686645508,-8.39900016784668 -13.520000457763672,-2.690000057220459 C-8.553999900817871,8.071000099182129 -17.10700035095215,15.244000434875488 -8.829999923706055,21.31399917602539z"></path></g><g opacity="1" transform="matrix(1,0,0,1,533.198974609375,687.7429809570312)"><path fill="rgb(121,70,46)" fill-opacity="1" d=" M9.692000389099121,20.900999069213867 C3.8970000743865967,27.108999252319336 -1.069000005722046,25.040000915527344 -1.069000005722046,21.315000534057617 C-1.069000005722046,17.59000015258789 -8.519000053405762,8.484999656677246 -11.414999961853027,4.760000228881836 C-14.312999725341797,1.034999966621399 -13.774999618530273,0.20600000023841858 -12.932999610900879,-7.243000030517578 C-12.130000114440918,-14.354000091552734 -13.623000144958496,-13.173999786376953 -15.140999794006348,-22.142000198364258 C-15.486000061035156,-24.18199920654297 -13.89900016784668,-27.108999252319336 -11.829000473022461,-26.69499969482422 C-9.760000228881836,-26.2810001373291 -6.311999797821045,-22.694000244140625 -3.8289999961853027,-14.416000366210938 C-1.3450000286102295,-6.138999938964844 15.486000061035156,14.692999839782715 9.692000389099121,20.900999069213867z"></path></g><g opacity="1" transform="matrix(1,0,0,1,509.8429870605469,632.7670288085938)"><path fill="rgb(200,64,57)" fill-opacity="1" d=" M-10.6850004196167,25.937000274658203 C-10.6850004196167,25.937000274658203 25.18400001525879,7.724999904632568 25.18400001525879,7.724999904632568 C25.18400001525879,7.724999904632568 30.275999069213867,-0.03400000184774399 24.08099937438965,-12.692999839782715 C17.735000610351562,-25.660999298095703 9.180999755859375,-25.937000274658203 9.180999755859375,-25.937000274658203 C9.180999755859375,-25.937000274658203 -28.6200008392334,-8.277000427246094 -28.6200008392334,-8.277000427246094 C-28.6200008392334,-8.277000427246094 -30.274999618530273,-0.2770000100135803 -26.687999725341797,9.380000114440918 C-23.10099983215332,19.038000106811523 -10.6850004196167,25.937000274658203 -10.6850004196167,25.937000274658203z"></path></g><g opacity="1" transform="matrix(1,0,0,1,491.156005859375,640.9149780273438)"><path fill="rgb(153,44,41)" fill-opacity="1" d=" M7.816999912261963,-3.9590001106262207 C12.687999725341797,5.656000137329102 13.13599967956543,15.223999977111816 8.819999694824219,17.40999984741211 C4.502999782562256,19.597000122070312 -2.946000099182129,13.574999809265137 -7.815999984741211,3.9600000381469727 C-12.687000274658203,-5.65500020980835 -13.13599967956543,-15.222999572753906 -8.819000244140625,-17.409000396728516 C-4.501999855041504,-19.597000122070312 2.946000099182129,-13.574000358581543 7.816999912261963,-3.9590001106262207z"></path></g></g></g></svg>