<svg version="1.2" xmlns="http://www.w3.org/2000/svg" viewBox="0 0 1000 1000" width="1000" height="1000"><style>.a{fill:#f5f5f5}.b{fill:#e6e6e6}.c{fill:#37474f}.d{fill:#455a64}.e{fill:#27debf}.f{opacity:.6}.g{opacity:.5}.h{opacity:.4}.i{opacity:.1}.j{fill:#263238}.k{fill:#e0e0e0}.l{fill:#ebebeb}.m{fill:#fff}.n{opacity:.5;fill:#fff}.o{opacity:.9;fill:#263238}.p{opacity:.6;fill:#fff}.q{opacity:.8;fill:#fff}.r{opacity:.6;fill:#27debf}.s{fill:#463b3c}.t{fill:#fafafa}.u{fill:#463b3c}.v{fill:none;stroke:#263238;stroke-miterlimit:10;stroke-width:2.4}.w{fill:none;stroke:#263238;stroke-miterlimit:10;stroke-width:2.1}.x{opacity:.7;fill:#fff}.y{opacity:.1;fill:#27debf}.z{opacity:.3}.A{opacity:.2}.B{fill:#f0f0f0}</style><path class="a" d="m816.8 549.1c175.2 97 175.2 254.2 0 351.2-175.1 97-459.1 97-634.2 0-175.1-97-175.1-254.2 0-351.1 175.1-97 459.1-97 634.2-0.1z"/><path class="b" d="m903.4 686.3l-250 144.4c-1.9 1.1-4.9 1.1-6.7 0l-360.5-208.1c-1.8-1.1-1.8-2.8 0-3.9l250-144.4c1.9-1.1 4.9-1.1 6.7 0l360.5 208.1c1.8 1.1 1.8 2.8 0 3.9z"/><path class="b" d="m428.6 886.1c58.7-33.9 58.7-88.8 0-122.6-58.6-33.9-153.7-33.9-212.3 0-58.7 33.8-58.7 88.7 0 122.6 58.6 33.9 153.7 33.9 212.3 0z"/><path class="b" d="m588.9 772.5c46.1-26.6 46.1-69.8 0-96.5-46.2-26.6-121-26.6-167.2 0-46.1 26.7-46.1 69.9 0 96.5 46.2 26.7 121 26.7 167.2 0z"/><path class="b" d="m820.6 846c29-16.7 29-43.8 0-60.6-28.9-16.7-75.9-16.7-104.9 0-29 16.8-29 43.9 0 60.6 29 16.7 76 16.7 104.9 0z"/><path class="c" d="m658.8 572.7v221.9c0 1.4-1 3.2-2.2 3.9l-4.8 2.7c-1.2 0.8-3.2 0.8-4.4 0l-4.8-2.7c-1.2-0.7-2.2-2.5-2.2-3.9v-221.9c0-1.4 1-2 2.2-1.3l4.8 2.8c1.2 0.7 3.2 0.7 4.4 0l4.8-2.8c1.2-0.7 2.2-0.1 2.2 1.3z"/><path class="d" d="m647.4 801.2l-4.8-2.7c-1.2-0.7-2.2-2.5-2.2-3.9v-221.9c0-1.4 1-2 2.2-1.3l4.8 2.8c1.2 0.7 2.2 2.4 2.2 3.9v221.8c0 1.5-1 2.1-2.2 1.3z"/><path class="c" d="m861.9 455.4v221.9c0 1.5-1 3.2-2.3 3.9l-4.7 2.8c-1.3 0.7-3.3 0.7-4.5 0l-4.8-2.8c-1.2-0.7-2.2-2.4-2.2-3.9v-221.9c0-1.4 1-2 2.2-1.3l4.8 2.8c1.2 0.7 3.2 0.7 4.5 0l4.7-2.8c1.3-0.7 2.3-0.1 2.3 1.3z"/><path class="d" d="m850.4 684l-4.8-2.8c-1.2-0.7-2.2-2.4-2.2-3.9v-221.9c0-1.4 1-2 2.2-1.3l4.8 2.8c1.2 0.7 2.2 2.4 2.2 3.9v221.9c0 1.4-1 2-2.2 1.3z"/><path class="c" d="m385.4 414.9v221.9c0 1.5-1 3.2-2.2 3.9l-4.8 2.8c-1.2 0.7-3.2 0.7-4.5 0l-4.7-2.8c-1.3-0.7-2.3-2.4-2.3-3.9v-221.9c0-1.4 1-2 2.3-1.2l4.7 2.7c1.3 0.7 3.3 0.7 4.5 0l4.8-2.7c1.2-0.8 2.2-0.2 2.2 1.2z"/><path class="d" d="m373.9 643.5l-4.7-2.8c-1.3-0.7-2.3-2.4-2.3-3.9v-221.9c0-1.4 1-2 2.3-1.2l4.7 2.7c1.3 0.7 2.3 2.5 2.3 3.9v221.9c0 1.4-1 2-2.3 1.3z"/><path class="e" d="m906 471.2v-1.6c0-2.6-1.8-5.8-4-7.1l-358.1-206.5c-2.2-1.3-5.9-1.3-8.1 0l-220.3 127.2c-2.2 1.3-4 4.5-4 7.1v1.6c0 2.6 1.8 5.8 4 7.1l358.1 206.5c2.2 1.3 5.9 1.3 8.1 0l220.3-127.2c2.2-1.3 4-4.5 4-7.1z"/><path class="f" d="m906 471.2v-1.6c0-2.6-1.8-5.8-4-7.1l-358.1-206.5c-2.2-1.3-5.9-1.3-8.1 0l-220.3 127.2c-2.2 1.3-4 4.5-4 7.1v1.6c0 2.6 1.8 5.8 4 7.1l358.1 206.5c2.2 1.3 5.9 1.3 8.1 0l220.3-127.2c2.2-1.3 4-4.5 4-7.1z"/><path class="e" d="m677.6 595.4v11.1c1.5 0 3-0.4 4.1-1l220.3-127.2c2.2-1.3 4-4.5 4-7.1v-1.6c0-2.3-1.4-5-3.3-6.5 1.5 1.2 1.2 3-0.7 4.2l-220.3 127.2c-1.1 0.6-2.6 0.9-4.1 0.9z"/><path class="g" d="m677.6 595.4v11.1c1.5 0 3-0.4 4.1-1l220.3-127.2c2.2-1.3 4-4.5 4-7.1v-1.6c0-2.3-1.4-5-3.3-6.5 1.5 1.2 1.2 3-0.7 4.2l-220.3 127.2c-1.1 0.6-2.6 0.9-4.1 0.9z"/><path class="e" d="m902 467.2l-220.3 127.3c-2.2 1.3-5.9 1.3-8.1 0l-358.1-206.6c-2.2-1.3-2.2-3.4 0-4.7l220.3-127.2c2.2-1.3 5.9-1.3 8.1 0l358.1 206.5c2.2 1.3 2.2 3.4 0 4.7z"/><path class="h" d="m902 467.2l-220.3 127.3c-2.2 1.3-5.9 1.3-8.1 0l-358.1-206.6c-2.2-1.3-2.2-3.4 0-4.7l220.3-127.2c2.2-1.3 5.9-1.3 8.1 0l358.1 206.5c2.2 1.3 2.2 3.4 0 4.7z"/><path class="i" d="m650.6 464.5l-52.2 30.2c-1.6 0.9-4.2 0.9-5.9 0l-154.1-88.9c-1.6-0.9-1.6-2.4 0-3.4l52.2-30.2c1.6-0.9 4.2-0.9 5.8 0l154.2 88.9c1.6 0.9 1.6 2.4 0 3.4z"/><path class="j" d="m441.5 397.1c0-0.6 0.4-1.3 1.3-1.7l49-28.3c1.6-1 4.2-1 5.8 0l149.6 86.5c0.8 0.5 1.2 1.1 1.2 1.7 0 0.6 0 4.5 0 5.1 0 0.6-0.4 1.2-1.2 1.7l-49 28.3c-1.6 0.9-4.2 0.9-5.8 0l-149.6-86.4c-0.9-0.4-1.3-1-1.3-1.7 0-0.6 0-4.6 0-5.2z"/><path class="c" d="m598.2 485.1l49-28.1c1.6-1 1.6-2.5 0-3.4l-149.6-86.5c-1.6-1-4.2-1-5.8 0l-49 28.3c-1.7 0.9-1.7 2.4 0 3.4l149.6 86.3c1.6 1 4.2 1 5.8 0z"/><path class="j" d="m595.5 485.8v5.3c1 0 2-0.3 2.7-0.7l49-28.3c0.8-0.5 1.2-1.1 1.2-1.7v-5.1c0 0.6-0.4 1.2-1.2 1.7l-49 28.1c-0.7 0.5-1.7 0.7-2.7 0.7z"/><path fill-rule="evenodd" class="e" d="m450.6 397.4q0 0 0.1 0l4.8-2.8 6.6 3.8-4.9 2.9-6.6-3.8zm7.6-4.4q0-0.1 0.1-0.1l4.8-2.8 5.2 3-4.9 2.9-5.2-3zm1.6 9.7q0 0 0.1 0l4.8-2.8 5.2 2.9-4.9 2.9-5.2-2.9zm6-14.1q0-0.1 0.1-0.1l4.8-2.8 8.4 4.8-4.9 2.9-8.4-4.8zm0.2 8.9q0-0.1 0.1-0.1l4.8-2.8 4.1 2.4-4.9 2.9-4.1-2.4zm1.6 9.7q0.1 0 0.1 0l4.8-2.8 5.2 2.9-4.9 2.9-5.1-2.9zm5.1-5.9q0 0 0 0l4.9-2.8 4.1 2.4-4.9 2.9-4.1-2.4zm0.7-17.2q0 0 0 0l4.9-2.8 6.5 3.8-4.8 2.9-6.6-3.8zm2 27.4q0 0 0 0l4.8-2.8 37.4 21.5-4.9 2.9-37.3-21.5zm1.4-16.8q0 0 0 0l4.8-2.8 4.1 2.3-4.8 2.9-4.1-2.3zm2.6 10.3q0-0.1 0.1-0.1l4.8-2.8 4.1 2.4-4.9 2.9-4.1-2.4zm1.6-25.4q0-0.1 0-0.1l4.9-2.8 4.1 2.4-4.9 2.9-4.1-2.4zm1.6 9.7q0 0 0 0l4.9-2.8 4.1 2.3-4.9 2.9-4.1-2.3zm0.9 9.2q0 0 0 0l4.9-2.8 4.1 2.4-4.9 2.9-4.1-2.4zm2.7 10.3q0-0.1 0-0.1l4.9-2.8 4.1 2.4-4.9 2.9-4.1-2.4zm1.6-25.4q0 0 0 0l4.8-2.8 4.1 2.3-4.8 2.9-4.1-2.3zm1.6 9.6q0 0 0 0l4.8-2.8 4.2 2.4-4.9 2.9-4.1-2.4zm0.9 9.3q0-0.1 0-0.1l4.8-2.8 4.2 2.4-4.9 2.9-4.1-2.4zm0-28.2q0 0 0 0l4.9-2.8 5.1 2.9-4.9 2.9-5.1-2.9zm2.6 38.4q0.1 0 0.1 0l4.8-2.8 4.1 2.4-4.8 2.8-4.1-2.3zm1.5-25.4q0-0.1 0-0.1l4.9-2.8 4.1 2.4-4.9 2.9-4.1-2.4zm1.6 9.7q0 0 0.1-0.1l4.8-2.8 4.1 2.4-4.9 2.9-4.1-2.4zm0.9 9.3q0 0 0.1 0l4.8-2.8 4.1 2.3-4.9 2.9-4.1-2.3zm2.7 10.3q0-0.1 0-0.1l4.9-2.8 4.1 2.4-4.9 2.9-4.1-2.4zm1.3-36.2q0 0 0.1-0.1l4.8-2.8 4.1 2.4-4.9 2.9-4.1-2.4zm0.3 10.8q0 0 0 0l4.9-2.8 4.1 2.3-4.9 2.9-4.1-2.3zm1.6 9.7q0-0.1 0-0.1l4.9-2.8 4.1 2.4-4.9 2.9-4.1-2.4zm0.9 9.3q0-0.1 0-0.1l4.9-2.8 4.1 2.4-4.9 2.9-4.1-2.4zm2.7 10.3q0 0 0 0l4.8-2.8 4.1 2.3-4.8 2.9-4.1-2.3zm1.3-36.2q0-0.1 0-0.1l4.9-2.8 4.1 2.4-4.9 2.9-4.1-2.4zm0.2 10.8q0-0.1 0.1-0.1l4.8-2.8 4.1 2.4-4.9 2.9-4-2.4zm1.6 9.7q0 0 0-0.1l4.8-2.8 4.1 2.4-4.8 2.9-4.1-2.4zm0.9 9.3q0 0 0 0l4.8-2.8 4.1 2.3-4.8 2.9-4.1-2.3zm2.6 10.3q0-0.1 0.1-0.1l4.8-2.8 4.1 2.4-4.9 2.9-4.1-2.4zm1.4-36.2q0 0 0 0l4.8-2.8 4.2 2.3-4.9 2.9-4.1-2.3zm0.2 10.7q0 0 0 0l4.9-2.8 4.1 2.3-4.9 2.9-4.1-2.3zm0.8 35.5q0-0.1 0-0.1l4.8-2.8 5.2 3-4.9 2.9-5.1-3zm0.8-25.8q0 0 0.1-0.1l4.8-2.8 4.1 2.4-4.9 2.9-4.1-2.4zm0.9 9.3q0 0 0.1 0l4.8-2.8 4.1 2.3-4.9 2.9-4.1-2.3zm2.7 10.3q0-0.1 0-0.1l4.9-2.8 4.1 2.4-4.9 2.9-4.1-2.4zm1.3-36.2q0 0 0.1 0l4.8-2.8 4.1 2.3-4.9 2.9-4.1-2.3zm0.3 10.7q0 0 0 0l4.9-2.8 4.1 2.3-4.9 2.9-4.1-2.3zm1.6 9.7q0-0.1 0-0.1l4.9-2.8 4.1 2.4-4.9 2.9-4.1-2.4zm0.2 26.4q0 0 0 0l4.9-2.8 5.2 2.9-4.9 2.9-5.2-2.9zm0.7-17.2q0 0 0 0l4.9-2.8 4.1 2.3-4.9 2.9-4.1-2.3zm2.7 10.3q0-0.1 0-0.1l4.9-2.8 4.1 2.4-4.9 2.9-4.1-2.4zm1.5-25.4q0.1-0.1 0.1-0.1l4.8-2.8 4.1 2.4-4.8 2.9-4.1-2.4zm1.6 9.7q0 0 0 0l4.8-2.9 4.2 2.4-4.9 2.9-4.1-2.4zm0.9 9.3q0 0 0 0l4.9-2.8 4.1 2.3-4.9 2.9-4.1-2.3zm0.2-28.1q0-0.1 0-0.1l4.9-2.8 4.1 2.4-4.9 2.9-4.1-2.4zm0.2 45.9q0-0.1 0-0.1l4.8-2.8 5.2 3-4.9 2.9-5.1-3zm2.3-7.5q0 0 0 0l4.8-2.8 4.1 2.4-4.8 2.9-4.1-2.4zm1.5-25.4q0-0.1 0.1-0.1l4.8-2.8 4.1 2.4-4.9 2.9-4.1-2.4zm1.6 9.7q0 0 0.1-0.1l4.8-2.8 4.1 2.4-4.9 2.9-4.1-2.4zm0.9 9.3q0 0 0.1 0l4.8-2.8 4.1 2.3-4.9 2.9-4-2.3zm0.1-28.1q0.1-0.1 0.1-0.1l4.8-2.8 4.1 2.4-4.8 2.9-4.1-2.4zm1.2 46.5q0-0.1 0-0.1l4.9-2.8 6.6 3.8-4.9 2.9-6.6-3.8zm1.2-8.1q0 0 0.1 0l4.8-2.8 13 7.5-4.9 2.9-13-7.5zm1.6-25.4q0-0.1 0-0.1l4.9-2.8 4.1 2.4-4.9 2.9-4.1-2.4zm1.6 9.7q0 0 0.1-0.1l4.8-2.8 4.1 2.4-4.9 2.9-4.1-2.4zm0.9 9.3q0 0 0.1 0l4.8-2.8 4.1 2.3-4.9 2.9-4.1-2.3zm0.2-28.1q0-0.1 0.1-0.1l4.8-2.8 4.1 2.4-4.9 2.9-4.1-2.4zm4.1 13q0-0.1 0-0.1l4.9-2.8 4.1 2.4-4.9 2.9-4.1-2.4zm1.1 35.7q0 0 0 0l4.9-2.8 4.1 2.4-4.9 2.8-4.1-2.3zm0.5-26q0-0.1 0-0.1l4.9-2.8 4.1 2.4-4.9 2.9-4.1-2.4zm0.9 9.3q0-0.1 0-0.1l4.9-2.8 3.7 2.2c0.3 0.1 0.7 0.2 1.2 0.2 0.5 0 1-0.1 1.3-0.2l6.3-3.7 4.8 2.8-12.4 7.3-9.8-5.7zm0.2-28.1q0 0 0 0l4.9-2.8 4.1 2.3-4.9 2.9-4.1-2.3zm4 12.9q0 0 0.1 0l4.8-2.8 4.1 2.4-4.9 2.9-4.1-2.4zm1.1 35.7q0.1 0 0.1-0.1l4.8-2.8 4.1 2.4-4.9 2.9-4-2.4zm0.5-26q0 0 0 0l4.8-2.9 4.1 2.4-4.8 2.9-4.1-2.3zm4-17.1q0-0.1 0-0.1l4.9-2.8 4.1 2.4-4.9 2.9-4.1-2.4zm1.1 11.3q0-0.1 0-0.1l4.9-2.8 4.1 2.4-4.9 2.9-4.1-2.4zm1.1 35.7q0 0 0 0l4.9-2.8 4.1 2.3-4.9 2.9-4.1-2.3zm0.9-8.3q0-0.1 0-0.1l4.9-2.8 4.1 2.4-4.9 2.9-4.1-2.4zm3.6-34.8q0-0.1 0.1-0.1l4.8-2.8 4.1 2.4-4.9 2.9-4.1-2.4zm1.1 11.3q0.1-0.1 0.1-0.1l4.8-2.8 7.3 4.2-4.9 2.9-7.2-4.2zm2.5 36.6q0-0.1 0-0.1l4.9-2.8 10.8 6.2-4.9 2.9-10.8-6.2zm1.2-25.6q0-0.1 0-0.1l4.9-2.8 4.1 2.4-4.9 2.9-4.1-2.4zm1.9-18.3q0-0.1 0-0.1l4.9-2.8 4.1 2.4-4.9 2.9-4.1-2.4zm4.5 39.6q0-0.1 0-0.1l4.9-2.8 4.1 2.4-4.9 2.9-4.1-2.4zm0.3-17.3q0-0.1 0.1-0.1l4.8-2.8 4.1 2.4-4.9 2.9-4.1-2.4zm0.9-8.3q0 0 0 0l4.9-2.8 4.1 2.3-4.9 2.9-4.1-2.3zm1-10.1q0 0 0.1 0l4.8-2.8 4.1 2.3-4.9 2.9-4.1-2.3zm3.7 47.8q0-0.1 0-0.1l4.8-2.8 4.2 2.4-4.9 2.9-4.1-2.4zm0.8-8.3q0.1 0 0.1 0l4.8-2.8 4.1 2.3-4.8 2.9-4.1-2.3zm0.3-17.4q0 0 0 0l4.9-2.8 4.1 2.3-4.9 2.9-4.1-2.3zm0.5 9q0 0 0.1 0l4.8-2.8 4.1 2.4-4.9 2.8-4.1-2.3zm0.4-17.4q0 0 0 0l4.9-2.8 4.1 2.3-4.9 2.9-4.1-2.3zm2.5-9.2q0-0.1 0-0.1l4.9-2.8 4.1 2.4-4.9 2.9-4.1-2.4zm2.1 47q0-0.1 0.1-0.1l12.4-7.2 4.1 2.4-12.5 7.3-4.1-2.4zm0.9-8.3q0 0 0 0l4.9-2.8 4.1 2.3-4.9 2.9-4.1-2.3zm0.9-8.3q0 0 0-0.1l4.9-2.8 4.1 2.4-4.9 2.9-4.1-2.4zm0.3-17.3q0-0.1 0.1-0.1l4.8-2.8 4.1 2.4-4.9 2.9-4.1-2.4zm0.6 9.1q0 0 0-0.1l4.9-2.8 4.1 2.4-4.9 2.9-4.1-2.4zm2-18.2q0-0.1 0-0.1l4.8-2.8 4.1 2.4-4.8 2.9-4.1-2.4zm3.9 30.4q0 0 0 0l4.8-2.8 4.1 2.3-4.8 2.9-4.1-2.3zm0.8-8.3q0-0.1 0.1-0.1l4.8-2.8 4.1 2.4-4.9 2.9-4.1-2.4zm0.9-8.2q0-0.1 0.1-0.1l4.8-2.8 4.1 2.4-4.9 2.9-4.1-2.4zm1.1-10q0-0.1 0.1-0.1l4.8-2.8 4.1 2.4-4.9 2.9-4.1-2.4zm3.9 30.4q0 0 0 0l12.5-7.2 4.1 2.4-12.5 7.3-4.1-2.4zm0.9-8.3q0 0 0 0l4.9-2.8 4.1 2.3-4.9 2.9-4.1-2.3zm0.9-8.3q0-0.1 0-0.1l4.9-2.8 4.1 2.4-4.9 2.9-4.1-2.4zm4.4-10.3q0-0.1 0.1-0.1l2-1.2 4.1 2.4-2.1 1.3-4.1-2.4zm2.3 14.2q0 0 0.1 0l4.8-2.8 4.1 2.3-4.9 2.9-4.1-2.3zm4.5-10.4q0 0 0 0l2.1-1.2 4.1 2.3-2.1 1.3-4.1-2.3zm2.3 14.2q0-0.1 0-0.1l4.8-2.8 4.1 2.4-4.8 2.9-4.1-2.4zm4.4-10.3q0-0.1 0.1-0.1l2-1.2 4.1 2.4-2.1 1.3-4.1-2.4zm6.7 3.9q0.1 0 0.1 0l2-1.3 4.1 2.4-2.1 1.3-4-2.3z"/><path class="i" d="m771.2 470.3l45.9-26.5-229.6-132.5-45.9 26.5z"/><path class="b" d="m641.2 427.2l-32.8-19c-3.4-1.9-5.1-4.5-5.1-7 0-2.6 0-4.6 0-4.6l30.9-17.5c1.8-1 3.2-3.6 3.2-5.6v-40.4l57.3 33v40.4c0 2.1-1.5 4.7-3.3 5.7l-25.7 15c-6.8 3.9-17.8 3.9-24.5 0z"/><path class="k" d="m680.9 413.7v4.5l10.5-6c1.8-1 3.3-3.6 3.3-5.7v-40.4l-10.9-6.3c-0.2 2.8-0.5 5.7-0.7 8.5l7.6 4.4v31.6c0 2.1-1.4 4.6-3.2 5.6z"/><path class="a" d="m690.7 404.3c0 2.1-1.4 4.6-3.2 5.6l-21.8 12.7c-6.8 3.9-17.8 3.9-24.5 0l-32.8-18.9c-6.8-3.9-6.8-10.2 0-14.1l21.8-12.8c1.8-1 3.3-3.5 3.3-5.6v-31.6l57.2 33.1z"/><path class="l" d="m623.6 380.7l6.6-3.9c1.8-1 3.3-3.5 3.3-5.6v-31.6l57.2 33.1v31.6c0 2.1-1.4 4.6-3.2 5.6l-6.6 3.8z"/><path class="l" d="m603.3 396.6c0 0 0 2 0 4.6 0 2.5 1.7 5.1 5.1 7l32.8 19c3.2 1.9 7.4 2.8 11.7 2.9v-4.6c-4.3 0-8.5-1-11.7-2.9l-32.8-18.9c-3.4-2-5.1-4.5-5.1-7.1z"/><path class="d" d="m782.6 447.9c-2.1 1.2-5.6 1.1-7.9-0.2-28.1-16.2-193.2-111.5-221.3-127.8-2.3-1.3-4.1-4.5-4.1-7.1v-193.7c0-2.6 1.7-5.7 3.8-6.9 2.1-1.3 5.7-1.2 7.9 0.1l221.4 127.8c2.2 1.3 4.1 4.5 4.1 7.1v193.7c0 2.6-1.7 5.7-3.9 7z"/><path class="c" d="m774.7 447.7l-221.3-127.8c-2.3-1.3-4.1-4.5-4.1-7.1v-193.7c0-2.6 1.8-3.7 4.1-2.4l221.3 127.8c2.3 1.3 4.1 4.5 4.1 7.1v193.8c0 2.6-1.8 3.6-4.1 2.3z"/><path class="k" d="m775.3 448.5c2.3 1 5.4 1 7.3-0.1 2.2-1.3 3.9-4.3 3.9-7v-21.8l-7.7 4.5v21.8c0 2.3-1.5 3.4-3.5 2.6z"/><path class="m" d="m778.8 424.1v21.8c0 2.6-1.8 3.6-4.1 2.3l-221.3-127.8c-2.3-1.3-4.1-4.5-4.1-7.1v-21.8z"/><path class="e" d="m771.2 407.5v-153.4c0-1.5-1.1-3.4-2.5-4.2l-209.3-120.9c-1.4-0.7-2.5-0.1-2.5 1.4v153.4c0 1.6 1.1 3.5 2.5 4.2l209.3 120.9c1.4 0.8 2.5 0.1 2.5-1.4z"/><path class="n" d="m771.2 407.5v-153.4c0-1.5-1.1-3.4-2.5-4.2l-209.3-120.9c-1.4-0.7-2.5-0.1-2.5 1.4v153.4c0 1.6 1.1 3.5 2.5 4.2l209.3 120.9c1.4 0.8 2.5 0.1 2.5-1.4z"/><path class="d" d="m664.1 366.1c2.1 1.3 3.8 4.2 3.8 6.7 0 2.4-1.7 3.4-3.8 2.2-2.2-1.2-3.9-4.2-3.9-6.7 0-2.4 1.7-3.4 3.9-2.2z"/><path class="j" d="m777.6 247.6c0.7 1.2 1.2 2.7 1.2 4v172.5l7.7-4.5v-172.4c0-1.3-0.5-2.8-1.2-4.1z"/><path class="d" d="m585.5 79.1q0-0.2 0.1-0.4 0 0 0-0.1 0-0.2 0.1-0.3 0-0.3 0.2-0.5 0-0.1 0.1-0.2 0.1-0.1 0.1-0.2 0.2-0.1 0.3-0.2 0 0 0 0 0.2-0.2 0.4-0.2c0.7-0.4 1.6-0.3 2.6 0.3l258.3 149.1c2.2 1.2 3.9 4.3 3.9 6.8v186.9q0 0.1 0 0.1v0.8c0 1.1-0.6 1.9-1.4 2.4q-0.1 0-0.1 0.1-0.1 0-0.2 0.1-0.2 0.1-0.4 0.1-0.2 0.1-0.5 0.1-0.6 0-1.3-0.4l-0.1-0.1q0 0 0 0l-3.7-2.1-254.5-147c-2.2-1.2-3.9-4.2-3.9-6.7v-187.9q0-0.3 0-0.5z"/><path class="e" d="m586.8 77c0.7-0.4 1.6-0.3 2.6 0.3l258.3 149.1c2.2 1.2 3.9 4.3 3.9 6.8v12.7l5-2.9v-12.7c0-2.5-1.7-5.5-3.9-6.7l-258.3-149.1c-1.1-0.7-2.1-0.7-2.9-0.3-0.7 0.5-3.9 2.3-4.7 2.8z"/><path class="e" d="m585.5 79.5c0-2.4 1.7-3.4 3.9-2.2l258.3 149.1c2.2 1.2 3.9 4.3 3.9 6.8v12.7l-266.1-153.6z"/><g style="opacity:.5"><path class="m" d="m589.4 77.3l258.3 149.1c1.1 0.6 2.1 1.7 2.8 2.9l4.9-2.9c-0.7-1.2-1.6-2.2-2.7-2.8l-258.3-149.1c-1.1-0.7-2.1-0.7-2.9-0.3-0.7 0.5-3.9 2.3-4.7 2.8 0.7-0.4 1.6-0.3 2.6 0.3z"/></g><path class="i" d="m856.6 243v-12.7c0-1.2-0.4-2.6-1.2-3.9l-4.9 2.9c0.7 1.2 1.1 2.6 1.1 3.9v12.7z"/><path class="d" d="m842.8 229.1c1.3 0.7 2.2 2.8 2.2 4.7 0 1.8-0.9 2.8-2.2 2.1-1.2-0.7-2.2-2.8-2.2-4.7 0-1.9 1-2.8 2.2-2.1z"/><path class="d" d="m834.9 224.5c1.2 0.7 2.2 2.8 2.2 4.7 0 1.8-1 2.8-2.2 2.1-1.2-0.7-2.2-2.8-2.2-4.7 0-1.9 1-2.8 2.2-2.1z"/><path class="d" d="m827 219.9c1.2 0.7 2.2 2.8 2.2 4.7 0 1.8-1 2.8-2.2 2.1-1.3-0.7-2.2-2.8-2.2-4.7 0-1.8 0.9-2.8 2.2-2.1z"/><path class="o" d="m850.2 423.4l0.2-0.1 4.2-2.4c1.1-0.6 1.8-1.8 2-3q0-0.3 0-0.6v-174.3l-5 2.9v175.1c0 1-0.5 1.8-1.2 2.2q0 0.1-0.1 0.1 0 0 0 0z"/><path class="e" d="m664.6 158.9l54.5 31.4c0.8 0.4 1.4 1.4 1.4 2.3 0 0.8-0.6 1.1-1.4 0.7l-54.5-31.4c-0.7-0.5-1.4-1.5-1.4-2.3 0-0.9 0.7-1.2 1.4-0.7z"/><path class="b" d="m685.4 219l20.7 11.8c0.7 0.5 1.4 1.5 1.4 2.3 0 0.9-0.7 1.2-1.4 0.7l-20.7-11.8c-0.7-0.5-1.4-1.5-1.4-2.3 0-0.9 0.7-1.2 1.4-0.7z"/><path class="b" d="m685.4 231l20.7 11.8c0.7 0.5 1.4 1.5 1.4 2.4 0 0.8-0.7 1.1-1.4 0.7l-20.7-11.9c-0.7-0.5-1.4-1.5-1.4-2.3 0-0.9 0.7-1.2 1.4-0.7z"/><path class="e" d="m724.5 193.4l109 62.8c0.8 0.4 1.4 1.4 1.4 2.3 0 0.8-0.6 1.1-1.4 0.7l-109-62.8c-0.8-0.5-1.4-1.5-1.4-2.3 0-0.9 0.6-1.2 1.4-0.7z"/><path class="e" d="m685.9 303.2l33.2 19.2c0.8 0.5 1.4 1.5 1.4 2.3 0 0.9-0.6 1.2-1.4 0.7l-33.2-19.2c-0.8-0.4-1.4-1.4-1.4-2.3 0-0.8 0.6-1.1 1.4-0.7z"/><path class="e" d="m724.5 325.5l109 62.9c0.8 0.5 1.4 1.5 1.4 2.3 0 0.9-0.6 1.2-1.4 0.7l-109-62.9c-0.8-0.4-1.4-1.4-1.4-2.3 0-0.8 0.6-1.1 1.4-0.7z"/><path class="e" d="m664.6 170.9l27.5 15.8c0.7 0.4 1.3 1.5 1.3 2.3 0 0.8-0.6 1.1-1.3 0.7l-27.5-15.8c-0.7-0.4-1.4-1.4-1.4-2.3 0-0.8 0.7-1.1 1.4-0.7z"/><path class="p" d="m664.6 170.9l27.5 15.8c0.7 0.4 1.3 1.5 1.3 2.3 0 0.8-0.6 1.1-1.3 0.7l-27.5-15.8c-0.7-0.4-1.4-1.4-1.4-2.3 0-0.8 0.7-1.1 1.4-0.7z"/><path class="e" d="m664.6 182.9l12.9 7.4c0.7 0.5 1.3 1.5 1.3 2.3 0 0.8-0.6 1.2-1.3 0.7l-12.9-7.4c-0.7-0.4-1.4-1.5-1.4-2.3 0-0.8 0.7-1.1 1.4-0.7z"/><path class="p" d="m664.6 182.9l12.9 7.4c0.7 0.5 1.3 1.5 1.3 2.3 0 0.8-0.6 1.2-1.3 0.7l-12.9-7.4c-0.7-0.4-1.4-1.5-1.4-2.3 0-0.8 0.7-1.1 1.4-0.7z"/><path class="e" d="m664.6 206.9l12.9 7.4c0.7 0.5 1.3 1.5 1.3 2.4 0 0.8-0.6 1.1-1.3 0.7l-12.9-7.4c-0.7-0.5-1.4-1.5-1.4-2.4 0-0.8 0.7-1.1 1.4-0.7z"/><path class="p" d="m664.6 206.9l12.9 7.4c0.7 0.5 1.3 1.5 1.3 2.4 0 0.8-0.6 1.1-1.3 0.7l-12.9-7.4c-0.7-0.5-1.4-1.5-1.4-2.4 0-0.8 0.7-1.1 1.4-0.7z"/><path class="e" d="m664.6 219l12.9 7.4c0.7 0.4 1.3 1.4 1.3 2.3 0 0.8-0.6 1.1-1.3 0.7l-12.9-7.4c-0.7-0.5-1.4-1.5-1.4-2.3 0-0.9 0.7-1.2 1.4-0.7z"/><path class="p" d="m664.6 219l12.9 7.4c0.7 0.4 1.3 1.4 1.3 2.3 0 0.8-0.6 1.1-1.3 0.7l-12.9-7.4c-0.7-0.5-1.4-1.5-1.4-2.3 0-0.9 0.7-1.2 1.4-0.7z"/><path class="e" d="m697.4 189.8l16.5 9.5c0.8 0.5 1.4 1.5 1.4 2.3 0 0.9-0.6 1.2-1.4 0.7l-16.5-9.5c-0.7-0.5-1.4-1.5-1.4-2.3 0-0.8 0.7-1.2 1.4-0.7z"/><path class="p" d="m697.4 189.8l16.5 9.5c0.8 0.5 1.4 1.5 1.4 2.3 0 0.9-0.6 1.2-1.4 0.7l-16.5-9.5c-0.7-0.5-1.4-1.5-1.4-2.3 0-0.8 0.7-1.2 1.4-0.7z"/><path class="m" d="m722.9 276.7l110.6 63.7c0.8 0.4 1.4 1.4 1.4 2.3 0 0.8-0.6 1.1-1.4 0.7l-110.6-63.7c-0.8-0.5-1.4-1.5-1.4-2.3 0-0.9 0.6-1.2 1.4-0.7z"/><path class="m" d="m817.1 318.8l16.4 9.5c0.8 0.5 1.4 1.5 1.4 2.3 0 0.9-0.6 1.2-1.4 0.7l-16.4-9.5c-0.8-0.4-1.4-1.5-1.4-2.3 0-0.8 0.6-1.2 1.4-0.7z"/><path class="m" d="m701 252l110.7 63.7c0.7 0.4 1.4 1.5 1.4 2.3 0 0.8-0.7 1.1-1.4 0.7l-110.7-63.7c-0.7-0.4-1.3-1.5-1.3-2.3 0-0.8 0.6-1.2 1.3-0.7z"/><path class="e" d="m685.4 194.9l27.5 15.8c0.7 0.4 1.4 1.5 1.4 2.3 0 0.8-0.7 1.1-1.4 0.7l-27.5-15.8c-0.7-0.4-1.4-1.4-1.4-2.3 0-0.8 0.7-1.1 1.4-0.7z"/><path class="p" d="m685.4 194.9l27.5 15.8c0.7 0.4 1.4 1.5 1.4 2.3 0 0.8-0.7 1.1-1.4 0.7l-27.5-15.8c-0.7-0.4-1.4-1.4-1.4-2.3 0-0.8 0.7-1.1 1.4-0.7z"/><path class="e" d="m718.2 213.8l114.5 66.2c0.8 0.5 1.4 1.5 1.4 2.3 0 0.8-0.6 1.2-1.4 0.7l-114.5-66.2c-0.7-0.4-1.3-1.5-1.3-2.3 0-0.8 0.6-1.1 1.3-0.7z"/><path class="p" d="m718.2 213.8l114.5 66.2c0.8 0.5 1.4 1.5 1.4 2.3 0 0.8-0.6 1.2-1.4 0.7l-114.5-66.2c-0.7-0.4-1.3-1.5-1.3-2.3 0-0.8 0.6-1.1 1.3-0.7z"/><path class="b" d="m685.4 267.3l148.1 85.4c0.8 0.4 1.4 1.4 1.4 2.3 0 0.8-0.6 1.1-1.4 0.7l-148.1-85.4c-0.7-0.5-1.4-1.5-1.4-2.3 0-0.9 0.7-1.2 1.4-0.7z"/><path class="e" d="m664.6 255.3l12.9 7.4c0.7 0.4 1.3 1.4 1.3 2.3 0 0.8-0.6 1.1-1.3 0.7l-12.9-7.4c-0.7-0.5-1.4-1.5-1.4-2.3 0-0.9 0.7-1.2 1.4-0.7z"/><path class="p" d="m664.6 255.3l12.9 7.4c0.7 0.4 1.3 1.4 1.3 2.3 0 0.8-0.6 1.1-1.3 0.7l-12.9-7.4c-0.7-0.5-1.4-1.5-1.4-2.3 0-0.9 0.7-1.2 1.4-0.7z"/><path class="b" d="m685.4 279.3l148.1 85.4c0.8 0.4 1.4 1.5 1.4 2.3 0 0.8-0.6 1.1-1.4 0.7l-148.1-85.4c-0.7-0.5-1.4-1.5-1.4-2.3 0-0.8 0.7-1.2 1.4-0.7z"/><path class="e" d="m664.6 267.3l12.9 7.4c0.7 0.4 1.3 1.4 1.3 2.3 0 0.8-0.6 1.1-1.3 0.7l-12.9-7.4c-0.7-0.5-1.4-1.5-1.4-2.3 0-0.9 0.7-1.2 1.4-0.7z"/><path class="p" d="m664.6 267.3l12.9 7.4c0.7 0.4 1.3 1.4 1.3 2.3 0 0.8-0.6 1.1-1.3 0.7l-12.9-7.4c-0.7-0.5-1.4-1.5-1.4-2.3 0-0.9 0.7-1.2 1.4-0.7z"/><path class="b" d="m685.4 291.3l148.1 85.4c0.8 0.4 1.4 1.5 1.4 2.3 0 0.8-0.6 1.1-1.4 0.7l-148.1-85.4c-0.7-0.4-1.4-1.5-1.4-2.3 0-0.8 0.7-1.1 1.4-0.7z"/><path class="e" d="m664.6 279.3l12.9 7.4c0.7 0.4 1.3 1.5 1.3 2.3 0 0.8-0.6 1.1-1.3 0.7l-12.9-7.4c-0.7-0.5-1.4-1.5-1.4-2.3 0-0.8 0.7-1.2 1.4-0.7z"/><path class="p" d="m664.6 279.3l12.9 7.4c0.7 0.4 1.3 1.5 1.3 2.3 0 0.8-0.6 1.1-1.3 0.7l-12.9-7.4c-0.7-0.5-1.4-1.5-1.4-2.3 0-0.8 0.7-1.2 1.4-0.7z"/><g style="opacity:.6"><path class="m" d="m644.6 146.8l7.6 4.4c0.7 0.4 1.3 1.5 1.3 2.4v2.7c0 0.9-0.6 1.3-1.3 0.8l-7.6-4.3c-0.7-0.5-1.4-1.5-1.4-2.4v-2.8c0-0.9 0.7-1.2 1.4-0.8z"/><path class="m" d="m644.6 159l7.6 4.3c0.7 0.5 1.3 1.5 1.3 2.4v2.8c0 0.8-0.6 1.2-1.3 0.8l-7.6-4.4c-0.7-0.4-1.4-1.5-1.4-2.4v-2.8c0-0.8 0.7-1.2 1.4-0.7z"/><path class="m" d="m644.6 171.1l7.6 4.3c0.7 0.5 1.3 1.5 1.3 2.4v2.8c0 0.9-0.6 1.2-1.3 0.8l-7.6-4.4c-0.7-0.4-1.4-1.5-1.4-2.3v-2.8c0-0.9 0.7-1.2 1.4-0.8z"/><path class="m" d="m644.6 183.2l7.6 4.4c0.7 0.4 1.3 1.5 1.3 2.3v2.8c0 0.9-0.6 1.2-1.3 0.8l-7.6-4.3c-0.7-0.5-1.4-1.5-1.4-2.4v-2.8c0-0.9 0.7-1.2 1.4-0.8z"/><path class="m" d="m644.6 195.3l7.6 4.4c0.7 0.4 1.3 1.5 1.3 2.4v2.7c0 0.9-0.6 1.3-1.3 0.8l-7.6-4.3c-0.7-0.5-1.4-1.5-1.4-2.4v-2.8c0-0.8 0.7-1.2 1.4-0.8z"/><path class="m" d="m644.6 207.5l7.6 4.3c0.7 0.5 1.3 1.5 1.3 2.4v2.8c0 0.9-0.6 1.2-1.3 0.8l-7.6-4.4c-0.7-0.4-1.4-1.5-1.4-2.4v-2.7c0-0.9 0.7-1.3 1.4-0.8z"/><path class="m" d="m644.6 219.6l7.6 4.4c0.7 0.4 1.3 1.5 1.3 2.3v2.8c0 0.9-0.6 1.2-1.3 0.8l-7.6-4.4c-0.7-0.4-1.4-1.5-1.4-2.3v-2.8c0-0.9 0.7-1.2 1.4-0.8z"/><path class="m" d="m644.6 231.7l7.6 4.4c0.7 0.4 1.3 1.5 1.3 2.4v2.7c0 0.9-0.6 1.3-1.3 0.8l-7.6-4.3c-0.7-0.5-1.4-1.5-1.4-2.4v-2.8c0-0.8 0.7-1.2 1.4-0.8z"/><path class="m" d="m644.6 243.9l7.6 4.3c0.7 0.5 1.3 1.5 1.3 2.4v2.8c0 0.8-0.6 1.2-1.3 0.8l-7.6-4.4c-0.7-0.4-1.4-1.5-1.4-2.4v-2.7c0-0.9 0.7-1.3 1.4-0.8z"/><path class="m" d="m644.6 256l7.6 4.3c0.7 0.5 1.3 1.5 1.3 2.4v2.8c0 0.9-0.6 1.2-1.3 0.8l-7.6-4.4c-0.7-0.4-1.4-1.5-1.4-2.3v-2.8c0-0.9 0.7-1.2 1.4-0.8z"/><path class="m" d="m644.6 268.1l7.6 4.4c0.7 0.4 1.3 1.5 1.3 2.4v2.7c0 0.9-0.6 1.3-1.3 0.8l-7.6-4.3c-0.7-0.5-1.4-1.5-1.4-2.4v-2.8c0-0.9 0.7-1.2 1.4-0.8z"/><path class="m" d="m644.6 280.3l7.6 4.3c0.7 0.4 1.3 1.5 1.3 2.4v2.8c0 0.8-0.6 1.2-1.3 0.7l-7.6-4.3c-0.7-0.4-1.4-1.5-1.4-2.4v-2.8c0-0.8 0.7-1.2 1.4-0.7z"/></g><path class="c" d="m594.6 107.4l40.8 23.6c1.5 0.9 2.7 3 2.7 4.7v47.1c0 1.8-1.2 2.5-2.7 1.6l-40.8-23.5c-1.6-0.9-2.8-3-2.8-4.8v-47.1c0-1.7 1.2-2.4 2.8-1.6z"/><path class="e" d="m598.3 154.1l3.8 2.2c0.8 0.4 1.4 1.5 1.4 2.3 0 0.8-0.6 1.1-1.4 0.7l-3.8-2.2c-0.7-0.4-1.3-1.4-1.3-2.3 0-0.8 0.6-1.1 1.3-0.7z"/><path class="p" d="m598.3 154.1l3.8 2.2c0.8 0.4 1.4 1.5 1.4 2.3 0 0.8-0.6 1.1-1.4 0.7l-3.8-2.2c-0.7-0.4-1.3-1.4-1.3-2.3 0-0.8 0.6-1.1 1.3-0.7z"/><path class="e" d="m598.3 115.5l3.8 2.2c0.8 0.5 1.4 1.5 1.4 2.3 0 0.9-0.6 1.2-1.4 0.7l-3.8-2.1c-0.7-0.5-1.3-1.5-1.3-2.4 0-0.8 0.6-1.1 1.3-0.7z"/><path class="p" d="m598.3 115.5l3.8 2.2c0.8 0.5 1.4 1.5 1.4 2.3 0 0.9-0.6 1.2-1.4 0.7l-3.8-2.1c-0.7-0.5-1.3-1.5-1.3-2.4 0-0.8 0.6-1.1 1.3-0.7z"/><path class="e" d="m603.6 126.3l3.8 2.2c0.7 0.4 1.4 1.4 1.4 2.3 0 0.8-0.7 1.1-1.4 0.7l-3.8-2.2c-0.7-0.4-1.4-1.5-1.4-2.3 0-0.8 0.7-1.1 1.4-0.7z"/><path class="p" d="m603.6 126.3l3.8 2.2c0.7 0.4 1.4 1.4 1.4 2.3 0 0.8-0.7 1.1-1.4 0.7l-3.8-2.2c-0.7-0.4-1.4-1.5-1.4-2.3 0-0.8 0.7-1.1 1.4-0.7z"/><path class="e" d="m603.6 134l3.8 2.2c0.7 0.4 1.4 1.4 1.4 2.3 0 0.8-0.7 1.1-1.4 0.7l-3.8-2.2c-0.7-0.4-1.4-1.5-1.4-2.3 0-0.8 0.7-1.2 1.4-0.7z"/><path class="p" d="m603.6 134l3.8 2.2c0.7 0.4 1.4 1.4 1.4 2.3 0 0.8-0.7 1.1-1.4 0.7l-3.8-2.2c-0.7-0.4-1.4-1.5-1.4-2.3 0-0.8 0.7-1.2 1.4-0.7z"/><path class="e" d="m598.3 138.7l3.8 2.2c0.8 0.4 1.4 1.4 1.4 2.3 0 0.8-0.6 1.1-1.4 0.7l-3.8-2.2c-0.7-0.4-1.3-1.5-1.3-2.3 0-0.8 0.6-1.2 1.3-0.7z"/><path class="p" d="m598.3 138.7l3.8 2.2c0.8 0.4 1.4 1.4 1.4 2.3 0 0.8-0.6 1.1-1.4 0.7l-3.8-2.2c-0.7-0.4-1.3-1.5-1.3-2.3 0-0.8 0.6-1.2 1.3-0.7z"/><path class="e" d="m603.6 149.4l3.8 2.2c0.7 0.5 1.4 1.5 1.4 2.3 0 0.8-0.7 1.2-1.4 0.7l-3.8-2.2c-0.7-0.4-1.4-1.4-1.4-2.3 0-0.8 0.7-1.1 1.4-0.7z"/><path class="p" d="m603.6 149.4l3.8 2.2c0.7 0.5 1.4 1.5 1.4 2.3 0 0.8-0.7 1.2-1.4 0.7l-3.8-2.2c-0.7-0.4-1.4-1.4-1.4-2.3 0-0.8 0.7-1.1 1.4-0.7z"/><path class="e" d="m608.6 121.5l23 13.2c0.7 0.5 1.4 1.5 1.4 2.3 0 0.9-0.7 1.2-1.4 0.7l-23-13.2c-0.7-0.4-1.4-1.5-1.4-2.3 0-0.8 0.7-1.2 1.4-0.7z"/><path class="q" d="m608.6 121.5l23 13.2c0.7 0.5 1.4 1.5 1.4 2.3 0 0.9-0.7 1.2-1.4 0.7l-23-13.2c-0.7-0.4-1.4-1.5-1.4-2.3 0-0.8 0.7-1.2 1.4-0.7z"/><path class="e" d="m608.6 160.1l23 13.2c0.7 0.5 1.4 1.5 1.4 2.3 0 0.8-0.7 1.2-1.4 0.7l-23-13.2c-0.7-0.5-1.4-1.5-1.4-2.3 0-0.9 0.7-1.2 1.4-0.7z"/><path class="q" d="m608.6 160.1l23 13.2c0.7 0.5 1.4 1.5 1.4 2.3 0 0.8-0.7 1.2-1.4 0.7l-23-13.2c-0.7-0.5-1.4-1.5-1.4-2.3 0-0.9 0.7-1.2 1.4-0.7z"/><path class="e" d="m613.9 132.2l17.7 10.2c0.7 0.5 1.4 1.5 1.4 2.4 0 0.8-0.7 1.1-1.4 0.7l-17.7-10.3c-0.8-0.4-1.4-1.4-1.4-2.3 0-0.8 0.6-1.1 1.4-0.7z"/><path class="q" d="m613.9 132.2l17.7 10.2c0.7 0.5 1.4 1.5 1.4 2.4 0 0.8-0.7 1.1-1.4 0.7l-17.7-10.3c-0.8-0.4-1.4-1.4-1.4-2.3 0-0.8 0.6-1.1 1.4-0.7z"/><path class="e" d="m613.9 139.9l17.7 10.3c0.7 0.4 1.4 1.4 1.4 2.3 0 0.8-0.7 1.1-1.4 0.7l-17.7-10.2c-0.8-0.5-1.4-1.5-1.4-2.3 0-0.9 0.6-1.2 1.4-0.8z"/><path class="q" d="m613.9 139.9l17.7 10.3c0.7 0.4 1.4 1.4 1.4 2.3 0 0.8-0.7 1.1-1.4 0.7l-17.7-10.2c-0.8-0.5-1.4-1.5-1.4-2.3 0-0.9 0.6-1.2 1.4-0.8z"/><path class="e" d="m608.6 144.6l23 13.3c0.7 0.4 1.4 1.5 1.4 2.3 0 0.8-0.7 1.1-1.4 0.7l-23-13.3c-0.7-0.4-1.4-1.4-1.4-2.3 0-0.8 0.7-1.1 1.4-0.7z"/><path class="q" d="m608.6 144.6l23 13.3c0.7 0.4 1.4 1.5 1.4 2.3 0 0.8-0.7 1.1-1.4 0.7l-23-13.3c-0.7-0.4-1.4-1.4-1.4-2.3 0-0.8 0.7-1.1 1.4-0.7z"/><path class="e" d="m613.9 155.4l17.7 10.2c0.7 0.4 1.4 1.5 1.4 2.3 0 0.8-0.7 1.1-1.4 0.7l-17.7-10.2c-0.8-0.5-1.4-1.5-1.4-2.3 0-0.8 0.6-1.2 1.4-0.7z"/><path class="q" d="m613.9 155.4l17.7 10.2c0.7 0.4 1.4 1.5 1.4 2.3 0 0.8-0.7 1.1-1.4 0.7l-17.7-10.2c-0.8-0.5-1.4-1.5-1.4-2.3 0-0.8 0.6-1.2 1.4-0.7z"/><path class="c" d="m594.6 169.7l40.8 23.6c1.5 0.9 2.7 3 2.7 4.7v93.1c0 1.8-1.2 2.5-2.7 1.6l-40.8-23.6c-1.6-0.8-2.8-3-2.8-4.7v-93.1c0-1.7 1.2-2.4 2.8-1.6z"/><path class="e" d="m598.3 177.8l3.8 2.2c0.8 0.5 1.4 1.5 1.4 2.3 0 0.9-0.6 1.2-1.4 0.7l-3.8-2.1c-0.7-0.5-1.3-1.5-1.3-2.3 0-0.9 0.6-1.2 1.3-0.8z"/><path class="p" d="m598.3 177.8l3.8 2.2c0.8 0.5 1.4 1.5 1.4 2.3 0 0.9-0.6 1.2-1.4 0.7l-3.8-2.1c-0.7-0.5-1.3-1.5-1.3-2.3 0-0.9 0.6-1.2 1.3-0.8z"/><path class="e" d="m603.6 188.6l3.8 2.2c0.7 0.4 1.4 1.4 1.4 2.3 0 0.8-0.7 1.1-1.4 0.7l-3.8-2.2c-0.7-0.4-1.4-1.5-1.4-2.3 0-0.8 0.7-1.1 1.4-0.7z"/><path class="p" d="m603.6 188.6l3.8 2.2c0.7 0.4 1.4 1.4 1.4 2.3 0 0.8-0.7 1.1-1.4 0.7l-3.8-2.2c-0.7-0.4-1.4-1.5-1.4-2.3 0-0.8 0.7-1.1 1.4-0.7z"/><path class="e" d="m603.6 196.3l3.8 2.2c0.7 0.4 1.4 1.4 1.4 2.3 0 0.8-0.7 1.1-1.4 0.7l-3.8-2.2c-0.7-0.4-1.4-1.5-1.4-2.3 0-0.8 0.7-1.2 1.4-0.7z"/><path class="p" d="m603.6 196.3l3.8 2.2c0.7 0.4 1.4 1.4 1.4 2.3 0 0.8-0.7 1.1-1.4 0.7l-3.8-2.2c-0.7-0.4-1.4-1.5-1.4-2.3 0-0.8 0.7-1.2 1.4-0.7z"/><path class="e" d="m598.3 201l3.8 2.2c0.8 0.4 1.4 1.4 1.4 2.3 0 0.8-0.6 1.1-1.4 0.7l-3.8-2.2c-0.7-0.4-1.3-1.5-1.3-2.3 0-0.8 0.6-1.2 1.3-0.7z"/><path class="p" d="m598.3 201l3.8 2.2c0.8 0.4 1.4 1.4 1.4 2.3 0 0.8-0.6 1.1-1.4 0.7l-3.8-2.2c-0.7-0.4-1.3-1.5-1.3-2.3 0-0.8 0.6-1.2 1.3-0.7z"/><path class="e" d="m608.6 183.8l23 13.2c0.7 0.5 1.4 1.5 1.4 2.3 0 0.9-0.7 1.2-1.4 0.7l-23-13.2c-0.7-0.4-1.4-1.5-1.4-2.3 0-0.8 0.7-1.2 1.4-0.7z"/><path class="q" d="m608.6 183.8l23 13.2c0.7 0.5 1.4 1.5 1.4 2.3 0 0.9-0.7 1.2-1.4 0.7l-23-13.2c-0.7-0.4-1.4-1.5-1.4-2.3 0-0.8 0.7-1.2 1.4-0.7z"/><path class="e" d="m613.9 194.5l17.7 10.3c0.7 0.4 1.4 1.4 1.4 2.3 0 0.8-0.7 1.1-1.4 0.7l-17.7-10.3c-0.8-0.4-1.4-1.4-1.4-2.3 0-0.8 0.6-1.1 1.4-0.7z"/><path class="q" d="m613.9 194.5l17.7 10.3c0.7 0.4 1.4 1.4 1.4 2.3 0 0.8-0.7 1.1-1.4 0.7l-17.7-10.3c-0.8-0.4-1.4-1.4-1.4-2.3 0-0.8 0.6-1.1 1.4-0.7z"/><path class="e" d="m613.9 202.3l17.7 10.2c0.7 0.4 1.4 1.4 1.4 2.3 0 0.8-0.7 1.1-1.4 0.7l-17.7-10.2c-0.8-0.5-1.4-1.5-1.4-2.3 0-0.9 0.6-1.2 1.4-0.7z"/><path class="q" d="m613.9 202.3l17.7 10.2c0.7 0.4 1.4 1.4 1.4 2.3 0 0.8-0.7 1.1-1.4 0.7l-17.7-10.2c-0.8-0.5-1.4-1.5-1.4-2.3 0-0.9 0.6-1.2 1.4-0.7z"/><path class="e" d="m608.6 206.9l23 13.3c0.7 0.4 1.4 1.5 1.4 2.3 0 0.8-0.7 1.1-1.4 0.7l-23-13.3c-0.7-0.4-1.4-1.4-1.4-2.3 0-0.8 0.7-1.1 1.4-0.7z"/><path class="q" d="m608.6 206.9l23 13.3c0.7 0.4 1.4 1.5 1.4 2.3 0 0.8-0.7 1.1-1.4 0.7l-23-13.3c-0.7-0.4-1.4-1.4-1.4-2.3 0-0.8 0.7-1.1 1.4-0.7z"/><path class="e" d="m603.6 211.8l3.8 2.2c0.7 0.4 1.4 1.4 1.4 2.3 0 0.8-0.7 1.1-1.4 0.7l-3.8-2.2c-0.7-0.4-1.4-1.5-1.4-2.3 0-0.8 0.7-1.2 1.4-0.7z"/><path class="p" d="m603.6 211.8l3.8 2.2c0.7 0.4 1.4 1.4 1.4 2.3 0 0.8-0.7 1.1-1.4 0.7l-3.8-2.2c-0.7-0.4-1.4-1.5-1.4-2.3 0-0.8 0.7-1.2 1.4-0.7z"/><path class="e" d="m603.6 219.5l3.8 2.2c0.7 0.4 1.4 1.4 1.4 2.3 0 0.8-0.7 1.1-1.4 0.7l-3.8-2.2c-0.7-0.5-1.4-1.5-1.4-2.3 0-0.8 0.7-1.2 1.4-0.7z"/><path class="p" d="m603.6 219.5l3.8 2.2c0.7 0.4 1.4 1.4 1.4 2.3 0 0.8-0.7 1.1-1.4 0.7l-3.8-2.2c-0.7-0.5-1.4-1.5-1.4-2.3 0-0.8 0.7-1.2 1.4-0.7z"/><path class="e" d="m613.9 217.7l17.7 10.2c0.7 0.5 1.4 1.5 1.4 2.3 0 0.9-0.7 1.2-1.4 0.7l-17.7-10.2c-0.8-0.4-1.4-1.4-1.4-2.3 0-0.8 0.6-1.1 1.4-0.7z"/><path class="q" d="m613.9 217.7l17.7 10.2c0.7 0.5 1.4 1.5 1.4 2.3 0 0.9-0.7 1.2-1.4 0.7l-17.7-10.2c-0.8-0.4-1.4-1.4-1.4-2.3 0-0.8 0.6-1.1 1.4-0.7z"/><path class="e" d="m613.9 225.4l17.7 10.3c0.7 0.4 1.4 1.4 1.4 2.3 0 0.8-0.7 1.1-1.4 0.7l-17.7-10.3c-0.8-0.4-1.4-1.4-1.4-2.3 0-0.8 0.6-1.1 1.4-0.7z"/><path class="q" d="m613.9 225.4l17.7 10.3c0.7 0.4 1.4 1.4 1.4 2.3 0 0.8-0.7 1.1-1.4 0.7l-17.7-10.3c-0.8-0.4-1.4-1.4-1.4-2.3 0-0.8 0.6-1.1 1.4-0.7z"/><path class="e" d="m598.3 239.7l3.8 2.1c0.8 0.5 1.4 1.5 1.4 2.3 0 0.9-0.6 1.2-1.4 0.7l-3.8-2.1c-0.7-0.5-1.3-1.5-1.3-2.3 0-0.9 0.6-1.2 1.3-0.7z"/><path class="p" d="m598.3 239.7l3.8 2.1c0.8 0.5 1.4 1.5 1.4 2.3 0 0.9-0.6 1.2-1.4 0.7l-3.8-2.1c-0.7-0.5-1.3-1.5-1.3-2.3 0-0.9 0.6-1.2 1.3-0.7z"/><path class="e" d="m608.6 245.6l23 13.3c0.7 0.4 1.4 1.4 1.4 2.3 0 0.8-0.7 1.1-1.4 0.7l-23-13.3c-0.7-0.4-1.4-1.5-1.4-2.3 0-0.8 0.7-1.1 1.4-0.7z"/><path class="q" d="m608.6 245.6l23 13.3c0.7 0.4 1.4 1.4 1.4 2.3 0 0.8-0.7 1.1-1.4 0.7l-23-13.3c-0.7-0.4-1.4-1.5-1.4-2.3 0-0.8 0.7-1.1 1.4-0.7z"/><path class="e" d="m603.6 250.5l3.8 2.1c0.7 0.5 1.4 1.5 1.4 2.3 0 0.9-0.7 1.2-1.4 0.7l-3.8-2.1c-0.7-0.5-1.4-1.5-1.4-2.3 0-0.9 0.7-1.2 1.4-0.7z"/><path class="p" d="m603.6 250.5l3.8 2.1c0.7 0.5 1.4 1.5 1.4 2.3 0 0.9-0.7 1.2-1.4 0.7l-3.8-2.1c-0.7-0.5-1.4-1.5-1.4-2.3 0-0.9 0.7-1.2 1.4-0.7z"/><path class="e" d="m603.6 258.2l3.8 2.1c0.7 0.5 1.4 1.5 1.4 2.3 0 0.9-0.7 1.2-1.4 0.7l-3.8-2.1c-0.7-0.5-1.4-1.5-1.4-2.3 0-0.9 0.7-1.2 1.4-0.7z"/><path class="p" d="m603.6 258.2l3.8 2.1c0.7 0.5 1.4 1.5 1.4 2.3 0 0.9-0.7 1.2-1.4 0.7l-3.8-2.1c-0.7-0.5-1.4-1.5-1.4-2.3 0-0.9 0.7-1.2 1.4-0.7z"/><path class="e" d="m613.9 256.4l17.7 10.2c0.7 0.5 1.4 1.5 1.4 2.3 0 0.8-0.7 1.2-1.4 0.7l-17.7-10.2c-0.8-0.4-1.4-1.5-1.4-2.3 0-0.8 0.6-1.1 1.4-0.7z"/><path class="q" d="m613.9 256.4l17.7 10.2c0.7 0.5 1.4 1.5 1.4 2.3 0 0.8-0.7 1.2-1.4 0.7l-17.7-10.2c-0.8-0.4-1.4-1.5-1.4-2.3 0-0.8 0.6-1.1 1.4-0.7z"/><path class="e" d="m613.9 264.1l17.7 10.2c0.7 0.5 1.4 1.5 1.4 2.3 0 0.9-0.7 1.2-1.4 0.7l-17.7-10.2c-0.8-0.4-1.4-1.5-1.4-2.3 0-0.8 0.6-1.1 1.4-0.7z"/><path class="q" d="m613.9 264.1l17.7 10.2c0.7 0.5 1.4 1.5 1.4 2.3 0 0.9-0.7 1.2-1.4 0.7l-17.7-10.2c-0.8-0.4-1.4-1.5-1.4-2.3 0-0.8 0.6-1.1 1.4-0.7z"/><path class="e" d="m603.6 227.1l3.8 2.2c0.7 0.5 1.4 1.5 1.4 2.3 0 0.8-0.7 1.2-1.4 0.7l-3.8-2.2c-0.7-0.4-1.4-1.4-1.4-2.3 0-0.8 0.7-1.1 1.4-0.7z"/><path class="p" d="m603.6 227.1l3.8 2.2c0.7 0.5 1.4 1.5 1.4 2.3 0 0.8-0.7 1.2-1.4 0.7l-3.8-2.2c-0.7-0.4-1.4-1.4-1.4-2.3 0-0.8 0.7-1.1 1.4-0.7z"/><path class="e" d="m598.3 231.8l3.8 2.2c0.8 0.5 1.4 1.5 1.4 2.3 0 0.8-0.6 1.2-1.4 0.7l-3.8-2.2c-0.7-0.4-1.3-1.4-1.3-2.3 0-0.8 0.6-1.1 1.3-0.7z"/><path class="p" d="m598.3 231.8l3.8 2.2c0.8 0.5 1.4 1.5 1.4 2.3 0 0.8-0.6 1.2-1.4 0.7l-3.8-2.2c-0.7-0.4-1.3-1.4-1.3-2.3 0-0.8 0.6-1.1 1.3-0.7z"/><path class="e" d="m613.9 233.1l17.7 10.2c0.7 0.5 1.4 1.5 1.4 2.3 0 0.8-0.7 1.2-1.4 0.7l-17.7-10.2c-0.8-0.4-1.4-1.5-1.4-2.3 0-0.8 0.6-1.1 1.4-0.7z"/><path class="q" d="m613.9 233.1l17.7 10.2c0.7 0.5 1.4 1.5 1.4 2.3 0 0.8-0.7 1.2-1.4 0.7l-17.7-10.2c-0.8-0.4-1.4-1.5-1.4-2.3 0-0.8 0.6-1.1 1.4-0.7z"/><path class="e" d="m608.6 237.8l23 13.2c0.7 0.5 1.4 1.5 1.4 2.3 0 0.9-0.7 1.2-1.4 0.7l-23-13.2c-0.7-0.5-1.4-1.5-1.4-2.3 0-0.8 0.7-1.2 1.4-0.7z"/><path class="q" d="m608.6 237.8l23 13.2c0.7 0.5 1.4 1.5 1.4 2.3 0 0.9-0.7 1.2-1.4 0.7l-23-13.2c-0.7-0.5-1.4-1.5-1.4-2.3 0-0.8 0.7-1.2 1.4-0.7z"/><path class="e" d="m598.3 263l3.8 2.1c0.8 0.5 1.4 1.5 1.4 2.3 0 0.9-0.6 1.2-1.4 0.7l-3.8-2.1c-0.7-0.5-1.3-1.5-1.3-2.3 0-0.9 0.6-1.2 1.3-0.7z"/><path class="p" d="m598.3 263l3.8 2.1c0.8 0.5 1.4 1.5 1.4 2.3 0 0.9-0.6 1.2-1.4 0.7l-3.8-2.1c-0.7-0.5-1.3-1.5-1.3-2.3 0-0.9 0.6-1.2 1.3-0.7z"/><path class="e" d="m608.6 268.9l23 13.3c0.7 0.4 1.4 1.4 1.4 2.3 0 0.8-0.7 1.1-1.4 0.7l-23-13.3c-0.7-0.4-1.4-1.5-1.4-2.3 0-0.8 0.7-1.1 1.4-0.7z"/><path class="q" d="m608.6 268.9l23 13.3c0.7 0.4 1.4 1.4 1.4 2.3 0 0.8-0.7 1.1-1.4 0.7l-23-13.3c-0.7-0.4-1.4-1.5-1.4-2.3 0-0.8 0.7-1.1 1.4-0.7z"/><g style="opacity:.8"><path class="d" d="m821.6 300.6v152.7c0 2.1 1.4 4.5 3.1 5.5l87.8 50.7q0.6 0.3 1.1 0.3 0.2 0 0.4-0.1 0.1 0 0.2-0.1 0.1 0 0.2-0.1 0.1 0 0.2-0.1 0.1-0.1 0.2-0.1 0.3-0.4 0.5-0.9c0.3-0.4 0.4-1 0.4-1.6v-152c0-2-1.4-4.5-3.2-5.5l-87.8-50.5c-0.8-0.5-1.5-0.6-2.1-0.3q-0.1 0-0.3 0.1 0 0.1 0 0.1-0.1 0.1-0.2 0.2 0 0-0.1 0.1-0.1 0.1-0.1 0.2-0.1 0.1-0.2 0.4 0 0.1 0 0.2-0.1 0.1-0.1 0.1 0 0.1 0 0.3 0 0.2 0 0.4z"/></g><path class="e" d="m822.6 298.5c0.6-0.3 1.3-0.2 2.1 0.3l87.8 50.5c1.8 1 3.2 3.5 3.2 5.5v10.4l5-2.9v-10.3c0-2-1.4-4.5-3.1-5.5l-87.8-50.6c-0.9-0.5-1.7-0.5-2.3-0.2-0.6 0.4-4.2 2.4-4.9 2.8z"/><path class="e" d="m821.6 300.6c0-2 1.4-2.8 3.1-1.8l87.8 50.5c1.8 1.1 3.2 3.5 3.2 5.5v10.4l-94.1-54.2z"/><g style="opacity:.5"><path class="m" d="m824.7 298.8l87.8 50.5c0.9 0.5 1.7 1.4 2.2 2.4l5.1-2.9c-0.6-1-1.4-1.8-2.2-2.3l-87.8-50.6c-0.9-0.5-1.7-0.5-2.3-0.2-0.6 0.4-4.2 2.4-4.9 2.8 0.6-0.3 1.3-0.2 2.1 0.3z"/></g><path class="i" d="m920.7 362.3v-10.3c0-1-0.3-2.2-0.9-3.2l-5.1 2.9c0.6 1 1 2.1 1 3.1v10.4z"/><path class="d" d="m911.1 353.6c1 0.6 1.8 2.3 1.8 3.8 0 1.5-0.8 2.3-1.8 1.7-1-0.5-1.8-2.2-1.8-3.8 0-1.5 0.8-2.3 1.8-1.7z"/><path class="d" d="m904.6 349.9c1 0.5 1.8 2.2 1.8 3.8 0 1.5-0.8 2.3-1.8 1.7-1-0.6-1.8-2.3-1.8-3.8 0-1.5 0.8-2.3 1.8-1.7z"/><path class="d" d="m898.2 346.1c0.9 0.6 1.7 2.3 1.7 3.8 0 1.6-0.8 2.3-1.7 1.8-1-0.6-1.8-2.3-1.8-3.8 0-1.6 0.8-2.3 1.8-1.8z"/><g style="opacity:.9"><path class="c" d="m914.5 509.5q0.2-0.1 0.4-0.2 0.4-0.3 1-0.6 0.3-0.2 0.5-0.3 0 0 0.1 0 0.4-0.3 0.8-0.5c0.3-0.2 1.5-0.8 1.7-1q0.3-0.1 0.4-0.2 0.3-0.1 0.5-0.4 0.3-0.3 0.5-0.7c0.2-0.4 0.3-1 0.3-1.6v-141.7l-5 2.9v141.6q-0.1 1-0.4 1.6-0.2 0.5-0.5 0.9-0.1 0-0.2 0.1 0 0.1-0.1 0.1z"/></g><path class="e" d="m828.9 328.5q0-0.3 0.1-0.4l2.3-2.1q0.1 0 0.1 0 0.1 0 0.1 0 0.1 0.1 0.1 0.2 0.1 0.2 0.1 0.4v1.5q0 0.3 0 0.5-0.1 0.1-0.2 0.2l-1.2 1.1 1.2 2.5q0.1 0.3 0.2 0.5 0 0.1 0 0.4v1.6q0 0.2-0.1 0.3 0 0-0.1 0 0 0-0.1-0.1 0 0-0.1-0.1l-2.3-4.7q-0.1-0.3-0.1-0.6z"/><path class="e" d="m837.2 326.3q0.1-0.2 0.2-0.3 0.1-0.1 0.3 0.1l0.9 0.5q0.1 0 0.1 0.2 0.1 0.1 0.1 0.3 0 0.1 0 0.1l-3.9 12.2q-0.1 0.1-0.2 0.3-0.1 0.1-0.3-0.1l-0.8-0.4q-0.1-0.1-0.2-0.3-0.1-0.1-0.1-0.3 0-0.1 0-0.1z"/><path class="e" d="m843.3 338q0 0.3-0.2 0.4l-2.3 2.1q0 0-0.1 0 0 0 0 0-0.2-0.1-0.2-0.2-0.1-0.2-0.1-0.4v-1.5q0-0.4 0-0.5 0.1-0.1 0.2-0.2l1.2-1.1-1.2-2.5q-0.1-0.3-0.2-0.5 0-0.1 0-0.4v-1.6q0-0.2 0.1-0.3 0 0 0.2 0 0 0 0 0.1 0.1 0 0.1 0.1l2.3 4.7q0.2 0.3 0.2 0.6z"/><path class="e" d="m849.6 344.2q0.1 0.1 0.2 0.3 0.1 0.2 0.1 0.4v1.7q0 0.2-0.1 0.3-0.1 0.1-0.2 0l-1.1-0.6q-0.1-0.1-0.2-0.3-0.1-0.2-0.1-0.4v-1.7q0-0.2 0.1-0.3 0.1-0.1 0.2 0z"/><path class="e" d="m853.2 346.3q0.1 0.1 0.2 0.3 0.1 0.2 0.1 0.4v1.7q0 0.2-0.1 0.3-0.1 0.1-0.2 0l-1.1-0.6q-0.1-0.1-0.2-0.3-0.1-0.2-0.1-0.4v-1.7q0-0.2 0.1-0.3 0.1-0.1 0.2 0z"/><path class="e" d="m856.8 348.4q0.1 0 0.2 0.2 0.1 0.2 0.1 0.4v1.8q0 0.2-0.1 0.3-0.1 0.1-0.2 0l-1.1-0.6q-0.1-0.1-0.2-0.3-0.1-0.2-0.1-0.4v-1.8q0-0.1 0.1-0.2 0.1-0.1 0.2-0.1z"/><path class="e" d="m829.8 342.3l52.8 30.5c0.6 0.3 1.1 1.2 1.1 1.9 0 0.6-0.5 0.9-1.1 0.5l-52.8-30.4c-0.6-0.4-1.1-1.2-1.1-1.9 0-0.7 0.5-0.9 1.1-0.6z"/><path class="b" d="m846.7 381.4l52.8 30.5c0.6 0.3 1.1 1.2 1.1 1.8 0 0.7-0.5 1-1.1 0.6l-52.8-30.4c-0.6-0.4-1.1-1.2-1.1-1.9 0-0.7 0.5-0.9 1.1-0.6z"/><path class="b" d="m846.7 400.9l25.3 14.6c0.6 0.4 1.1 1.2 1.1 1.9 0 0.7-0.5 0.9-1.1 0.6l-25.3-14.6c-0.6-0.4-1.1-1.2-1.1-1.9 0-0.7 0.5-0.9 1.1-0.6z"/><path class="e" d="m886.9 375.3l21 12.1c0.6 0.3 1.2 1.2 1.2 1.9 0 0.6-0.6 0.9-1.2 0.5l-21-12.1c-0.6-0.3-1.1-1.1-1.1-1.8 0-0.7 0.5-1 1.1-0.6z"/><path class="e" d="m829.8 449.8l52.8 30.4c0.6 0.4 1.1 1.2 1.1 1.9 0 0.7-0.5 0.9-1.1 0.6l-52.8-30.5c-0.6-0.3-1.1-1.2-1.1-1.9 0-0.6 0.5-0.9 1.1-0.5z"/><path class="e" d="m886.9 482.7l21 12.1c0.6 0.4 1.2 1.2 1.2 1.9 0 0.7-0.6 0.9-1.2 0.6l-21-12.1c-0.6-0.4-1.1-1.2-1.1-1.9 0-0.7 0.5-0.9 1.1-0.6z"/><path class="e" d="m886.9 453.5l21 12.1c0.6 0.3 1.2 1.2 1.2 1.8 0 0.7-0.6 1-1.2 0.6l-21-12.1c-0.6-0.3-1.1-1.2-1.1-1.8 0-0.7 0.5-1 1.1-0.6z"/><path class="e" d="m886.9 463.3l21 12c0.6 0.4 1.2 1.2 1.2 1.9 0 0.7-0.6 0.9-1.2 0.6l-21-12.1c-0.6-0.4-1.1-1.2-1.1-1.9 0-0.7 0.5-0.9 1.1-0.5z"/><path class="e" d="m869 443.1l11.8 6.8c0.6 0.4 1.1 1.2 1.1 1.9 0 0.7-0.5 0.9-1.1 0.6l-11.8-6.8c-0.6-0.4-1.1-1.2-1.1-1.9 0-0.7 0.5-0.9 1.1-0.6z"/><path class="e" d="m829.8 352.1l30.8 17.8c0.6 0.3 1.1 1.2 1.1 1.8 0 0.7-0.5 1-1.1 0.6l-30.8-17.7c-0.6-0.4-1.1-1.2-1.1-1.9 0-0.7 0.5-0.9 1.1-0.6z"/><path class="p" d="m829.8 352.1l30.8 17.8c0.6 0.3 1.1 1.2 1.1 1.8 0 0.7-0.5 1-1.1 0.6l-30.8-17.7c-0.6-0.4-1.1-1.2-1.1-1.9 0-0.7 0.5-0.9 1.1-0.6z"/><path class="e" d="m829.8 361.9l10.5 6c0.6 0.4 1.1 1.2 1.1 1.9 0 0.6-0.5 0.9-1.1 0.5l-10.5-6c-0.6-0.3-1.1-1.2-1.1-1.8 0-0.7 0.5-1 1.1-0.6z"/><path class="p" d="m829.8 361.9l10.5 6c0.6 0.4 1.1 1.2 1.1 1.9 0 0.6-0.5 0.9-1.1 0.5l-10.5-6c-0.6-0.3-1.1-1.2-1.1-1.8 0-0.7 0.5-1 1.1-0.6z"/><path class="e" d="m829.8 371.6l10.5 6.1c0.6 0.3 1.1 1.2 1.1 1.8 0 0.7-0.5 1-1.1 0.6l-10.5-6c-0.6-0.4-1.1-1.2-1.1-1.9 0-0.7 0.5-0.9 1.1-0.6z"/><path class="p" d="m829.8 371.6l10.5 6.1c0.6 0.3 1.1 1.2 1.1 1.8 0 0.7-0.5 1-1.1 0.6l-10.5-6c-0.6-0.4-1.1-1.2-1.1-1.9 0-0.7 0.5-0.9 1.1-0.6z"/><path class="e" d="m829.8 381.4l10.5 6c0.6 0.4 1.1 1.2 1.1 1.9 0 0.7-0.5 0.9-1.1 0.6l-10.5-6c-0.6-0.4-1.1-1.2-1.1-1.9 0-0.7 0.5-0.9 1.1-0.6z"/><path class="p" d="m829.8 381.4l10.5 6c0.6 0.4 1.1 1.2 1.1 1.9 0 0.7-0.5 0.9-1.1 0.6l-10.5-6c-0.6-0.4-1.1-1.2-1.1-1.9 0-0.7 0.5-0.9 1.1-0.6z"/><path class="r" d="m846.7 391.2l30.8 17.7c0.6 0.4 1.1 1.2 1.1 1.9 0 0.7-0.5 0.9-1.1 0.6l-30.8-17.8c-0.6-0.3-1.1-1.2-1.1-1.9 0-0.6 0.5-0.9 1.1-0.5z"/><path class="r" d="m881.9 411.4l13.3 7.8c0.7 0.3 1.2 1.2 1.2 1.9 0 0.6-0.5 0.9-1.2 0.5l-13.3-7.7c-0.7-0.4-1.2-1.2-1.2-1.9 0-0.7 0.5-0.9 1.2-0.6z"/><path class="p" d="m846.7 391.2l30.8 17.7c0.6 0.4 1.1 1.2 1.1 1.9 0 0.7-0.5 0.9-1.1 0.6l-30.8-17.8c-0.6-0.3-1.1-1.2-1.1-1.9 0-0.6 0.5-0.9 1.1-0.5z"/><path class="p" d="m881.9 411.4l13.3 7.8c0.7 0.3 1.2 1.2 1.2 1.9 0 0.6-0.5 0.9-1.2 0.5l-13.3-7.7c-0.7-0.4-1.2-1.2-1.2-1.9 0-0.7 0.5-0.9 1.2-0.6z"/><path class="e" d="m829.8 391.2l10.5 6c0.6 0.4 1.1 1.2 1.1 1.9 0 0.6-0.5 0.9-1.1 0.5l-10.5-6c-0.6-0.3-1.1-1.2-1.1-1.8 0-0.7 0.5-1 1.1-0.6z"/><path class="p" d="m829.8 391.2l10.5 6c0.6 0.4 1.1 1.2 1.1 1.9 0 0.6-0.5 0.9-1.1 0.5l-10.5-6c-0.6-0.3-1.1-1.2-1.1-1.8 0-0.7 0.5-1 1.1-0.6z"/><path class="e" d="m864.9 372.4l13.4 7.7c0.6 0.4 1.1 1.2 1.1 1.9 0 0.7-0.5 0.9-1.1 0.6l-13.4-7.8c-0.6-0.3-1.1-1.2-1.1-1.8 0-0.7 0.5-1 1.1-0.6z"/><path class="p" d="m864.9 372.4l13.4 7.7c0.6 0.4 1.1 1.2 1.1 1.9 0 0.7-0.5 0.9-1.1 0.6l-13.4-7.8c-0.6-0.3-1.1-1.2-1.1-1.8 0-0.7 0.5-1 1.1-0.6z"/><path class="m" d="m859.4 418l30.8 17.8c0.6 0.3 1.1 1.2 1.1 1.8 0 0.7-0.5 1-1.1 0.6l-30.8-17.7c-0.6-0.4-1.1-1.2-1.1-1.9 0-0.7 0.5-0.9 1.1-0.6z"/><path class="m" d="m877.2 438.1l30.7 17.7c0.6 0.4 1.2 1.2 1.2 1.9 0 0.7-0.6 0.9-1.2 0.6l-30.7-17.8c-0.7-0.3-1.2-1.2-1.2-1.9 0-0.6 0.5-0.9 1.2-0.5z"/><path class="m" d="m894.6 438.3l13.3 7.7c0.6 0.4 1.2 1.2 1.2 1.9 0 0.7-0.6 0.9-1.2 0.6l-13.3-7.8c-0.7-0.3-1.2-1.2-1.2-1.8 0-0.7 0.5-1 1.2-0.6z"/><path class="b" d="m894.6 477l13.3 7.7c0.6 0.4 1.2 1.2 1.2 1.9 0 0.7-0.6 0.9-1.2 0.6l-13.3-7.8c-0.7-0.3-1.2-1.2-1.2-1.9 0-0.6 0.5-0.9 1.2-0.5z"/><path class="e" d="m846.7 371.6l30.8 17.8c0.6 0.4 1.1 1.2 1.1 1.9 0 0.6-0.5 0.9-1.1 0.5l-30.8-17.7c-0.6-0.4-1.1-1.2-1.1-1.9 0-0.7 0.5-0.9 1.1-0.6z"/><path class="p" d="m846.7 371.6l30.8 17.8c0.6 0.4 1.1 1.2 1.1 1.9 0 0.6-0.5 0.9-1.1 0.5l-30.8-17.7c-0.6-0.4-1.1-1.2-1.1-1.9 0-0.7 0.5-0.9 1.1-0.6z"/><path class="e" d="m881.9 391.9l13.3 7.8c0.7 0.3 1.2 1.2 1.2 1.8 0 0.7-0.5 1-1.2 0.6l-13.3-7.7c-0.7-0.4-1.2-1.2-1.2-1.9 0-0.7 0.5-0.9 1.2-0.6z"/><path class="p" d="m881.9 391.9l13.3 7.8c0.7 0.3 1.2 1.2 1.2 1.8 0 0.7-0.5 1-1.2 0.6l-13.3-7.7c-0.7-0.4-1.2-1.2-1.2-1.9 0-0.7 0.5-0.9 1.2-0.6z"/><path class="i" d="m672.2 503.8l18.9 10.9c5.9 3.4 15.2 2.9 20.8-1.1l31.1-22.7c5.5-4 5.2-10.1-0.7-13.5l-9.5-5.5c-5.9-3.5-15.7-3.8-21.8-0.7l-38.4 20.8c-6.2 3.1-6.3 8.4-0.4 11.8z"/><path class="c" d="m743.5 481l-21.5 16.8-15.9 12.5c-1.5 0.7-3.3 1.1-5.1 1.2-2.6 0.1-5.4-0.4-7.5-1.6l-16.9-9.7q0 0 0-0.1 0 0-0.1 0c-5.9-3.5-7.3-11.5-3.4-17.1q0.3-0.3 0.5-0.7c3.2-4.3 8-7.4 13.6-8.6l8.5-1.7c13.9-2.8 25.2-4.2 26.5-3.3l21.2 12.3q0 0 0.1 0z"/><path class="e" d="m731.5 490.4l1.2-0.9-19-11 16.6-5.1q-0.9-0.5-1.7-1l-16.6 5.2-11.3-6.6q-1.1 0.2-2.1 0.4z"/><path class="j" d="m708 509.2q0 0 0.1 0 0-0.1 0 0l15.1-11 20.4-14.7v-2.3q0-0.1-0.1-0.2-0.1 0-0.1 0c-1.6-0.5-10.4 2.1-21.1 6.4l-7.1 2.8c-2.2 0.8-4.2 2.1-6 3.5-5.1 4.2-8.2 10.6-8.2 17.4v0.4c1.8-0.1 3.6-0.5 5.1-1.2z"/><path class="e" d="m745.4 811c-20.8-21.4-33-108.6-12.7-125.5h103c20.2 16.9 8.1 104.1-12.7 125.5q-0.3 0.3-0.6 0.6-0.3 0.4-0.7 0.7-0.8 0.9-1.8 1.7-0.3 0.2-0.5 0.4c-0.5 0.4-1 0.8-1.6 1.2q-1.3 0.9-2.7 1.7c-17.1 10-44.7 10-61.8 0q-1.4-0.8-2.7-1.7c-0.5-0.4-1-0.8-1.5-1.2q-0.3-0.2-0.6-0.4-1-0.8-1.8-1.7-0.4-0.4-0.8-0.8-0.3-0.2-0.5-0.5z"/><g style="opacity:.5"><path class="m" d="m745.4 811c-20.8-21.4-33-108.6-12.7-125.5h103c20.2 16.9 8.1 104.1-12.7 125.5q-0.3 0.3-0.6 0.6-0.3 0.4-0.7 0.7-0.8 0.9-1.8 1.7-0.3 0.2-0.5 0.4c-0.5 0.4-1 0.8-1.6 1.2q-1.3 0.9-2.7 1.7c-17.1 10-44.7 10-61.8 0q-1.4-0.8-2.7-1.7c-0.5-0.4-1-0.8-1.5-1.2q-0.3-0.2-0.6-0.4-1-0.8-1.8-1.7-0.4-0.4-0.8-0.8-0.3-0.2-0.5-0.5z"/></g><path class="e" d="m826.8 678.6c23.5 13.7 23.5 36 0 49.7-23.5 13.7-61.7 13.7-85.2 0-23.5-13.7-23.5-36 0-49.7 23.5-13.7 61.7-13.7 85.2 0z"/><g style="opacity:.7"><path class="m" d="m826.8 678.6c23.5 13.7 23.5 36 0 49.7-23.5 13.7-61.7 13.7-85.2 0-23.5-13.7-23.5-36 0-49.7 23.5-13.7 61.7-13.7 85.2 0z"/></g><path class="e" d="m815.5 685.2c17.2 10.1 17.2 26.4 0 36.5-17.3 10.1-45.3 10.1-62.6 0-17.2-10.1-17.2-26.4 0-36.5 17.3-10.1 45.3-10.1 62.6 0z"/><g style="opacity:.3"><path  d="m815.5 685.2c17.2 10.1 17.2 26.4 0 36.5-17.3 10.1-45.3 10.1-62.6 0-17.2-10.1-17.2-26.4 0-36.5 17.3-10.1 45.3-10.1 62.6 0z"/></g><path class="a" d="m752.9 702.5c17.3-10 45.3-10 62.6 0 4.7 2.8 8.2 6.1 10.3 9.6-2.1 3.5-5.6 6.8-10.3 9.6-17.3 10.1-45.3 10.1-62.6 0-4.7-2.8-8.2-6.1-10.3-9.6 2.1-3.5 5.6-6.8 10.3-9.6z"/><path class="e" d="m775.8 658.6c-1.2-2.4-2.2-4.8-2.7-7.6-1.1-6.2 0.4-13.4 5.5-17.3 2-1.5 4.7-2.7 5.5-5.1 0.5-1.3 0.3-2.7 0.1-4.1-1-5.4-2.8-10.9-1.3-16.1 1.4-4.8 5.5-8.6 10-10.7 4.6-2.2 9.6-3 14.6-3.8 2.6-0.5 5.3-0.9 7.7-2.2 2.8-1.6 3.7-4.5 5.5-7 2-2.7 4.6-5.3 7.1-7.5 5.2-4.7 11.8-8.6 19.1-8.2 15.1 0.6 14.7 13.7 10.3 23.5-4.4 9.9-5.5 13.1 4 23.4 9.4 10.3 9.4 23-1.9 30.1-11.2 7.1-18.6 8.1-14.1 21.8 4 12.2 6.4 22.6-4.8 35.7-7.3 8.4-17.3 14.4-29.8 13.9-3.5-0.1-11.3-1.8-14.6-3.4-3.4-1.7-1.1-4.4-2.3-7.8q-3.7-10.9-7.5-21.8c-1.9-5.6-3.4-11.9-5.9-17.2-1.4-3-3.1-5.8-4.5-8.6z"/><g style="opacity:.3"><path  d="m775.8 658.6c-1.2-2.4-2.2-4.8-2.7-7.6-1.1-6.2 0.4-13.4 5.5-17.3 2-1.5 4.7-2.7 5.5-5.1 0.5-1.3 0.3-2.7 0.1-4.1-1-5.4-2.8-10.9-1.3-16.1 1.4-4.8 5.5-8.6 10-10.7 4.6-2.2 9.6-3 14.6-3.8 2.6-0.5 5.3-0.9 7.7-2.2 2.8-1.6 3.7-4.5 5.5-7 2-2.7 4.6-5.3 7.1-7.5 5.2-4.7 11.8-8.6 19.1-8.2 15.1 0.6 14.7 13.7 10.3 23.5-4.4 9.9-5.5 13.1 4 23.4 9.4 10.3 9.4 23-1.9 30.1-11.2 7.1-18.6 8.1-14.1 21.8 4 12.2 6.4 22.6-4.8 35.7-7.3 8.4-17.3 14.4-29.8 13.9-3.5-0.1-11.3-1.8-14.6-3.4-3.4-1.7-1.1-4.4-2.3-7.8q-3.7-10.9-7.5-21.8c-1.9-5.6-3.4-11.9-5.9-17.2-1.4-3-3.1-5.8-4.5-8.6z"/></g><path class="m" d="m796.4 713.9c0.4-0.1 0.7-0.5 0.7-1-0.6-74.9 40.6-119.5 41-120 0.5-0.4 0.4-1.1 0-1.6-0.5-0.4-1.2-0.4-1.6 0.1-0.4 0.4-42.3 45.7-41.6 121.5 0 0.6 0.5 1.1 1.1 1.1q0.2 0 0.4-0.1z"/><path class="m" d="m808.4 644.3q0.1 0 0.2-0.1c13.4-8.4 37.4-14.7 37.6-14.8 0.6-0.1 1-0.8 0.8-1.4-0.2-0.6-0.8-0.9-1.4-0.8-1 0.3-24.5 6.5-38.2 15.1-0.5 0.3-0.7 1-0.3 1.6 0.2 0.4 0.8 0.6 1.3 0.4z"/><path class="m" d="m812.5 634.1q0 0 0.1 0c0.5-0.3 0.8-0.9 0.6-1.5-4.7-11.6-12.1-20.5-12.4-20.8-0.4-0.5-1.1-0.6-1.6-0.2-0.4 0.4-0.5 1.1-0.1 1.6 0.1 0.1 7.5 9 12 20.2 0.2 0.6 0.9 0.9 1.4 0.7z"/><path class="e" d="m785.8 722.1c0 0-14 5.3-32.8 1.2-18.9-4.1-30.4-21.7-30.4-21.7 0 0 20.4-8.2 32.3-9 0 0-18.5-3.1-35.7 0.8 0 0-10.9-4.1-8.9-22.5 0 0 10.3-7.6 33.9-4.6 0 0-11.8-8.5-32.6-11-1.6 0.1 0.6-24 2.6-34.7 2-10.7 5.9-9 14.4-8.1 8.5 0.9 33.6 6.7 36.8 12.8 3.2 6.2 0.1 21.9 0.1 21.9 0 0 6.9-8.6 6.9-20.6 0 0 9.5 3.5 14.5 8 5.1 4.4 7.6 8 9.1 11.3-1.2 8.4-5.2 21.3-10.7 28.4 0 0 12.5-8.1 15.3-22.9 0 0 10.1 12.7 10 29.3-0.2 18.8-8.5 32.8-24.8 41.4z"/><path class="i" d="m785.8 722.1c0 0-14 5.3-32.8 1.2-18.9-4.1-30.4-21.7-30.4-21.7 0 0 20.4-8.2 32.3-9 0 0-18.5-3.1-35.7 0.8 0 0-10.9-4.1-8.9-22.5 0 0 10.3-7.6 33.9-4.6 0 0-11.8-8.5-32.6-11-1.6 0.1 0.6-24 2.6-34.7 2-10.7 5.9-9 14.4-8.1 8.5 0.9 33.6 6.7 36.8 12.8 3.2 6.2 0.1 21.9 0.1 21.9 0 0 6.9-8.6 6.9-20.6 0 0 9.5 3.5 14.5 8 5.1 4.4 7.6 8 9.1 11.3-1.2 8.4-5.2 21.3-10.7 28.4 0 0 12.5-8.1 15.3-22.9 0 0 10.1 12.7 10 29.3-0.2 18.8-8.5 32.8-24.8 41.4z"/><path class="m" d="m788.3 720.4c-0.3-0.2-0.6-0.5-0.6-0.9-2.9-35.8-42.9-91.5-60.5-102.7-0.5-0.4-0.7-1-0.4-1.5 0.4-0.5 1-0.7 1.5-0.4 18 11.4 58.6 68.1 61.5 104.4 0 0.6-0.4 1.1-1 1.1q-0.2 0.1-0.5 0z"/><path class="s" d="m427 698.1c-0.1-0.4-6.4-23.6-6.4-23.6 0 0 2.1 2.1 15.5-1.4 6.8-1.8 14.5-6.2 14.5-6.2l3.9 17c3.5 6.5 15.4 3.5 28.3 2 2.2-0.2 4.5-0.6 6.7-1h0.1c7-0.4 14.1 3.8 6.8 9.8-7.3 6-19.3 8.2-30.4 10.2-13.3 2.5-36.6 6.4-39-6.8z"/><path class="j" d="m520.1 696c0 0 1.4 2.7 0.9 7.1-0.2 2.6-6.6 11.4-17.9 16.7-11.3 5.4-25.2 5.8-31.7 7.6-6.6 1.9-12.6 5.7-20.3 7.5-7.9 2-15.3 2.9-23-2.2-1.4-2.2-3-7.2-2.5-7.7 1.2-1.3 94.5-29 94.5-29z"/><path class="e" d="m456.5 686.2c5 3.4 15.2 1 26.3-0.3 10.5-1.2 22.3-4.8 29.4-2.4 7.1 2.5 13.1 10.9 3.5 21.6-2.8 3.1-8.7 8.6-13.4 10.3-12 4.3-22.7 4.6-30.4 6.5-10 2.5-15.5 6.9-24.7 8-12 1.4-19.6-1.7-21.6-4.9-2.1-3.2-4-29 1.1-28.5 0 0 2.2 8.4 21.7 0.3 8.6-3.6 8.4-8.8 8.1-10.6z"/><path class="h" d="m456.5 686.2c5 3.4 15.2 1 26.3-0.3 10.5-1.2 22.3-4.8 29.4-2.4 7.1 2.5 13.1 10.9 3.5 21.6-2.8 3.1-8.7 8.6-13.4 10.3-12 4.3-22.7 4.6-30.4 6.5-10 2.5-15.5 6.9-24.7 8-12 1.4-19.6-1.7-21.6-4.9-2.1-3.2-4-29 1.1-28.5 0 0 2.2 8.4 21.7 0.3 8.6-3.6 8.4-8.8 8.1-10.6z"/><path class="t" d="m489.7 700c0 0-1.1-10.9-9.2-13.8 0 0-2.6-1.2-4.4 0.6 0 0 7.5 1.1 9.9 13.9 0 0 0.4 0.8 2 0.5 0.6-0.1 1.8-0.3 1.7-1.2z"/><path class="t" d="m469.2 687.6c0 0 0-0.3 1.9-0.7 1.4-0.2 2.2 0.3 2.2 0.3 0 0 6 2.6 7.2 14 0 0-0.1 1.3-1.9 1.7-1.8 0.4-2.1-1.1-2.1-1.1 0 0-1.3-12-7.3-14.2z"/><path class="t" d="m462.8 687.9c0 0 0.3-0.7 1.7-0.7 1.8 0 2.2 0.7 2.2 0.7 0 0 4.3 4.4 4.4 13.9 0 0 0.1 1.6-2.1 1.8-2.2 0.1-1.9-1.7-1.9-1.7 0 0-0.8-12.1-4.3-14z"/><path class="c" d="m418.7 540.4c9.8 29.5 35.8 130.9 35.8 130.9 0 0-16.9 15.2-35.3 8.3l-43.7-126.3z"/><path class="s" d="m494.3 730.8c-2-3-9.5-23.6-9.5-23.6 0 0 7.8 4.5 21.3 1.3 6.9-1.7 13.3-9.1 13.3-9.1l5.7 19.8c3.4 6.6 14.5 4.5 27.5 3.3 2.1-0.2 4.4-0.5 6.6-0.8l0.2-0.1c7-0.2 13.9 4.2 6.5 10-7.4 5.8-19.5 7.8-30.6 9.5-13.4 2.1-33.5 0.8-41-10.3z"/><path class="j" d="m595.1 730.2c0 0 1.5 2.9 0.9 7.7-0.4 2.7-7.5 12-19.7 17.4-12.3 5.5-27.3 5.5-34.3 7.3-7.1 1.9-13.6 5.8-21.9 7.6-8.6 1.8-16.5 2.6-24.7-3-1.5-2.4-3-7.9-2.5-8.4 1.3-1.4 102.2-28.6 102.2-28.6z"/><path class="e" d="m527.3 717.7c0.8 0.6 1.6 1.1 2.4 1.6 0.9 0.4 1.8 0.4 2.7 0.5 2.2 0.3 4.4 0.3 6.6 0.2 5.5-0.3 10.9-1.1 16.4-1.6 11.3-1 24-4.6 31.6-1.8 7.6 2.8 14.5 11.9 3.9 23.2-3.1 3.3-9.4 8.8-14.2 10.8-12.6 5.3-25.7 4.3-34 6.1-10.8 2.4-16.8 7-26.7 7.9-12.9 1.2-21-2.3-23.1-5.8-1.2-1.9 0.1-12-1.5-19.9-1.4-6.8-1-11.4 1.4-11.1 0.4 0.9 1.3 1.7 1.9 2.4 0.8 1 1.8 1.7 2.9 2.3 1.5 0.8 3.1 1.2 4.8 1.6 2.9 0.8 5.9 1.5 9 1.3 0.8-0.1 1.7-0.3 2.4-0.8 0.9-0.7 1.2-1.9 1.4-3.1q0.4-1.5 0.7-3c0.1-0.5 0.2-1 0.5-1.5 0.4-0.6 1-0.9 1.5-1.2 1.9-1 3.8-2 5-3.8 0.9-1.3 1.1-3 1.4-4.6 0-0.3 0.1-0.6 0.3-0.8 0.4-0.2 0.9 0 1.3 0.3q0.7 0.4 1.4 0.8z"/><path class="h" d="m527.3 717.7c0.8 0.6 1.6 1.1 2.4 1.6 0.9 0.4 1.8 0.4 2.7 0.5 2.2 0.3 4.4 0.3 6.6 0.2 5.5-0.3 10.9-1.1 16.4-1.6 11.3-1 24-4.6 31.6-1.8 7.6 2.8 14.5 11.9 3.9 23.2-3.1 3.3-9.4 8.8-14.2 10.8-12.6 5.3-25.7 4.3-34 6.1-10.8 2.4-16.8 7-26.7 7.9-12.9 1.2-21-2.3-23.1-5.8-1.2-1.9 0.1-12-1.5-19.9-1.4-6.8-1-11.4 1.4-11.1 0.4 0.9 1.3 1.7 1.9 2.4 0.8 1 1.8 1.7 2.9 2.3 1.5 0.8 3.1 1.2 4.8 1.6 2.9 0.8 5.9 1.5 9 1.3 0.8-0.1 1.7-0.3 2.4-0.8 0.9-0.7 1.2-1.9 1.4-3.1q0.4-1.5 0.7-3c0.1-0.5 0.2-1 0.5-1.5 0.4-0.6 1-0.9 1.5-1.2 1.9-1 3.8-2 5-3.8 0.9-1.3 1.1-3 1.4-4.6 0-0.3 0.1-0.6 0.3-0.8 0.4-0.2 0.9 0 1.3 0.3q0.7 0.4 1.4 0.8z"/><path class="t" d="m562.4 733.7c0 0-0.9-11.8-9.5-15.1 0 0-2.7-1.3-4.8 0.5 0 0 8 1.4 10.3 15.2 0 0 0.4 0.9 2.2 0.6 0.6-0.1 1.9-0.3 1.8-1.2z"/><path class="t" d="m540.8 719.9c0 0 0-0.4 2-0.7 1.5-0.3 2.4 0.3 2.4 0.3 0 0 6.3 2.9 7.2 15.2 0 0 0 1.4-2 1.8-1.9 0.4-2.3-1.3-2.3-1.3 0 0-1-12.8-7.3-15.3z"/><path class="t" d="m533.8 720c0 0 0.4-0.8 1.9-0.7 1.9 0 2.4 0.8 2.4 0.8 0 0 4.4 4.8 4.2 15 0 0 0.2 1.7-2.2 1.9-2.4 0.1-2-1.9-2-1.9 0 0-0.5-13-4.3-15.1z"/><path class="d" d="m487.7 575.2c7.7 23.7 27.4 91.3 36.4 126.1 0 0-16.2 14.5-37 13.2l-50.2-130.1 20-12.3z"/><path class="d" d="m322.5 900.1c1.8 0 3.2-1.5 3.2-3.3v-209.2c0-1.8-1.4-3.2-3.2-3.2-1.8 0-3.3 1.4-3.3 3.2v209.2c0 1.8 1.5 3.3 3.3 3.3z"/><path class="d" d="m193 823.9c1.3 0 2.6-0.8 3.1-2l64.1-162.4c0.7-1.7-0.2-3.6-1.8-4.2-1.7-0.7-3.6 0.1-4.2 1.8l-64.2 162.4c-0.6 1.6 0.2 3.5 1.8 4.2q0.6 0.2 1.2 0.2z"/><path class="d" d="m200.7 804.4c0.9 0 1.8-0.3 2.4-1l119.4-126.3 119.1 125.8c1.2 1.3 3.3 1.3 4.6 0.1 1.3-1.3 1.4-3.3 0.1-4.6l-121.5-128.3c-0.6-0.6-1.4-1-2.3-1q0 0 0 0c-0.9 0-1.8 0.4-2.4 1l-121.7 128.8c-1.3 1.3-1.2 3.4 0.1 4.6 0.6 0.6 1.4 0.9 2.2 0.9z"/><path class="d" d="m451.9 823.9q0.6 0 1.2-0.2c1.6-0.7 2.5-2.6 1.8-4.2l-64.1-162.4c-0.7-1.7-2.6-2.5-4.3-1.8-1.6 0.6-2.5 2.5-1.8 4.2l64.2 162.4c0.5 1.2 1.7 2 3 2z"/><path class="e" d="m453.4 615.9c2.4-13.1-8.3-23.4-28.4-37-20.1-13.5-45.8-27-58.3-32.7-16.8-7.7-34-7-55.6 4.1-29.9 15.3-119.9 70-119.9 70 0 0 134.6 76 160.5 72.6 25.9-3.5 90.6-45.6 95.8-60.4 5.1-14.8 5.9-16.6 5.9-16.6z"/><g style="opacity:.4"><path  d="m453.4 615.9c2.4-13.1-8.3-23.4-28.4-37-20.1-13.5-45.8-27-58.3-32.7-16.8-7.7-34-7-55.6 4.1-29.9 15.3-119.9 70-119.9 70 0 0 134.6 76 160.5 72.6 25.9-3.5 90.6-45.6 95.8-60.4 5.1-14.8 5.9-16.6 5.9-16.6z"/></g><path class="e" d="m338.7 676.9c19.3 17.5 39.5 2.4 71.5-18.3 36.2-23.5 43.2-42.7 43.2-42.7 0 0 0 14.4-2.7 21.1-2.6 6.8-8.5 14.4-34.6 32.4-26.1 18-45 27-62.5 30.3l-13.8-1.9"/><path class="g" d="m410.2 658.6c36.2-23.5 43.2-42.7 43.2-42.7 0 0 0 14.4-2.7 21.1-2.6 6.8-8.5 14.4-34.6 32.4-26.1 18-45 27-62.5 30.3l-13.8-1.9-1.1-20.9c19.3 17.5 39.5 2.4 71.5-18.3z"/><path class="e" d="m198.1 798.4l-9.9 22.9q-0.1 0.3-0.1 0.6-0.1 0.2-0.1 0.4c0.1 0.5 0.7 1.1 1.3 1.5 1.4 1 3.8 1.1 5.4 0.3q0.8-0.5 1.1-1.1 0 0 0 0l0.1-0.3 9.2-21.4z"/><path class="e" d="m447.5 799.4l8.4 22.4q0.1 0.3 0.1 0.6 0 0.1 0 0.4c-0.1 0.4-0.6 1-1.3 1.4-1.4 0.8-3.7 0.8-5.1 0q-0.8-0.5-1-1.1 0 0 0 0l-0.1-0.3-7.9-21z"/><path class="e" d="m318.7 880.6v18.5c0 0.6 0.4 1.1 1.1 1.5 1.5 0.9 3.8 0.9 5.3 0 0.7-0.4 1.1-0.9 1.1-1.5v-18.5q-3.7-1.9-7.5 0z"/><path class="c" d="m245.1 537.4c7.6 9 77.4-11.1 95.9-13.6 29.8-4.1 54.1-7 64.2-3.9 10.1 3.2 14.4 8.4 17.5 20.5 3.7 14.3 5.6 21.6 5.6 21.6 0 0-49.6 19-88.6 23.6-39.1 4.5-94.6-48.2-94.6-48.2z"/><path class="d" d="m232.1 550.5c-7.8 29.5-14.7 63.8 3.2 82.6 12 12.6 72.6 45.4 111.7 32.5 38.5-12.7 118.2-71.9 126.2-77.9 8-5.9 15.2-10 14.5-12.5-10.8-35.7-26.5-38.5-55.6-32.1-35.6 7.9-113.8 39.8-113.8 39.8z"/><path class="s" d="m409 361l-26.8 30.4-43.4-20.6 30.3-42z"/><path class="u" d="m442.4 303.3c0 0 11 15.9 9.8 17.5-1.2 1.6-9 3.2-9 3.2z"/><path class="v" d="m454.2 300.7c0 6.6-5.3 11.9-11.9 11.9-6.6 0-12-5.3-12-11.9 0-6.6 5.4-12 12-12 6.6 0 11.9 5.4 11.9 12z"/><path class="s" d="m411.8 259.4c21.7 4 28.1 13.3 30.9 47.5 2.9 35.6-0.5 46.9-5 51.8-3.1 3.4-20.7 4.4-29.7 2.1-11.1-2.8-36.5-11.1-48.6-28.8-14.3-20.8-18.6-49.4-4.1-61.5 20.5-17 47.7-12.8 56.5-11.1z"/><path class="u" d="m409 361c9.3 2.1 23.5 0.9 27.7-1.5-0.4 0.1-7.1 1.8-15.7-0.6-8.8-2.5-14.3-6.3-14.3-6.3z"/><path class="j" d="m446.7 273.3q0 0.1-0.1 0.1c-6 4.1-13.4 5.9-20.6 7 0.6 5.8-1.3 11.5-3.1 17-1.2 3.9-5.7 15.9-10.6 9.3-3.5-4.8-6.7-9.1-13.5-7.9-11.2 1.9-12.4 16.2-5.1 24.7 7.2 8.5 13.8 5 13.8 5 0 0 1 15.4-7.1 26.3 0 0-12.1 7.4-29.1 1.8-10.8-3.5-26.2-17-31.9-27.6-15.7-29-15.8-56.9 3.2-65.4 1.8-13.9 12.6-20.4 24.9-23.6 17.2-4.3 35.1 6.5 51.7-0.7 3.5-1.5 6.7-3.6 10.3-4.9 2-0.7 4.3-1.1 6.1 0 1.6 1.1 2.2 3 2.7 4.8 0.8 3.3 1.1 7-0.7 9.9 2.5-1.2 5.1-2.4 7.8-2.9 2.8-0.4 5.8 0 7.9 1.8 2 1.7 2.9 4.3 3.2 6.9 0.7 7.2-3.8 14.3-9.8 18.4z"/><path class="j" d="m342.4 268.2l-13.1-7.3c2.1-3.6 6.6-4.9 10.2-2.8 3.6 2 4.9 6.5 2.9 10.1z"/><path class="w" d="m412.3 306.7l41.8-7.8"/><path class="s" d="m499.7 378.8c-1.1-1.9-3.6-2.3-5.7-3-3.8-1.3-6.8-4.4-10.5-6.1-4.1-1.9-8.9-1.9-13.3-0.9q-2.3 0.6-4.5 1.4c-2.7 1.1-5.4 2.6-7.9 4.1-10.6 6.2-18.6 20.4-29 26.9-3.9 2.4-7.5 4.6-11.1 6.8l24.9 22.2c5.1-4.2 10-8 12.3-9.3 6.1-3.7 12.3-3.8 19.2-4.8 4.7-0.6 9.4-2.1 14-3.5 1.6-0.5 3.4-1.1 4.1-2.7 0.9-1.9-0.6-4.3-2.7-5.1-2.1-0.8-4.9-0.6-7.2-1-1.8-0.3-6.6 0.8-7.7-1-0.5-1 0.2-2.1 0.8-3 4.4-5.4 9.8-11.1 16.7-12.7 2.2-0.5 4.4-1.1 6.1-2.5 1.7-1.3 2.6-3.9 1.5-5.8z"/><path class="e" d="m350.9 354c-26.4-14.4-50.4-5.2-59.1 13.4-7.9 16.7-24.3 81.7-24.3 81.7 7.9 14.8 83.4-95.1 83.4-95.1z"/><path class="e" d="m347 359.2l3.9-5.2c-29.8-14.2-56.5 4.4-80 41-25.4 39.5-38.7 96.1-38.8 155.8 0 0 5.1 26.9 39 40.3 36 14.3 86.2 8.2 101.9-29.1 0 0 0.3-37.2 11.6-55.6 7.3-11.9 24.4-38.3 37.2-57.2 11-16.5 19.7-54-3.5-67.7-6.8-4-9.6-5.2-18.8-9.6-21.1 7-55.2-4.3-52.5-12.7z"/><path class="x" d="m347.1 359.3l3.8-5.3c-29.8-14.2-56.5 4.4-80 41-25.4 39.5-38.7 96.1-38.8 155.8 0 0 5.1 26.9 39 40.3 36 14.3 86.2 8.2 101.9-29.1 0 0 0.3-37.2 11.6-55.6 7.3-11.9 24.4-38.3 37.2-57.2 11-16.5 19.7-54-3.5-67.7-6.8-4-9.6-5.2-18.8-9.6-21.1 7-55.2-4.2-52.4-12.6z"/><path class="y" d="m431.4 425.3c1.5-7.2 2-14.7 0.9-21.7q0 0 0 0c-5.4 12.7-13 24.4-22.5 34.4-12.1 12.8-27.1 22.7-38.4 36.3-11.9 14.3-20.5 31.7-30.5 47.4-4 6.3-9.5 18.4-16.9 18.9-9.1 0.6-17.8-10.4-22.7-18.1-7.9-12.1-14.7-27.4-24.5-38-8.6-9.4-21.9-21.3-33.5-15.9q-1.4 4.6-2.5 9.4-1.2 4.8-2.2 9.6 0 0.2-0.1 0.4-1 4.9-1.8 9.8-0.1 0.2-0.1 0.5-0.8 4.9-1.5 9.7c-2 14-3 28.4-3 42.8 0 0 5.1 26.9 39 40.3 36 14.3 86.2 8.2 101.9-29.1 0 0 0.3-37.2 11.6-55.6 1.1-1.8 2.5-4.1 4.1-6.5q0 0 0-0.1 0.1-0.2 0.3-0.4 1.9-3.1 4.2-6.6 0.1-0.2 0.3-0.4 0-0.1 0.1-0.2c3.2-5.1 6.9-10.7 10.6-16.4q0.9-1.3 1.7-2.7c3.7-5.5 7.4-11.1 10.9-16.4q0-0.1 0-0.1 1.8-2.7 3.5-5.2 0.7-1.1 1.5-2.2 0 0 0 0 0.6-0.9 1.2-1.9 0.1-0.3 0.3-0.6 0.4-0.7 0.9-1.5 0.1-0.3 0.3-0.6 0.5-0.9 0.9-1.8 0.1-0.2 0.2-0.5 0.6-1.1 1.1-2.4 0.1 0 0.1-0.1 0 0 0-0.1 0.5-1.1 1-2.3 0.1-0.3 0.2-0.5 0.4-1.1 0.8-2.3 0-0.1 0.1-0.1 0-0.2 0-0.3 0.8-2.1 1.4-4.3 0 0 0 0 0.6-2.2 1.1-4.4 0 0 0-0.1 0 0 0-0.1z"/><path class="s" d="m569.8 461.6c-1.9 2.3-4 4.4-6.2 6.4-9.1 8.3-19.8 12.2-32.2 20.3-10 6.5-25.5 16-38.5 24.1-14.6 9.1-32.3 16.5-41.9 19.3-12.1 3.6-18.8 3.7-26-15.6-3.5-9.5-6.3-19.3-9.3-28.9q-6.8-21.6-13.3-43.3c0 0-16.1-39.6 19.9-59.5 15.7 8.9 21.6 12.5 26.5 31.3 5.9 22.5 15.4 66.8 15.4 66.8 12.8-4.4 25.2-9.9 37.2-15.9 4.6-2.2 10.2-3.8 13.5-7.9 2.2-2.7 4-5.8 5.7-8.9 1.5-2.7 2.6-5.7 4.3-8.4 3.1-4.9 7.7-9 11.8-13 0.9-0.8 1.8-1.6 2.9-1.7 1.2-0.1 2.3 0.7 2.9 1.8 1.3 2.3 0.1 4.5-0.6 6.9q-1.1 4-2.3 8.1c9.2-5.5 17-12.6 23-21.5 0.5-0.8 1-1.7 1.8-2.3 0.7-0.7 1.7-1.1 2.6-1 2.4 0.3 4.8 4.2 4.9 6.4 0.2 2.3-0.3 4.6 0.2 6.8 0.6 2.1 2 3.8 2.6 5.8 0.7 2 1.2 4.4 1.4 6.5 0.5 4.9-1.2 9.4-3.6 13.6q-1.2 2-2.7 3.8z"/><path class="e" d="m420.2 382.7c13.7 5.5 23.5 11.8 29.8 32.7 6.3 21.1 13 54.5 13 54.5 0 0 0.1 7-16.5 16.8-16.6 9.9-32.2 4.4-32.2 4.4l-12.6-40.4c0 0-22.3-54 18.5-68z"/><path class="e" d="m339.8 697.8c-11-0.5-19.7-8.6-45.8-19.5-48.3-20.2-84.6-36.3-98.4-61.6-13.8-25.3-23.6-98.3-20.1-130 0.4-4.2 1.2-7.6 2.3-10.5l-3.4-0.5 8.8-7.5v0.1c9.1-7.4 23.8-0.8 34.8 5.2 31.7 17.2 56.4 33.9 76 94.3 14.7 45.5 24.4 86.9 44.7 109.1"/><path class="z" d="m177.8 476.2l-3.4-0.5 8.8-7.5v0.1c9.1-7.4 23.8-0.8 34.8 5.2 31.7 17.2 56.4 33.9 76 94.3 14.7 45.5 24.4 86.9 44.7 109.1l1.1 20.9c-11-0.5-19.7-8.6-45.8-19.5-48.3-20.2-84.6-36.3-98.4-61.6-13.8-25.3-23.6-98.3-20.1-130 0.4-4.2 1.2-7.6 2.3-10.5z"/><path class="e" d="m208.9 481.3c31.6 17.2 56.3 33.9 75.9 94.3 19.6 60.4 30.3 113.8 68.8 124.1 0 0-17.4 7-70.8-15.6-17-7.2-37.6-20.3-51.2-27.9-26.5-14.9-42.6-27.1-45.2-31.7-14-25.2-23.5-98.4-20.1-130 3.5-31.6 26.7-21.9 42.6-13.2z"/><path class="e" d="m386.7 213.4l-8.8-16.4 7.1-20.3v-12.5l-21.5 12.5v12.4l9.2 16q0.2 0.4 0.6 0.6z"/><path class="A" d="m386.7 213.4l-8.8-16.4 7.1-20.3v-12.5l-21.5 12.5v12.4l9.2 16q0.2 0.4 0.6 0.6z"/><path class="e" d="m438.1 65.5c0-4.1-2.9-9.1-6.5-11.2l-5.2-3c-3.6-2.1-9.4-2.1-12.9 0l-80.6 46.6c-3.6 2-6.4 7-6.4 11.2v88.6c0 4.1 2.8 9.1 6.4 11.1l5.3 3.1c3.5 2 9.3 2 12.9 0l25.9-15 9.2 16c0.6 1 2.1 0.9 2.5-0.2l9.7-28.2 33.2-19.2c3.6-2.1 6.5-7.1 6.5-11.2z"/><path class="A" d="m326.5 197.7c0 4.1 2.8 9.1 6.4 11.1l5.3 3.1c3.2 1.8 8.2 2 11.8 0.5-3.1 1.1-5.4-0.6-5.4-4.2v-88.7c0-2 0.7-4.3 1.9-6.3l-18.2-10.5c-1.1 2-1.8 4.3-1.8 6.4z"/><path class="n" d="m437.8 63.7c-0.7-2.8-3.2-3.6-6.2-1.9l-80.5 46.6c-1.8 1-3.4 2.7-4.6 4.8l-18.1-10.5c1.1-2 2.7-3.8 4.5-4.8l80.5-46.6c3.6-2.1 9.4-2.1 12.9 0l5.3 3c3.1 1.8 5.6 5.7 6.2 9.4z"/><path class="m" d="m356.4 154.3q0.1-1 0.4-1.8 0.3-0.8 0.9-1.7l17.5-28.3q0.2-0.3 0.3-0.4 0.1-0.1 0.2-0.1 0.4-0.3 0.7 0 0.2 0.3 0.2 0.9v10.9q0 1.3-0.5 2.3-0.5 0.9-0.9 1.5l-9 13.7 9 4.2q0.4 0.1 0.9 0.4 0.5 0.3 0.5 1.7v7.7q0 0.6-0.2 1.2-0.3 0.5-0.7 0.8-0.1 0-0.2 0.1-0.1 0-0.3-0.1l-17.5-8q-0.6-0.3-0.9-0.7-0.3-0.4-0.4-1.4z"/><path class="m" d="m394.6 110.6q0.2-0.9 0.7-1.8 0.4-0.9 1.3-1.3l5.8-3.4q0.4-0.3 0.7 0 0.3 0.3 0.3 0.9 0 0.3-0.1 0.7l-14.8 63q-0.2 0.8-0.6 1.7-0.5 1-1.3 1.5l-5.8 3.3q-0.4 0.2-0.6-0.1-0.3-0.2-0.3-0.9 0-0.2 0.1-0.6z"/><path class="m" d="m426.8 120.8q0 1.1-0.3 1.8-0.4 0.8-1 1.8l-17.5 28.3q-0.2 0.2-0.3 0.3-0.1 0.1-0.2 0.2-0.4 0.2-0.6-0.1-0.3-0.2-0.3-0.8v-11q0-1.3 0.5-2.2 0.5-0.9 0.9-1.5l7.7-11.8-7.7-2.9q-0.4-0.1-0.9-0.5-0.5-0.3-0.5-1.7v-10.9q0-0.6 0.3-1.2 0.2-0.5 0.6-0.7 0.1-0.1 0.2-0.1 0.1 0 0.3 0l17.5 8.1q0.6 0.2 1 0.6 0.3 0.4 0.3 1.5z"/><path class="j" d="m193 54.4l-107.8 62.1c-1.5 0.8-2.7 2.9-2.7 4.6v60.2c0 1.7 1.2 3.8 2.7 4.6l10.7 6c1.5 0.9 3.9 0.9 5.3 0l107.8-62.1c1.5-0.8 2.7-2.9 2.7-4.6v-60.2c0-1.7-1.2-3.7-2.7-4.6l-10.6-6c-1.5-0.9-3.9-0.8-5.4 0z"/><path class="d" d="m211.6 64.6c-0.2-1.4-1.3-1.9-2.6-1.1l-107.8 62.1c-0.7 0.4-1.4 1.1-1.9 2l-15.9-9.2c0.5-0.8 1.1-1.5 1.8-1.9l107.8-62.1c1.5-0.8 3.9-0.9 5.4 0l10.6 6c1.3 0.8 2.5 2.6 2.6 4.2z"/><path class="c" d="m209 63.5l-107.8 62.1c-1.4 0.8-2.6 2.9-2.6 4.6v60.2c0 1.7 1.2 2.4 2.6 1.5l107.8-62.1c1.5-0.8 2.7-2.9 2.7-4.6v-60.2c0-1.7-1.2-2.4-2.7-1.5z"/><path class="B" d="m125.2 141q0 0.7-0.1 1.9 0 1.3 0 2.6 0 1.3 0 2.5 0.1 1.2 0.1 1.9 0.1 1.2 0.3 2.2 0.2 0.9 0.8 1.5 0.5 0.5 1.3 0.6 0.8 0 1.9-0.7 1.2-0.6 2-1.5 0.7-0.9 1.2-1.7 0.5-0.9 0.7-1.8 0.3-0.9 0.4-1.6 0.2-1 0.4-1.4 0.2-0.5 0.8-0.8l4.5-2.6q0.3-0.2 0.5 0 0.3 0.2 0.3 0.7-0.1 2.7-0.9 5.6-0.8 2.8-2.3 5.4-1.4 2.6-3.4 4.8-1.9 2.1-4.2 3.4-2.5 1.5-4.4 1.4-1.9 0-3.3-1.1-1.4-1.2-2.1-3.4-0.8-2.2-0.9-5.1 0-2.1 0-4.6 0-2.5 0-4.8 0.1-2.9 0.8-6 0.8-3.1 2.2-5.8 1.3-2.8 3.3-5 1.9-2.3 4.4-3.7 2.3-1.3 4.2-1.4 2-0.1 3.4 0.8 1.5 0.9 2.3 2.8 0.8 1.9 0.9 4.6 0 0.5-0.3 1-0.2 0.4-0.5 0.6l-4.5 2.6q-0.6 0.4-0.8 0.1-0.2-0.2-0.4-0.9-0.1-0.6-0.4-1.2-0.2-0.6-0.7-0.9-0.5-0.3-1.2-0.3-0.8 0-2 0.7-1.1 0.6-1.9 1.6-0.8 0.9-1.3 2.1-0.6 1.1-0.8 2.4-0.2 1.2-0.3 2.5z"/><path class="B" d="m154.5 109.5q2.2-1.3 4-1.4 1.9-0.1 3.2 0.7 1.3 0.8 2.1 2.2 0.8 1.4 0.8 3.1 0 0.4-0.2 0.9-0.3 0.5-0.5 0.6l-4.5 2.7q-0.5 0.2-0.8 0.2-0.3-0.1-0.6-0.3-0.1-0.1-0.3-0.3-0.3-0.3-0.7-0.4-0.4-0.2-1-0.1-0.6 0-1.5 0.5-0.7 0.4-1.3 0.9-0.6 0.5-1 1-0.5 0.6-0.8 1.3-0.3 0.7-0.3 1.5 0 0.8 0.3 1.1 0.4 0.4 1.1 0.4 0.8 0 2.1-0.3 1.3-0.3 3.1-0.9 1.9-0.5 3.3-0.4 1.5 0.1 2.4 0.9 1 0.8 1.4 2.4 0.5 1.5 0.5 4 0 2.7-0.8 5.3-0.8 2.6-2.2 4.9-1.5 2.4-3.4 4.3-1.9 1.9-4.3 3.2-2.3 1.4-4.2 1.5-1.9 0.2-3.3-0.6-1.4-0.7-2.2-2.2-0.8-1.5-0.9-3.5 0-0.5 0.3-1 0.2-0.5 0.5-0.6l4.5-2.6q0.5-0.3 0.7-0.3 0.3 0.1 0.6 0.3 0.1 0.1 0.4 0.4 0.3 0.3 0.7 0.6 0.5 0.2 1.2 0.2 0.7-0.1 1.7-0.7 1.9-1 3.1-2.3 1.2-1.3 1.2-2.9 0-0.8-0.4-1.1-0.5-0.3-1.4-0.2-0.9 0.1-2.3 0.4-1.4 0.4-3.2 0.9-3.6 0.9-5.2-0.9-1.7-1.8-1.7-6.4 0-2.2 0.7-4.7 0.7-2.4 2-4.8 1.2-2.3 3-4.3 1.8-1.9 4.1-3.2z"/><path class="B" d="m179.4 95.1q2.2-1.3 4-1.4 1.9-0.1 3.2 0.7 1.4 0.8 2.1 2.2 0.8 1.4 0.8 3.1 0 0.5-0.2 0.9-0.2 0.5-0.5 0.7l-4.5 2.6q-0.5 0.2-0.8 0.2-0.3 0-0.6-0.3-0.1-0.1-0.3-0.3-0.2-0.3-0.7-0.4-0.4-0.2-1-0.1-0.6 0-1.5 0.6-0.7 0.3-1.3 0.8-0.6 0.5-1 1.1-0.5 0.5-0.8 1.2-0.3 0.7-0.3 1.5 0 0.8 0.3 1.1 0.4 0.4 1.1 0.4 0.8 0 2.1-0.3 1.3-0.3 3.2-0.8 1.9-0.5 3.3-0.5 1.4 0.1 2.3 0.9 1 0.8 1.4 2.4 0.5 1.6 0.5 4 0 2.7-0.8 5.3-0.8 2.6-2.2 4.9-1.4 2.4-3.4 4.3-1.9 1.9-4.2 3.2-2.4 1.4-4.3 1.5-1.9 0.2-3.3-0.6-1.4-0.7-2.2-2.2-0.8-1.5-0.8-3.5 0-0.5 0.2-1 0.2-0.4 0.5-0.6l4.5-2.6q0.5-0.3 0.8-0.3 0.2 0.1 0.5 0.3 0.1 0.1 0.4 0.4 0.3 0.4 0.8 0.6 0.4 0.2 1.1 0.2 0.7 0 1.8-0.6 1.8-1.1 3-2.4 1.2-1.3 1.2-2.9 0-0.8-0.4-1.1-0.5-0.3-1.4-0.2-0.9 0.1-2.2 0.5-1.4 0.3-3.3 0.8-3.6 0.9-5.2-0.9-1.6-1.8-1.6-6.3 0-2.3 0.6-4.8 0.7-2.4 2-4.8 1.2-2.3 3.1-4.3 1.8-1.9 4-3.2z"/><path class="j" d="m193 179.4l-107.8 62.1c-1.5 0.9-2.7 2.9-2.7 4.7v60.1c0 1.7 1.2 3.8 2.7 4.6l10.7 6.1c1.5 0.8 3.9 0.8 5.3-0.1l107.8-62c1.5-0.9 2.7-3 2.7-4.7v-60.1c0-1.7-1.2-3.8-2.7-4.6l-10.6-6.1c-1.5-0.8-3.9-0.8-5.4 0z"/><path class="d" d="m211.6 189.6c-0.2-1.4-1.3-1.8-2.6-1.1l-107.8 62.1c-0.7 0.4-1.4 1.2-1.9 2l-15.9-9.2c0.5-0.8 1.1-1.5 1.8-1.9l107.8-62.1c1.5-0.8 3.9-0.8 5.4 0l10.6 6.1c1.3 0.7 2.5 2.5 2.6 4.1z"/><path class="c" d="m209 188.5l-107.8 62.1c-1.4 0.9-2.6 2.9-2.6 4.6v60.2c0 1.7 1.2 2.4 2.6 1.5l107.8-62c1.5-0.9 2.7-3 2.7-4.7v-60.1c0-1.7-1.2-2.4-2.7-1.6z"/><path class="B" d="m125.7 251.6q0.4-0.2 0.7 0.1 0.2 0.2 0.2 0.8v34.3q0 0.5-0.2 1.1-0.3 0.6-0.7 0.8l-4.5 2.6q-0.4 0.2-0.7 0-0.2-0.3-0.2-0.9v-12.9l-7.7 4.4v12.9q0 0.6-0.2 1.2-0.3 0.6-0.7 0.8l-4.5 2.6q-0.4 0.2-0.7 0-0.2-0.2-0.2-0.9v-34.2q0-0.6 0.2-1.2 0.3-0.6 0.7-0.8l4.5-2.6q0.4-0.2 0.7 0.1 0.2 0.2 0.2 0.8v12.8l7.7-4.4v-12.8q0-0.6 0.2-1.2 0.3-0.5 0.7-0.8z"/><path class="B" d="m150.9 237.1q0.3-0.2 0.6 0.1 0.3 0.2 0.3 0.8v5.6q0 0.6-0.3 1.2-0.3 0.6-0.6 0.8l-6.1 3.5v27.2q0 0.6-0.3 1.1-0.2 0.6-0.6 0.8l-4.5 2.6q-0.4 0.3-0.7 0-0.3-0.3-0.3-0.9v-27.1l-6 3.5q-0.4 0.2-0.7-0.1-0.2-0.3-0.2-0.8v-5.6q0-0.6 0.2-1.2 0.3-0.6 0.7-0.8z"/><path class="B" d="m166.7 255.7q-0.3-0.3-0.5-0.6l-3.2-6.9v17.6q0 0.6-0.3 1.1-0.3 0.6-0.7 0.8l-4.5 2.6q-0.3 0.3-0.6 0-0.3-0.3-0.3-0.8v-34.3q0-0.6 0.3-1.1 0.3-0.6 0.6-0.8l4-2.3q0.7-0.4 1.1-0.1 0.3 0.4 0.4 0.6l5.6 11.5 5.6-17.9q0.1-0.3 0.4-1.1 0.4-0.8 1-1.2l4-2.3q0.4-0.2 0.7 0 0.3 0.3 0.3 0.9v34.2q0 0.6-0.3 1.2-0.3 0.6-0.7 0.8l-4.5 2.6q-0.4 0.2-0.6-0.1-0.3-0.2-0.3-0.8v-17.5l-3.2 10.6q-0.2 0.5-0.5 1.1-0.3 0.6-0.8 0.9l-2.2 1.3q-0.5 0.3-0.8 0z"/><path class="B" d="m204 235.1q0.3-0.3 0.6 0 0.3 0.3 0.3 0.9v5.6q0 0.6-0.3 1.1-0.3 0.6-0.6 0.8l-16 9.2q-0.3 0.3-0.6 0-0.3-0.3-0.3-0.8v-34.3q0-0.6 0.3-1.1 0.3-0.6 0.6-0.8l4.5-2.6q0.4-0.3 0.7 0 0.3 0.3 0.3 0.8v27.2z"/><path class="j" d="m193 304.5l-107.8 62.1c-1.5 0.8-2.7 2.9-2.7 4.6v60.1c0 1.8 1.2 3.8 2.7 4.6l10.7 6.1c1.5 0.8 3.9 0.8 5.3 0l107.8-62.1c1.5-0.9 2.7-2.9 2.7-4.6v-60.2c0-1.7-1.2-3.8-2.7-4.6l-10.6-6.1c-1.5-0.8-3.9-0.8-5.4 0.1z"/><path class="d" d="m211.6 314.6c-0.2-1.3-1.3-1.8-2.6-1.1l-107.8 62.1c-0.7 0.5-1.4 1.2-1.9 2l-15.9-9.1c0.5-0.9 1.1-1.5 1.8-2l107.8-62c1.5-0.9 3.9-0.9 5.4-0.1l10.6 6.1c1.3 0.7 2.5 2.5 2.6 4.1z"/><path class="c" d="m209 313.5l-107.8 62.1c-1.4 0.9-2.6 3-2.6 4.7v60.1c0 1.7 1.2 2.4 2.6 1.6l107.8-62.1c1.5-0.9 2.7-2.9 2.7-4.6v-60.2c0-1.7-1.2-2.4-2.7-1.6z"/><path class="B" d="m127.3 389.8q0 0.8-0.1 2 0 1.2 0 2.5 0 1.3 0 2.5 0.1 1.3 0.1 1.9 0.1 1.2 0.3 2.2 0.2 1 0.8 1.5 0.5 0.6 1.3 0.6 0.8 0.1 1.9-0.6 1.2-0.7 2-1.5 0.7-0.9 1.2-1.8 0.5-0.9 0.7-1.8 0.3-0.9 0.4-1.6 0.2-0.9 0.4-1.4 0.2-0.5 0.8-0.8l4.5-2.6q0.3-0.2 0.5 0 0.3 0.3 0.3 0.7-0.1 2.8-0.9 5.6-0.8 2.9-2.3 5.5-1.4 2.5-3.4 4.7-1.9 2.2-4.2 3.5-2.5 1.4-4.4 1.4-1.9 0-3.3-1.2-1.4-1.2-2.1-3.4-0.8-2.2-0.9-5 0-2.1 0-4.6 0-2.5 0-4.8 0.1-3 0.8-6.1 0.8-3 2.2-5.8 1.3-2.7 3.3-5 1.9-2.3 4.4-3.7 2.3-1.3 4.2-1.4 2-0.1 3.4 0.8 1.5 1 2.3 2.9 0.8 1.9 0.9 4.6 0 0.4-0.3 0.9-0.2 0.5-0.5 0.7l-4.5 2.6q-0.6 0.3-0.8 0.1-0.2-0.3-0.4-1-0.1-0.6-0.4-1.2-0.2-0.5-0.7-0.9-0.5-0.3-1.2-0.3-0.8 0-2 0.7-1.1 0.7-1.9 1.6-0.8 1-1.3 2.1-0.6 1.2-0.8 2.4-0.2 1.3-0.3 2.5z"/><path class="B" d="m158.9 382.8v8.7q0 0.6-0.3 1.2-0.3 0.6-0.6 0.8l-4.4 2.5q-0.4 0.2-0.6 0-0.3-0.3-0.3-0.9v-8.7l-5.3 3q-0.4 0.3-0.7 0-0.3-0.3-0.3-0.9v-5.3q0-0.6 0.3-1.2 0.3-0.6 0.7-0.8l5.3-3.1v-8.7q0-0.6 0.3-1.2 0.2-0.5 0.6-0.8l4.4-2.5q0.3-0.2 0.6 0.1 0.3 0.2 0.3 0.8v8.8l5.3-3.1q0.4-0.2 0.6 0.1 0.3 0.2 0.3 0.8v5.4q0 0.5-0.3 1.1-0.2 0.6-0.6 0.8z"/><path class="B" d="m181.7 369.6v8.8q0 0.5-0.3 1.1-0.3 0.6-0.6 0.8l-4.4 2.5q-0.3 0.2-0.6 0-0.3-0.3-0.3-0.9v-8.7l-5.3 3.1q-0.4 0.2-0.7-0.1-0.3-0.2-0.3-0.8v-5.4q0-0.6 0.3-1.1 0.3-0.6 0.7-0.8l5.3-3.1v-8.8q0-0.5 0.3-1.1 0.3-0.6 0.6-0.8l4.4-2.5q0.3-0.3 0.6 0 0.3 0.3 0.3 0.9v8.7l5.3-3.1q0.4-0.2 0.7 0.1 0.2 0.2 0.2 0.8v5.4q0 0.6-0.2 1.1-0.3 0.6-0.7 0.8z"/></svg>